%TF.GenerationSoftware,KiCad,Pcbnew,(5.1.6)-1*%
%TF.CreationDate,2020-08-15T20:42:22+02:00*%
%TF.ProjectId,teensypcbn,7465656e-7379-4706-9362-6e2e6b696361,rev?*%
%TF.SameCoordinates,Original*%
%TF.FileFunction,Copper,L2,Bot*%
%TF.FilePolarity,Positive*%
%FSLAX46Y46*%
G04 Gerber Fmt 4.6, Leading zero omitted, Abs format (unit mm)*
G04 Created by KiCad (PCBNEW (5.1.6)-1) date 2020-08-15 20:42:22*
%MOMM*%
%LPD*%
G01*
G04 APERTURE LIST*
%TA.AperFunction,SMDPad,CuDef*%
%ADD10R,0.995000X1.000000*%
%TD*%
%TA.AperFunction,ComponentPad*%
%ADD11R,1.700000X1.700000*%
%TD*%
%TA.AperFunction,ComponentPad*%
%ADD12O,1.700000X1.700000*%
%TD*%
%TA.AperFunction,ComponentPad*%
%ADD13C,1.300000*%
%TD*%
%TA.AperFunction,ComponentPad*%
%ADD14C,1.500000*%
%TD*%
%TA.AperFunction,SMDPad,CuDef*%
%ADD15R,0.820000X1.000000*%
%TD*%
%TA.AperFunction,ComponentPad*%
%ADD16C,1.600000*%
%TD*%
%TA.AperFunction,ComponentPad*%
%ADD17R,1.600000X1.600000*%
%TD*%
%TA.AperFunction,ComponentPad*%
%ADD18R,1.300000X1.300000*%
%TD*%
%TA.AperFunction,ViaPad*%
%ADD19C,0.800000*%
%TD*%
%TA.AperFunction,Conductor*%
%ADD20C,0.500000*%
%TD*%
%TA.AperFunction,Conductor*%
%ADD21C,0.200000*%
%TD*%
%TA.AperFunction,Conductor*%
%ADD22C,0.250000*%
%TD*%
%TA.AperFunction,Conductor*%
%ADD23C,0.254000*%
%TD*%
G04 APERTURE END LIST*
D10*
%TO.P,C1,2*%
%TO.N,GND*%
X150382500Y-85480000D03*
%TO.P,C1,1*%
%TO.N,Net-(C1-Pad1)*%
X152157500Y-85480000D03*
%TD*%
%TO.P,C2,2*%
%TO.N,Net-(C1-Pad1)*%
X152252501Y-87234999D03*
%TO.P,C2,1*%
%TO.N,GND*%
X150477501Y-87234999D03*
%TD*%
%TO.P,C3,1*%
%TO.N,Net-(C3-Pad1)*%
X142667500Y-94270000D03*
%TO.P,C3,2*%
%TO.N,GND*%
X140892500Y-94270000D03*
%TD*%
%TO.P,C4,1*%
%TO.N,GND*%
X141187501Y-92574999D03*
%TO.P,C4,2*%
%TO.N,Net-(C3-Pad1)*%
X142962501Y-92574999D03*
%TD*%
%TO.P,C5,1*%
%TO.N,Net-(C5-Pad1)*%
X145297500Y-96190000D03*
%TO.P,C5,2*%
%TO.N,GND*%
X143522500Y-96190000D03*
%TD*%
%TO.P,C6,2*%
%TO.N,GND*%
X162887500Y-106000000D03*
%TO.P,C6,1*%
%TO.N,Net-(C6-Pad1)*%
X161112500Y-106000000D03*
%TD*%
D11*
%TO.P,J1,1*%
%TO.N,GND*%
X225000000Y-123000000D03*
D12*
%TO.P,J1,2*%
%TO.N,Net-(BT1-Pad1)*%
X222460000Y-123000000D03*
%TO.P,J1,3*%
%TO.N,GND*%
X225000000Y-120460000D03*
%TO.P,J1,4*%
%TO.N,Net-(J1-Pad4)*%
X222460000Y-120460000D03*
%TO.P,J1,5*%
%TO.N,GND*%
X225000000Y-117920000D03*
%TO.P,J1,6*%
%TO.N,Net-(J1-Pad6)*%
X222460000Y-117920000D03*
%TO.P,J1,7*%
%TO.N,GND*%
X225000000Y-115380000D03*
%TO.P,J1,8*%
%TO.N,Net-(J1-Pad8)*%
X222460000Y-115380000D03*
%TO.P,J1,9*%
%TO.N,GND*%
X225000000Y-112840000D03*
%TO.P,J1,10*%
%TO.N,Net-(J1-Pad10)*%
X222460000Y-112840000D03*
%TO.P,J1,11*%
%TO.N,GND*%
X225000000Y-110300000D03*
%TO.P,J1,12*%
%TO.N,Net-(J1-Pad12)*%
X222460000Y-110300000D03*
%TO.P,J1,13*%
%TO.N,GND*%
X225000000Y-107760000D03*
%TO.P,J1,14*%
%TO.N,Net-(J1-Pad14)*%
X222460000Y-107760000D03*
%TO.P,J1,15*%
%TO.N,GND*%
X225000000Y-105220000D03*
%TO.P,J1,16*%
%TO.N,Net-(J1-Pad16)*%
X222460000Y-105220000D03*
%TO.P,J1,17*%
%TO.N,GND*%
X225000000Y-102680000D03*
%TO.P,J1,18*%
%TO.N,Net-(J1-Pad18)*%
X222460000Y-102680000D03*
%TO.P,J1,19*%
%TO.N,GND*%
X225000000Y-100140000D03*
%TO.P,J1,20*%
%TO.N,Net-(J1-Pad20)*%
X222460000Y-100140000D03*
%TO.P,J1,21*%
%TO.N,GND*%
X225000000Y-97600000D03*
%TO.P,J1,22*%
%TO.N,Net-(J1-Pad22)*%
X222460000Y-97600000D03*
%TO.P,J1,23*%
%TO.N,GND*%
X225000000Y-95060000D03*
%TO.P,J1,24*%
%TO.N,Net-(J1-Pad24)*%
X222460000Y-95060000D03*
%TO.P,J1,25*%
%TO.N,GND*%
X225000000Y-92520000D03*
%TO.P,J1,26*%
%TO.N,Net-(J1-Pad26)*%
X222460000Y-92520000D03*
%TO.P,J1,27*%
%TO.N,GND*%
X225000000Y-89980000D03*
%TO.P,J1,28*%
%TO.N,Net-(J1-Pad28)*%
X222460000Y-89980000D03*
%TO.P,J1,29*%
%TO.N,GND*%
X225000000Y-87440000D03*
%TO.P,J1,30*%
%TO.N,Net-(J1-Pad30)*%
X222460000Y-87440000D03*
%TO.P,J1,31*%
%TO.N,GND*%
X225000000Y-84900000D03*
%TO.P,J1,32*%
%TO.N,Net-(J1-Pad32)*%
X222460000Y-84900000D03*
%TO.P,J1,33*%
%TO.N,GND*%
X225000000Y-82360000D03*
%TO.P,J1,34*%
%TO.N,Net-(J1-Pad34)*%
X222460000Y-82360000D03*
%TO.P,J1,35*%
%TO.N,GND*%
X225000000Y-79820000D03*
%TO.P,J1,36*%
%TO.N,Net-(J1-Pad36)*%
X222460000Y-79820000D03*
%TO.P,J1,37*%
%TO.N,GND*%
X225000000Y-77280000D03*
%TO.P,J1,38*%
%TO.N,Net-(J1-Pad38)*%
X222460000Y-77280000D03*
%TO.P,J1,39*%
%TO.N,GND*%
X225000000Y-74740000D03*
%TO.P,J1,40*%
%TO.N,Net-(J1-Pad40)*%
X222460000Y-74740000D03*
%TO.P,J1,41*%
%TO.N,GND*%
X225000000Y-72200000D03*
%TO.P,J1,42*%
%TO.N,Net-(J1-Pad42)*%
X222460000Y-72200000D03*
%TO.P,J1,43*%
%TO.N,GND*%
X225000000Y-69660000D03*
%TO.P,J1,44*%
%TO.N,Net-(J1-Pad44)*%
X222460000Y-69660000D03*
%TO.P,J1,45*%
%TO.N,GND*%
X225000000Y-67120000D03*
%TO.P,J1,46*%
%TO.N,Net-(J1-Pad46)*%
X222460000Y-67120000D03*
%TO.P,J1,47*%
%TO.N,GND*%
X225000000Y-64580000D03*
%TO.P,J1,48*%
%TO.N,Net-(J1-Pad48)*%
X222460000Y-64580000D03*
%TO.P,J1,49*%
%TO.N,GND*%
X225000000Y-62040000D03*
%TO.P,J1,50*%
%TO.N,Net-(J1-Pad50)*%
X222460000Y-62040000D03*
%TO.P,J1,51*%
%TO.N,GND*%
X225000000Y-59500000D03*
%TO.P,J1,52*%
%TO.N,Net-(J1-Pad52)*%
X222460000Y-59500000D03*
%TD*%
%TO.P,J2,52*%
%TO.N,Net-(J2-Pad52)*%
X126540000Y-122500000D03*
%TO.P,J2,51*%
%TO.N,GND*%
X124000000Y-122500000D03*
%TO.P,J2,50*%
%TO.N,Net-(J2-Pad50)*%
X126540000Y-119960000D03*
%TO.P,J2,49*%
%TO.N,GND*%
X124000000Y-119960000D03*
%TO.P,J2,48*%
%TO.N,Net-(J2-Pad48)*%
X126540000Y-117420000D03*
%TO.P,J2,47*%
%TO.N,GND*%
X124000000Y-117420000D03*
%TO.P,J2,46*%
X126540000Y-114880000D03*
%TO.P,J2,45*%
X124000000Y-114880000D03*
%TO.P,J2,44*%
%TO.N,Net-(J2-Pad44)*%
X126540000Y-112340000D03*
%TO.P,J2,43*%
%TO.N,GND*%
X124000000Y-112340000D03*
%TO.P,J2,42*%
%TO.N,Net-(J2-Pad42)*%
X126540000Y-109800000D03*
%TO.P,J2,41*%
%TO.N,GND*%
X124000000Y-109800000D03*
%TO.P,J2,40*%
%TO.N,Net-(J2-Pad40)*%
X126540000Y-107260000D03*
%TO.P,J2,39*%
%TO.N,GND*%
X124000000Y-107260000D03*
%TO.P,J2,38*%
%TO.N,Net-(J2-Pad38)*%
X126540000Y-104720000D03*
%TO.P,J2,37*%
%TO.N,GND*%
X124000000Y-104720000D03*
%TO.P,J2,36*%
%TO.N,Net-(J2-Pad36)*%
X126540000Y-102180000D03*
%TO.P,J2,35*%
%TO.N,GND*%
X124000000Y-102180000D03*
%TO.P,J2,34*%
%TO.N,Net-(J2-Pad34)*%
X126540000Y-99640000D03*
%TO.P,J2,33*%
%TO.N,GND*%
X124000000Y-99640000D03*
%TO.P,J2,32*%
%TO.N,Net-(J2-Pad32)*%
X126540000Y-97100000D03*
%TO.P,J2,31*%
%TO.N,GND*%
X124000000Y-97100000D03*
%TO.P,J2,30*%
%TO.N,Net-(J2-Pad30)*%
X126540000Y-94560000D03*
%TO.P,J2,29*%
%TO.N,GND*%
X124000000Y-94560000D03*
%TO.P,J2,28*%
%TO.N,Net-(J2-Pad28)*%
X126540000Y-92020000D03*
%TO.P,J2,27*%
%TO.N,GND*%
X124000000Y-92020000D03*
%TO.P,J2,26*%
%TO.N,Net-(J2-Pad26)*%
X126540000Y-89480000D03*
%TO.P,J2,25*%
%TO.N,GND*%
X124000000Y-89480000D03*
%TO.P,J2,24*%
%TO.N,Net-(J2-Pad24)*%
X126540000Y-86940000D03*
%TO.P,J2,23*%
%TO.N,GND*%
X124000000Y-86940000D03*
%TO.P,J2,22*%
%TO.N,Net-(J2-Pad22)*%
X126540000Y-84400000D03*
%TO.P,J2,21*%
%TO.N,GND*%
X124000000Y-84400000D03*
%TO.P,J2,20*%
X126540000Y-81860000D03*
%TO.P,J2,19*%
X124000000Y-81860000D03*
%TO.P,J2,18*%
%TO.N,Net-(J2-Pad18)*%
X126540000Y-79320000D03*
%TO.P,J2,17*%
%TO.N,GND*%
X124000000Y-79320000D03*
%TO.P,J2,16*%
%TO.N,Net-(J2-Pad16)*%
X126540000Y-76780000D03*
%TO.P,J2,15*%
%TO.N,GND*%
X124000000Y-76780000D03*
%TO.P,J2,14*%
%TO.N,Net-(J2-Pad14)*%
X126540000Y-74240000D03*
%TO.P,J2,13*%
%TO.N,GND*%
X124000000Y-74240000D03*
%TO.P,J2,12*%
%TO.N,Net-(J2-Pad12)*%
X126540000Y-71700000D03*
%TO.P,J2,11*%
%TO.N,GND*%
X124000000Y-71700000D03*
%TO.P,J2,10*%
%TO.N,Net-(J2-Pad10)*%
X126540000Y-69160000D03*
%TO.P,J2,9*%
%TO.N,GND*%
X124000000Y-69160000D03*
%TO.P,J2,8*%
%TO.N,Net-(J2-Pad8)*%
X126540000Y-66620000D03*
%TO.P,J2,7*%
%TO.N,GND*%
X124000000Y-66620000D03*
%TO.P,J2,6*%
%TO.N,Net-(J2-Pad6)*%
X126540000Y-64080000D03*
%TO.P,J2,5*%
%TO.N,GND*%
X124000000Y-64080000D03*
%TO.P,J2,4*%
%TO.N,Net-(J2-Pad4)*%
X126540000Y-61540000D03*
%TO.P,J2,3*%
%TO.N,GND*%
X124000000Y-61540000D03*
%TO.P,J2,2*%
%TO.N,Net-(J2-Pad2)*%
X126540000Y-59000000D03*
D11*
%TO.P,J2,1*%
%TO.N,GND*%
X124000000Y-59000000D03*
%TD*%
D13*
%TO.P,J4,1*%
%TO.N,/T1P*%
X146000000Y-107000000D03*
%TO.P,J4,2*%
%TO.N,/T1N*%
X147270000Y-104460000D03*
%TO.P,J4,3*%
%TO.N,/R1P*%
X148540000Y-107000000D03*
%TO.P,J4,4*%
%TO.N,Net-(J4-Pad4)*%
X149810000Y-104460000D03*
%TO.P,J4,5*%
X151080000Y-107000000D03*
%TO.P,J4,6*%
%TO.N,/R1N*%
X152350000Y-104460000D03*
%TO.P,J4,7*%
%TO.N,Net-(J4-Pad7)*%
X153620000Y-107000000D03*
%TO.P,J4,8*%
X154890000Y-104460000D03*
D14*
%TO.P,J4,G1*%
%TO.N,GND*%
X143645000Y-108470000D03*
%TD*%
D15*
%TO.P,R1,2*%
%TO.N,Net-(C5-Pad1)*%
X147510000Y-96060000D03*
%TO.P,R1,1*%
%TO.N,Net-(R1-Pad1)*%
X149110000Y-96060000D03*
%TD*%
%TO.P,R2,1*%
%TO.N,Net-(R2-Pad1)*%
X148940000Y-94320000D03*
%TO.P,R2,2*%
%TO.N,Net-(C5-Pad1)*%
X147340000Y-94320000D03*
%TD*%
%TO.P,R3,2*%
%TO.N,Net-(C6-Pad1)*%
X159300000Y-106500000D03*
%TO.P,R3,1*%
%TO.N,Net-(J4-Pad4)*%
X157700000Y-106500000D03*
%TD*%
%TO.P,R4,1*%
%TO.N,Net-(J4-Pad7)*%
X157700000Y-105000000D03*
%TO.P,R4,2*%
%TO.N,Net-(C6-Pad1)*%
X159300000Y-105000000D03*
%TD*%
D16*
%TO.P,U1,49*%
%TO.N,Net-(J2-Pad52)*%
X172920000Y-120670000D03*
%TO.P,U1,59*%
%TO.N,GND*%
X182569200Y-106750800D03*
%TO.P,U1,58*%
X182569200Y-109290800D03*
%TO.P,U1,57*%
%TO.N,/DP*%
X182569200Y-111830800D03*
%TO.P,U1,56*%
%TO.N,/DN*%
X182569200Y-114370800D03*
D17*
%TO.P,U1,55*%
%TO.N,Net-(J3-Pad1)*%
X182569200Y-116910800D03*
D16*
%TO.P,U1,48*%
%TO.N,Net-(J2-Pad48)*%
X170380000Y-123210000D03*
%TO.P,U1,47*%
%TO.N,GND*%
X170380000Y-120670000D03*
%TO.P,U1,46*%
%TO.N,Net-(J2-Pad44)*%
X170380000Y-118130000D03*
%TO.P,U1,45*%
%TO.N,Net-(J2-Pad42)*%
X170380000Y-115590000D03*
%TO.P,U1,44*%
%TO.N,Net-(J2-Pad40)*%
X170380000Y-113050000D03*
%TO.P,U1,43*%
%TO.N,Net-(J2-Pad38)*%
X170380000Y-110510000D03*
%TO.P,U1,42*%
%TO.N,Net-(J2-Pad36)*%
X170380000Y-107970000D03*
%TO.P,U1,41*%
%TO.N,Net-(J2-Pad34)*%
X170380000Y-105430000D03*
%TO.P,U1,40*%
%TO.N,Net-(J2-Pad32)*%
X170380000Y-102890000D03*
%TO.P,U1,39*%
%TO.N,Net-(J2-Pad30)*%
X170380000Y-100350000D03*
%TO.P,U1,38*%
%TO.N,Net-(J2-Pad28)*%
X170380000Y-97810000D03*
%TO.P,U1,37*%
%TO.N,Net-(J2-Pad26)*%
X170380000Y-95270000D03*
%TO.P,U1,36*%
%TO.N,Net-(J2-Pad24)*%
X170380000Y-92730000D03*
%TO.P,U1,35*%
%TO.N,Net-(J2-Pad22)*%
X170380000Y-90190000D03*
D17*
%TO.P,U1,1*%
%TO.N,GND*%
X185620000Y-123210000D03*
D16*
%TO.P,U1,2*%
%TO.N,Net-(J1-Pad8)*%
X185620000Y-120670000D03*
%TO.P,U1,3*%
%TO.N,Net-(J1-Pad10)*%
X185620000Y-118130000D03*
%TO.P,U1,4*%
%TO.N,Net-(J1-Pad12)*%
X185620000Y-115590000D03*
%TO.P,U1,5*%
%TO.N,Net-(J1-Pad14)*%
X185620000Y-113050000D03*
%TO.P,U1,6*%
%TO.N,Net-(J1-Pad16)*%
X185620000Y-110510000D03*
%TO.P,U1,7*%
%TO.N,Net-(J1-Pad18)*%
X185620000Y-107970000D03*
%TO.P,U1,8*%
%TO.N,Net-(J1-Pad20)*%
X185620000Y-105430000D03*
%TO.P,U1,9*%
%TO.N,Net-(J1-Pad22)*%
X185620000Y-102890000D03*
%TO.P,U1,10*%
%TO.N,Net-(J1-Pad24)*%
X185620000Y-100350000D03*
%TO.P,U1,11*%
%TO.N,Net-(J1-Pad26)*%
X185620000Y-97810000D03*
%TO.P,U1,12*%
%TO.N,Net-(J1-Pad28)*%
X185620000Y-95270000D03*
%TO.P,U1,13*%
%TO.N,Net-(J1-Pad30)*%
X185620000Y-92730000D03*
%TO.P,U1,34*%
%TO.N,GND*%
X170380000Y-87650000D03*
%TO.P,U1,33*%
%TO.N,Net-(J2-Pad18)*%
X170380000Y-85110000D03*
%TO.P,U1,32*%
%TO.N,Net-(J2-Pad16)*%
X170380000Y-82570000D03*
%TO.P,U1,31*%
%TO.N,Net-(J2-Pad14)*%
X170380000Y-80030000D03*
%TO.P,U1,30*%
%TO.N,Net-(J2-Pad12)*%
X170380000Y-77490000D03*
%TO.P,U1,29*%
%TO.N,Net-(J2-Pad10)*%
X170380000Y-74950000D03*
%TO.P,U1,28*%
%TO.N,Net-(J2-Pad8)*%
X170380000Y-72410000D03*
%TO.P,U1,27*%
%TO.N,Net-(J2-Pad6)*%
X170380000Y-69870000D03*
%TO.P,U1,26*%
%TO.N,Net-(J2-Pad4)*%
X170380000Y-67330000D03*
%TO.P,U1,25*%
%TO.N,Net-(J2-Pad2)*%
X170380000Y-64790000D03*
%TO.P,U1,24*%
%TO.N,Net-(J1-Pad52)*%
X185620000Y-64790000D03*
%TO.P,U1,23*%
%TO.N,Net-(J1-Pad50)*%
X185620000Y-67330000D03*
%TO.P,U1,22*%
%TO.N,Net-(J1-Pad48)*%
X185620000Y-69870000D03*
%TO.P,U1,21*%
%TO.N,Net-(J1-Pad46)*%
X185620000Y-72410000D03*
%TO.P,U1,14*%
%TO.N,Net-(J1-Pad32)*%
X185620000Y-90190000D03*
%TO.P,U1,15*%
%TO.N,Net-(J1-Pad34)*%
X185620000Y-87650000D03*
%TO.P,U1,16*%
%TO.N,Net-(J1-Pad36)*%
X185620000Y-85110000D03*
%TO.P,U1,20*%
%TO.N,Net-(J1-Pad44)*%
X185620000Y-74950000D03*
%TO.P,U1,19*%
%TO.N,Net-(J1-Pad42)*%
X185620000Y-77490000D03*
%TO.P,U1,18*%
%TO.N,Net-(J1-Pad40)*%
X185620000Y-80030000D03*
%TO.P,U1,17*%
%TO.N,Net-(J1-Pad38)*%
X185620000Y-82570000D03*
D18*
%TO.P,U1,60*%
%TO.N,/RP*%
X172818400Y-110240000D03*
D13*
%TO.P,U1,65*%
%TO.N,/RN*%
X172818400Y-108240000D03*
%TO.P,U1,61*%
%TO.N,Net-(U1-Pad61)*%
X174818400Y-110240000D03*
%TO.P,U1,64*%
%TO.N,GND*%
X174818400Y-108240000D03*
%TO.P,U1,63*%
%TO.N,/TP*%
X176818400Y-108240000D03*
%TO.P,U1,62*%
%TO.N,/TN*%
X176818400Y-110240000D03*
D16*
%TO.P,U1,50*%
%TO.N,Net-(BT1-Pad1)*%
X183080000Y-77490000D03*
%TO.P,U1,51*%
%TO.N,Net-(J1-Pad6)*%
X180540000Y-77490000D03*
%TO.P,U1,52*%
%TO.N,GND*%
X178000000Y-77490000D03*
%TO.P,U1,53*%
%TO.N,Net-(J1-Pad4)*%
X175460000Y-77490000D03*
%TO.P,U1,54*%
%TO.N,Net-(J2-Pad50)*%
X172920000Y-77490000D03*
D13*
%TO.P,U1,66*%
%TO.N,Net-(U1-Pad66)*%
X179270000Y-122480000D03*
%TO.P,U1,67*%
%TO.N,Net-(U1-Pad67)*%
X176730000Y-122480000D03*
%TD*%
D19*
%TO.N,*%
X159975000Y-85550000D03*
X159975000Y-80250000D03*
%TO.N,Net-(BT1-Pad1)*%
X212986435Y-115013564D03*
X217107052Y-123240010D03*
%TO.N,GND*%
X181829999Y-73030001D03*
X181980000Y-81890000D03*
X184750000Y-60310000D03*
X145800000Y-86425000D03*
X166850000Y-84225000D03*
X162275000Y-84775000D03*
X138125000Y-91575000D03*
X174400000Y-97750000D03*
X179450000Y-102250000D03*
X168150000Y-96100000D03*
X161425000Y-99425000D03*
%TO.N,Net-(J1-Pad4)*%
X192500000Y-110500000D03*
%TO.N,Net-(J2-Pad48)*%
X135740000Y-119880000D03*
%TO.N,Net-(J2-Pad28)*%
X166140001Y-97810000D03*
%TO.N,Net-(C1-Pad1)*%
X152360000Y-87840000D03*
%TO.N,Net-(C3-Pad1)*%
X146370000Y-92120000D03*
%TO.N,/TN*%
X175700000Y-101550000D03*
%TO.N,/RN*%
X145055000Y-93255000D03*
%TO.N,Net-(R1-Pad1)*%
X146270000Y-99540000D03*
%TO.N,Net-(R2-Pad1)*%
X152630000Y-96770000D03*
%TO.N,/T1P*%
X154050000Y-100090000D03*
X146210000Y-100760000D03*
%TO.N,/T1N*%
X150950000Y-101170000D03*
X147390000Y-101610010D03*
%TO.N,/R1N*%
X152330000Y-102880000D03*
X145000000Y-100660000D03*
%TD*%
D20*
%TO.N,*%
X169050000Y-90025000D02*
X168775000Y-90025000D01*
X168775000Y-90025000D02*
X166125000Y-87375000D01*
X161800000Y-87375000D02*
X159975000Y-85550000D01*
X166125000Y-87375000D02*
X161800000Y-87375000D01*
%TO.N,Net-(BT1-Pad1)*%
X221610001Y-123849999D02*
X217717041Y-123849999D01*
X217717041Y-123849999D02*
X217107052Y-123240010D01*
X222460000Y-123000000D02*
X221610001Y-123849999D01*
X184699999Y-111799999D02*
X209772870Y-111799999D01*
X183879999Y-110979999D02*
X184699999Y-111799999D01*
X183080000Y-77490000D02*
X183879999Y-78289999D01*
X209772870Y-111799999D02*
X212986435Y-115013564D01*
X183879999Y-78289999D02*
X183879999Y-110979999D01*
%TO.N,GND*%
X150382500Y-85480000D02*
X146745000Y-85480000D01*
X146745000Y-85480000D02*
X145800000Y-86425000D01*
X170380000Y-87650000D02*
X170275000Y-87650000D01*
X170275000Y-87650000D02*
X166850000Y-84225000D01*
X178900000Y-102250000D02*
X179450000Y-102250000D01*
X174400000Y-97750000D02*
X178900000Y-102250000D01*
X174400000Y-107821600D02*
X174818400Y-108240000D01*
X174400000Y-97750000D02*
X174400000Y-107821600D01*
X168609999Y-96559999D02*
X168150000Y-96100000D01*
X174400000Y-97750000D02*
X173209999Y-96559999D01*
X173209999Y-96559999D02*
X168609999Y-96559999D01*
%TO.N,Net-(J1-Pad4)*%
X192500000Y-110500000D02*
X188000000Y-110500000D01*
X176710001Y-76239999D02*
X175460000Y-77490000D01*
X186220001Y-76239999D02*
X176710001Y-76239999D01*
X188000000Y-78019998D02*
X186220001Y-76239999D01*
X188000000Y-110500000D02*
X188000000Y-78019998D01*
%TO.N,Net-(J1-Pad6)*%
X186870001Y-122049999D02*
X186870001Y-122020000D01*
X186780001Y-121959999D02*
X186870001Y-122049999D01*
X180540000Y-120540000D02*
X182040000Y-122040000D01*
X186870001Y-122020000D02*
X218360000Y-122020000D01*
X184369999Y-122049999D02*
X184459999Y-121959999D01*
X218360000Y-122020000D02*
X222460000Y-117920000D01*
X180540000Y-77490000D02*
X180540000Y-120540000D01*
X184459999Y-121959999D02*
X186780001Y-121959999D01*
X182040000Y-122040000D02*
X184369999Y-122040000D01*
X184369999Y-122040000D02*
X184369999Y-122049999D01*
%TO.N,Net-(J1-Pad8)*%
X191460713Y-120640000D02*
X191430713Y-120670000D01*
X222460000Y-115380000D02*
X217200000Y-120640000D01*
X217200000Y-120640000D02*
X191460713Y-120640000D01*
X185650000Y-120640000D02*
X185620000Y-120670000D01*
X191460713Y-120640000D02*
X185650000Y-120640000D01*
%TO.N,Net-(J1-Pad10)*%
X222460000Y-112840000D02*
X220660000Y-112840000D01*
X220660000Y-112840000D02*
X214524999Y-118975001D01*
X214524999Y-118975001D02*
X186465001Y-118975001D01*
X186465001Y-118975001D02*
X185620000Y-118130000D01*
%TO.N,Net-(J1-Pad12)*%
X222460000Y-110300000D02*
X217200000Y-110300000D01*
X217200000Y-110300000D02*
X215000000Y-112500000D01*
X215000000Y-112500000D02*
X215000000Y-117000000D01*
X215000000Y-117000000D02*
X214500000Y-117500000D01*
X214500000Y-117500000D02*
X209500000Y-117500000D01*
X207590000Y-115590000D02*
X185620000Y-115590000D01*
X209500000Y-117500000D02*
X207590000Y-115590000D01*
%TO.N,Net-(J2-Pad48)*%
X139070000Y-123210000D02*
X170380000Y-123210000D01*
X135740000Y-119880000D02*
X139070000Y-123210000D01*
%TO.N,Net-(J2-Pad42)*%
X139465000Y-115590000D02*
X170380000Y-115590000D01*
X126540000Y-109800000D02*
X133675000Y-109800000D01*
X133675000Y-109800000D02*
X139465000Y-115590000D01*
%TO.N,Net-(J2-Pad36)*%
X138662092Y-113100011D02*
X127742081Y-102180000D01*
X127742081Y-102180000D02*
X126540000Y-102180000D01*
X170380000Y-107970000D02*
X165249989Y-113100011D01*
X165249989Y-113100011D02*
X138662092Y-113100011D01*
%TO.N,Net-(J2-Pad34)*%
X163410000Y-112400000D02*
X170380000Y-105430000D01*
X139300000Y-112400000D02*
X163410000Y-112400000D01*
X126540000Y-99640000D02*
X139300000Y-112400000D01*
%TO.N,Net-(J2-Pad32)*%
X140915000Y-111475000D02*
X126540000Y-97100000D01*
X170380000Y-102890000D02*
X161795000Y-111475000D01*
X161795000Y-111475000D02*
X140915000Y-111475000D01*
%TO.N,Net-(J2-Pad30)*%
X142655000Y-110675000D02*
X126540000Y-94560000D01*
X170380000Y-100350000D02*
X160055000Y-110675000D01*
X160055000Y-110675000D02*
X142655000Y-110675000D01*
%TO.N,Net-(J2-Pad28)*%
X126540000Y-92020000D02*
X128285000Y-90275000D01*
X158605001Y-90275000D02*
X166140001Y-97810000D01*
X128285000Y-90275000D02*
X158605001Y-90275000D01*
%TO.N,Net-(J2-Pad26)*%
X164534989Y-89424989D02*
X126595011Y-89424989D01*
X126595011Y-89424989D02*
X126540000Y-89480000D01*
X170380000Y-95270000D02*
X164534989Y-89424989D01*
%TO.N,Net-(J2-Pad24)*%
X166374978Y-88724978D02*
X128324978Y-88724978D01*
X170380000Y-92730000D02*
X166374978Y-88724978D01*
X128324978Y-88724978D02*
X126540000Y-86940000D01*
%TO.N,Net-(J2-Pad22)*%
X126540000Y-84400000D02*
X129420000Y-81520000D01*
X161710000Y-81520000D02*
X170380000Y-90190000D01*
X129420000Y-81520000D02*
X161710000Y-81520000D01*
%TO.N,Net-(C1-Pad1)*%
X152157500Y-87139998D02*
X152252501Y-87234999D01*
X152157500Y-85480000D02*
X152157500Y-87139998D01*
X152252501Y-87234999D02*
X152252501Y-87732501D01*
X152252501Y-87732501D02*
X152360000Y-87840000D01*
%TO.N,Net-(C3-Pad1)*%
X143417500Y-92120000D02*
X142962501Y-92574999D01*
X146370000Y-92120000D02*
X143417500Y-92120000D01*
D21*
X142962501Y-93974999D02*
X142667500Y-94270000D01*
D20*
X142962501Y-92574999D02*
X142962501Y-93974999D01*
%TO.N,/TN*%
X175700000Y-101550000D02*
X176920000Y-101550000D01*
X176920000Y-101550000D02*
X178850000Y-103480000D01*
X178850000Y-108208400D02*
X176818400Y-110240000D01*
X178850000Y-103480000D02*
X178850000Y-108208400D01*
D21*
%TO.N,/RN*%
X145140000Y-93170000D02*
X145055000Y-93255000D01*
D20*
X164760001Y-99060001D02*
X158955000Y-93255000D01*
X158955000Y-93255000D02*
X145055000Y-93255000D01*
X172818400Y-108240000D02*
X172818400Y-100143400D01*
X171735001Y-99060001D02*
X164760001Y-99060001D01*
X172818400Y-100143400D02*
X171735001Y-99060001D01*
D21*
%TO.N,Net-(C5-Pad1)*%
X147340000Y-95890000D02*
X147510000Y-96060000D01*
X147340000Y-94320000D02*
X147340000Y-95890000D01*
X145427500Y-96060000D02*
X145297500Y-96190000D01*
X147510000Y-96060000D02*
X145427500Y-96060000D01*
D20*
%TO.N,Net-(C6-Pad1)*%
X159300000Y-105000000D02*
X159300000Y-106500000D01*
X160612500Y-106500000D02*
X161112500Y-106000000D01*
X159300000Y-106500000D02*
X160612500Y-106500000D01*
D22*
%TO.N,Net-(J4-Pad4)*%
X149810000Y-105730000D02*
X151080000Y-107000000D01*
X149810000Y-104460000D02*
X149810000Y-105730000D01*
X151080000Y-107000000D02*
X151080000Y-108580000D01*
X151080000Y-108580000D02*
X151500000Y-109000000D01*
X156306998Y-106500000D02*
X157700000Y-106500000D01*
X153806998Y-109000000D02*
X156306998Y-106500000D01*
X151500000Y-109000000D02*
X153806998Y-109000000D01*
%TO.N,Net-(J4-Pad7)*%
X155430000Y-105000000D02*
X154890000Y-104460000D01*
X157700000Y-105000000D02*
X155430000Y-105000000D01*
X153620000Y-105730000D02*
X154890000Y-104460000D01*
X153620000Y-107000000D02*
X153620000Y-105730000D01*
D20*
%TO.N,Net-(R1-Pad1)*%
X150180000Y-99540000D02*
X146270000Y-99540000D01*
X149110000Y-96060000D02*
X150510000Y-96060000D01*
X150510000Y-99210000D02*
X150180000Y-99540000D01*
X150510000Y-96060000D02*
X150510000Y-99210000D01*
%TO.N,Net-(R2-Pad1)*%
X150180000Y-94320000D02*
X148940000Y-94320000D01*
X152630000Y-96770000D02*
X150180000Y-94320000D01*
%TO.N,/T1P*%
X154050000Y-100090000D02*
X150790000Y-100090000D01*
X150120000Y-100760000D02*
X146210000Y-100760000D01*
X150790000Y-100090000D02*
X150120000Y-100760000D01*
%TO.N,/T1N*%
X150509990Y-101610010D02*
X147390000Y-101610010D01*
X150950000Y-101170000D02*
X150509990Y-101610010D01*
%TO.N,/R1N*%
X152330000Y-102880000D02*
X146210000Y-102880000D01*
X146210000Y-102880000D02*
X145000000Y-101670000D01*
X145000000Y-101670000D02*
X145000000Y-100660000D01*
%TD*%
D23*
%TO.N,GND*%
G36*
X226340001Y-56967572D02*
G01*
X226340000Y-56967582D01*
X226340000Y-58876598D01*
X226271641Y-58733080D01*
X226097588Y-58499731D01*
X225881355Y-58304822D01*
X225631252Y-58155843D01*
X225356891Y-58058519D01*
X225127000Y-58179186D01*
X225127000Y-59373000D01*
X225147000Y-59373000D01*
X225147000Y-59627000D01*
X225127000Y-59627000D01*
X225127000Y-61913000D01*
X225147000Y-61913000D01*
X225147000Y-62167000D01*
X225127000Y-62167000D01*
X225127000Y-64453000D01*
X225147000Y-64453000D01*
X225147000Y-64707000D01*
X225127000Y-64707000D01*
X225127000Y-66993000D01*
X225147000Y-66993000D01*
X225147000Y-67247000D01*
X225127000Y-67247000D01*
X225127000Y-69533000D01*
X225147000Y-69533000D01*
X225147000Y-69787000D01*
X225127000Y-69787000D01*
X225127000Y-72073000D01*
X225147000Y-72073000D01*
X225147000Y-72327000D01*
X225127000Y-72327000D01*
X225127000Y-74613000D01*
X225147000Y-74613000D01*
X225147000Y-74867000D01*
X225127000Y-74867000D01*
X225127000Y-77153000D01*
X225147000Y-77153000D01*
X225147000Y-77407000D01*
X225127000Y-77407000D01*
X225127000Y-79693000D01*
X225147000Y-79693000D01*
X225147000Y-79947000D01*
X225127000Y-79947000D01*
X225127000Y-82233000D01*
X225147000Y-82233000D01*
X225147000Y-82487000D01*
X225127000Y-82487000D01*
X225127000Y-84773000D01*
X225147000Y-84773000D01*
X225147000Y-85027000D01*
X225127000Y-85027000D01*
X225127000Y-87313000D01*
X225147000Y-87313000D01*
X225147000Y-87567000D01*
X225127000Y-87567000D01*
X225127000Y-89853000D01*
X225147000Y-89853000D01*
X225147000Y-90107000D01*
X225127000Y-90107000D01*
X225127000Y-92393000D01*
X225147000Y-92393000D01*
X225147000Y-92647000D01*
X225127000Y-92647000D01*
X225127000Y-94933000D01*
X225147000Y-94933000D01*
X225147000Y-95187000D01*
X225127000Y-95187000D01*
X225127000Y-97473000D01*
X225147000Y-97473000D01*
X225147000Y-97727000D01*
X225127000Y-97727000D01*
X225127000Y-100013000D01*
X225147000Y-100013000D01*
X225147000Y-100267000D01*
X225127000Y-100267000D01*
X225127000Y-102553000D01*
X225147000Y-102553000D01*
X225147000Y-102807000D01*
X225127000Y-102807000D01*
X225127000Y-105093000D01*
X225147000Y-105093000D01*
X225147000Y-105347000D01*
X225127000Y-105347000D01*
X225127000Y-107633000D01*
X225147000Y-107633000D01*
X225147000Y-107887000D01*
X225127000Y-107887000D01*
X225127000Y-110173000D01*
X225147000Y-110173000D01*
X225147000Y-110427000D01*
X225127000Y-110427000D01*
X225127000Y-112713000D01*
X225147000Y-112713000D01*
X225147000Y-112967000D01*
X225127000Y-112967000D01*
X225127000Y-115253000D01*
X225147000Y-115253000D01*
X225147000Y-115507000D01*
X225127000Y-115507000D01*
X225127000Y-117793000D01*
X225147000Y-117793000D01*
X225147000Y-118047000D01*
X225127000Y-118047000D01*
X225127000Y-120333000D01*
X225147000Y-120333000D01*
X225147000Y-120587000D01*
X225127000Y-120587000D01*
X225127000Y-122873000D01*
X225147000Y-122873000D01*
X225147000Y-123127000D01*
X225127000Y-123127000D01*
X225127000Y-123147000D01*
X224873000Y-123147000D01*
X224873000Y-123127000D01*
X224853000Y-123127000D01*
X224853000Y-122873000D01*
X224873000Y-122873000D01*
X224873000Y-120587000D01*
X224853000Y-120587000D01*
X224853000Y-120333000D01*
X224873000Y-120333000D01*
X224873000Y-118047000D01*
X224853000Y-118047000D01*
X224853000Y-117793000D01*
X224873000Y-117793000D01*
X224873000Y-115507000D01*
X224853000Y-115507000D01*
X224853000Y-115253000D01*
X224873000Y-115253000D01*
X224873000Y-112967000D01*
X224853000Y-112967000D01*
X224853000Y-112713000D01*
X224873000Y-112713000D01*
X224873000Y-110427000D01*
X224853000Y-110427000D01*
X224853000Y-110173000D01*
X224873000Y-110173000D01*
X224873000Y-107887000D01*
X224853000Y-107887000D01*
X224853000Y-107633000D01*
X224873000Y-107633000D01*
X224873000Y-105347000D01*
X224853000Y-105347000D01*
X224853000Y-105093000D01*
X224873000Y-105093000D01*
X224873000Y-102807000D01*
X224853000Y-102807000D01*
X224853000Y-102553000D01*
X224873000Y-102553000D01*
X224873000Y-100267000D01*
X224853000Y-100267000D01*
X224853000Y-100013000D01*
X224873000Y-100013000D01*
X224873000Y-97727000D01*
X224853000Y-97727000D01*
X224853000Y-97473000D01*
X224873000Y-97473000D01*
X224873000Y-95187000D01*
X224853000Y-95187000D01*
X224853000Y-94933000D01*
X224873000Y-94933000D01*
X224873000Y-92647000D01*
X224853000Y-92647000D01*
X224853000Y-92393000D01*
X224873000Y-92393000D01*
X224873000Y-90107000D01*
X224853000Y-90107000D01*
X224853000Y-89853000D01*
X224873000Y-89853000D01*
X224873000Y-87567000D01*
X224853000Y-87567000D01*
X224853000Y-87313000D01*
X224873000Y-87313000D01*
X224873000Y-85027000D01*
X224853000Y-85027000D01*
X224853000Y-84773000D01*
X224873000Y-84773000D01*
X224873000Y-82487000D01*
X224853000Y-82487000D01*
X224853000Y-82233000D01*
X224873000Y-82233000D01*
X224873000Y-79947000D01*
X224853000Y-79947000D01*
X224853000Y-79693000D01*
X224873000Y-79693000D01*
X224873000Y-77407000D01*
X224853000Y-77407000D01*
X224853000Y-77153000D01*
X224873000Y-77153000D01*
X224873000Y-74867000D01*
X224853000Y-74867000D01*
X224853000Y-74613000D01*
X224873000Y-74613000D01*
X224873000Y-72327000D01*
X224853000Y-72327000D01*
X224853000Y-72073000D01*
X224873000Y-72073000D01*
X224873000Y-69787000D01*
X224853000Y-69787000D01*
X224853000Y-69533000D01*
X224873000Y-69533000D01*
X224873000Y-67247000D01*
X224853000Y-67247000D01*
X224853000Y-66993000D01*
X224873000Y-66993000D01*
X224873000Y-64707000D01*
X224853000Y-64707000D01*
X224853000Y-64453000D01*
X224873000Y-64453000D01*
X224873000Y-62167000D01*
X224853000Y-62167000D01*
X224853000Y-61913000D01*
X224873000Y-61913000D01*
X224873000Y-59627000D01*
X224853000Y-59627000D01*
X224853000Y-59373000D01*
X224873000Y-59373000D01*
X224873000Y-58179186D01*
X224643109Y-58058519D01*
X224368748Y-58155843D01*
X224118645Y-58304822D01*
X223902412Y-58499731D01*
X223731100Y-58729406D01*
X223613475Y-58553368D01*
X223406632Y-58346525D01*
X223163411Y-58184010D01*
X222893158Y-58072068D01*
X222606260Y-58015000D01*
X222313740Y-58015000D01*
X222026842Y-58072068D01*
X221756589Y-58184010D01*
X221513368Y-58346525D01*
X221306525Y-58553368D01*
X221144010Y-58796589D01*
X221032068Y-59066842D01*
X220975000Y-59353740D01*
X220975000Y-59646260D01*
X221032068Y-59933158D01*
X221144010Y-60203411D01*
X221306525Y-60446632D01*
X221513368Y-60653475D01*
X221687760Y-60770000D01*
X221513368Y-60886525D01*
X221306525Y-61093368D01*
X221144010Y-61336589D01*
X221032068Y-61606842D01*
X220975000Y-61893740D01*
X220975000Y-62186260D01*
X221032068Y-62473158D01*
X221144010Y-62743411D01*
X221306525Y-62986632D01*
X221513368Y-63193475D01*
X221687760Y-63310000D01*
X221513368Y-63426525D01*
X221306525Y-63633368D01*
X221144010Y-63876589D01*
X221032068Y-64146842D01*
X220975000Y-64433740D01*
X220975000Y-64726260D01*
X221032068Y-65013158D01*
X221144010Y-65283411D01*
X221306525Y-65526632D01*
X221513368Y-65733475D01*
X221687760Y-65850000D01*
X221513368Y-65966525D01*
X221306525Y-66173368D01*
X221144010Y-66416589D01*
X221032068Y-66686842D01*
X220975000Y-66973740D01*
X220975000Y-67266260D01*
X221032068Y-67553158D01*
X221144010Y-67823411D01*
X221306525Y-68066632D01*
X221513368Y-68273475D01*
X221687760Y-68390000D01*
X221513368Y-68506525D01*
X221306525Y-68713368D01*
X221144010Y-68956589D01*
X221032068Y-69226842D01*
X220975000Y-69513740D01*
X220975000Y-69806260D01*
X221032068Y-70093158D01*
X221144010Y-70363411D01*
X221306525Y-70606632D01*
X221513368Y-70813475D01*
X221687760Y-70930000D01*
X221513368Y-71046525D01*
X221306525Y-71253368D01*
X221144010Y-71496589D01*
X221032068Y-71766842D01*
X220975000Y-72053740D01*
X220975000Y-72346260D01*
X221032068Y-72633158D01*
X221144010Y-72903411D01*
X221306525Y-73146632D01*
X221513368Y-73353475D01*
X221687760Y-73470000D01*
X221513368Y-73586525D01*
X221306525Y-73793368D01*
X221144010Y-74036589D01*
X221032068Y-74306842D01*
X220975000Y-74593740D01*
X220975000Y-74886260D01*
X221032068Y-75173158D01*
X221144010Y-75443411D01*
X221306525Y-75686632D01*
X221513368Y-75893475D01*
X221687760Y-76010000D01*
X221513368Y-76126525D01*
X221306525Y-76333368D01*
X221144010Y-76576589D01*
X221032068Y-76846842D01*
X220975000Y-77133740D01*
X220975000Y-77426260D01*
X221032068Y-77713158D01*
X221144010Y-77983411D01*
X221306525Y-78226632D01*
X221513368Y-78433475D01*
X221687760Y-78550000D01*
X221513368Y-78666525D01*
X221306525Y-78873368D01*
X221144010Y-79116589D01*
X221032068Y-79386842D01*
X220975000Y-79673740D01*
X220975000Y-79966260D01*
X221032068Y-80253158D01*
X221144010Y-80523411D01*
X221306525Y-80766632D01*
X221513368Y-80973475D01*
X221687760Y-81090000D01*
X221513368Y-81206525D01*
X221306525Y-81413368D01*
X221144010Y-81656589D01*
X221032068Y-81926842D01*
X220975000Y-82213740D01*
X220975000Y-82506260D01*
X221032068Y-82793158D01*
X221144010Y-83063411D01*
X221306525Y-83306632D01*
X221513368Y-83513475D01*
X221687760Y-83630000D01*
X221513368Y-83746525D01*
X221306525Y-83953368D01*
X221144010Y-84196589D01*
X221032068Y-84466842D01*
X220975000Y-84753740D01*
X220975000Y-85046260D01*
X221032068Y-85333158D01*
X221144010Y-85603411D01*
X221306525Y-85846632D01*
X221513368Y-86053475D01*
X221687760Y-86170000D01*
X221513368Y-86286525D01*
X221306525Y-86493368D01*
X221144010Y-86736589D01*
X221032068Y-87006842D01*
X220975000Y-87293740D01*
X220975000Y-87586260D01*
X221032068Y-87873158D01*
X221144010Y-88143411D01*
X221306525Y-88386632D01*
X221513368Y-88593475D01*
X221687760Y-88710000D01*
X221513368Y-88826525D01*
X221306525Y-89033368D01*
X221144010Y-89276589D01*
X221032068Y-89546842D01*
X220975000Y-89833740D01*
X220975000Y-90126260D01*
X221032068Y-90413158D01*
X221144010Y-90683411D01*
X221306525Y-90926632D01*
X221513368Y-91133475D01*
X221687760Y-91250000D01*
X221513368Y-91366525D01*
X221306525Y-91573368D01*
X221144010Y-91816589D01*
X221032068Y-92086842D01*
X220975000Y-92373740D01*
X220975000Y-92666260D01*
X221032068Y-92953158D01*
X221144010Y-93223411D01*
X221306525Y-93466632D01*
X221513368Y-93673475D01*
X221687760Y-93790000D01*
X221513368Y-93906525D01*
X221306525Y-94113368D01*
X221144010Y-94356589D01*
X221032068Y-94626842D01*
X220975000Y-94913740D01*
X220975000Y-95206260D01*
X221032068Y-95493158D01*
X221144010Y-95763411D01*
X221306525Y-96006632D01*
X221513368Y-96213475D01*
X221687760Y-96330000D01*
X221513368Y-96446525D01*
X221306525Y-96653368D01*
X221144010Y-96896589D01*
X221032068Y-97166842D01*
X220975000Y-97453740D01*
X220975000Y-97746260D01*
X221032068Y-98033158D01*
X221144010Y-98303411D01*
X221306525Y-98546632D01*
X221513368Y-98753475D01*
X221687760Y-98870000D01*
X221513368Y-98986525D01*
X221306525Y-99193368D01*
X221144010Y-99436589D01*
X221032068Y-99706842D01*
X220975000Y-99993740D01*
X220975000Y-100286260D01*
X221032068Y-100573158D01*
X221144010Y-100843411D01*
X221306525Y-101086632D01*
X221513368Y-101293475D01*
X221687760Y-101410000D01*
X221513368Y-101526525D01*
X221306525Y-101733368D01*
X221144010Y-101976589D01*
X221032068Y-102246842D01*
X220975000Y-102533740D01*
X220975000Y-102826260D01*
X221032068Y-103113158D01*
X221144010Y-103383411D01*
X221306525Y-103626632D01*
X221513368Y-103833475D01*
X221687760Y-103950000D01*
X221513368Y-104066525D01*
X221306525Y-104273368D01*
X221144010Y-104516589D01*
X221032068Y-104786842D01*
X220975000Y-105073740D01*
X220975000Y-105366260D01*
X221032068Y-105653158D01*
X221144010Y-105923411D01*
X221306525Y-106166632D01*
X221513368Y-106373475D01*
X221687760Y-106490000D01*
X221513368Y-106606525D01*
X221306525Y-106813368D01*
X221144010Y-107056589D01*
X221032068Y-107326842D01*
X220975000Y-107613740D01*
X220975000Y-107906260D01*
X221032068Y-108193158D01*
X221144010Y-108463411D01*
X221306525Y-108706632D01*
X221513368Y-108913475D01*
X221687760Y-109030000D01*
X221513368Y-109146525D01*
X221306525Y-109353368D01*
X221265344Y-109415000D01*
X217243469Y-109415000D01*
X217200000Y-109410719D01*
X217156531Y-109415000D01*
X217156523Y-109415000D01*
X217026510Y-109427805D01*
X216859687Y-109478411D01*
X216744459Y-109540001D01*
X216705941Y-109560589D01*
X216604953Y-109643468D01*
X216604951Y-109643470D01*
X216571183Y-109671183D01*
X216543470Y-109704951D01*
X214404956Y-111843466D01*
X214371183Y-111871183D01*
X214260589Y-112005942D01*
X214178411Y-112159688D01*
X214127805Y-112326511D01*
X214115000Y-112456524D01*
X214115000Y-112456531D01*
X214110719Y-112500000D01*
X214115000Y-112543469D01*
X214115001Y-116615000D01*
X209866579Y-116615000D01*
X208246534Y-114994956D01*
X208218817Y-114961183D01*
X208084059Y-114850589D01*
X207930313Y-114768411D01*
X207763490Y-114717805D01*
X207633477Y-114705000D01*
X207633469Y-114705000D01*
X207590000Y-114700719D01*
X207546531Y-114705000D01*
X186754521Y-114705000D01*
X186734637Y-114675241D01*
X186534759Y-114475363D01*
X186302241Y-114320000D01*
X186534759Y-114164637D01*
X186734637Y-113964759D01*
X186891680Y-113729727D01*
X186999853Y-113468574D01*
X187055000Y-113191335D01*
X187055000Y-112908665D01*
X187010509Y-112684999D01*
X209406292Y-112684999D01*
X211979900Y-115258608D01*
X211991209Y-115315462D01*
X212069230Y-115503820D01*
X212182498Y-115673338D01*
X212326661Y-115817501D01*
X212496179Y-115930769D01*
X212684537Y-116008790D01*
X212884496Y-116048564D01*
X213088374Y-116048564D01*
X213288333Y-116008790D01*
X213476691Y-115930769D01*
X213646209Y-115817501D01*
X213790372Y-115673338D01*
X213903640Y-115503820D01*
X213981661Y-115315462D01*
X214021435Y-115115503D01*
X214021435Y-114911625D01*
X213981661Y-114711666D01*
X213903640Y-114523308D01*
X213790372Y-114353790D01*
X213646209Y-114209627D01*
X213476691Y-114096359D01*
X213288333Y-114018338D01*
X213231479Y-114007029D01*
X210429404Y-111204955D01*
X210401687Y-111171182D01*
X210266929Y-111060588D01*
X210113183Y-110978410D01*
X209946360Y-110927804D01*
X209816347Y-110914999D01*
X209816339Y-110914999D01*
X209772870Y-110910718D01*
X209729401Y-110914999D01*
X193448378Y-110914999D01*
X193495226Y-110801898D01*
X193535000Y-110601939D01*
X193535000Y-110398061D01*
X193495226Y-110198102D01*
X193417205Y-110009744D01*
X193303937Y-109840226D01*
X193159774Y-109696063D01*
X192990256Y-109582795D01*
X192801898Y-109504774D01*
X192601939Y-109465000D01*
X192398061Y-109465000D01*
X192198102Y-109504774D01*
X192009744Y-109582795D01*
X191961546Y-109615000D01*
X188885000Y-109615000D01*
X188885000Y-78063467D01*
X188889281Y-78019998D01*
X188885000Y-77976529D01*
X188885000Y-77976521D01*
X188872195Y-77846508D01*
X188821589Y-77679685D01*
X188739411Y-77525939D01*
X188656532Y-77424951D01*
X188656530Y-77424949D01*
X188628817Y-77391181D01*
X188595049Y-77363468D01*
X186879514Y-75647934D01*
X186891680Y-75629727D01*
X186999853Y-75368574D01*
X187055000Y-75091335D01*
X187055000Y-74808665D01*
X186999853Y-74531426D01*
X186891680Y-74270273D01*
X186734637Y-74035241D01*
X186534759Y-73835363D01*
X186302241Y-73680000D01*
X186534759Y-73524637D01*
X186734637Y-73324759D01*
X186891680Y-73089727D01*
X186999853Y-72828574D01*
X187055000Y-72551335D01*
X187055000Y-72268665D01*
X186999853Y-71991426D01*
X186891680Y-71730273D01*
X186734637Y-71495241D01*
X186534759Y-71295363D01*
X186302241Y-71140000D01*
X186534759Y-70984637D01*
X186734637Y-70784759D01*
X186891680Y-70549727D01*
X186999853Y-70288574D01*
X187055000Y-70011335D01*
X187055000Y-69728665D01*
X186999853Y-69451426D01*
X186891680Y-69190273D01*
X186734637Y-68955241D01*
X186534759Y-68755363D01*
X186302241Y-68600000D01*
X186534759Y-68444637D01*
X186734637Y-68244759D01*
X186891680Y-68009727D01*
X186999853Y-67748574D01*
X187055000Y-67471335D01*
X187055000Y-67188665D01*
X186999853Y-66911426D01*
X186891680Y-66650273D01*
X186734637Y-66415241D01*
X186534759Y-66215363D01*
X186302241Y-66060000D01*
X186534759Y-65904637D01*
X186734637Y-65704759D01*
X186891680Y-65469727D01*
X186999853Y-65208574D01*
X187055000Y-64931335D01*
X187055000Y-64648665D01*
X186999853Y-64371426D01*
X186891680Y-64110273D01*
X186734637Y-63875241D01*
X186534759Y-63675363D01*
X186299727Y-63518320D01*
X186038574Y-63410147D01*
X185761335Y-63355000D01*
X185478665Y-63355000D01*
X185201426Y-63410147D01*
X184940273Y-63518320D01*
X184705241Y-63675363D01*
X184505363Y-63875241D01*
X184348320Y-64110273D01*
X184240147Y-64371426D01*
X184185000Y-64648665D01*
X184185000Y-64931335D01*
X184240147Y-65208574D01*
X184348320Y-65469727D01*
X184505363Y-65704759D01*
X184705241Y-65904637D01*
X184937759Y-66060000D01*
X184705241Y-66215363D01*
X184505363Y-66415241D01*
X184348320Y-66650273D01*
X184240147Y-66911426D01*
X184185000Y-67188665D01*
X184185000Y-67471335D01*
X184240147Y-67748574D01*
X184348320Y-68009727D01*
X184505363Y-68244759D01*
X184705241Y-68444637D01*
X184937759Y-68600000D01*
X184705241Y-68755363D01*
X184505363Y-68955241D01*
X184348320Y-69190273D01*
X184240147Y-69451426D01*
X184185000Y-69728665D01*
X184185000Y-70011335D01*
X184240147Y-70288574D01*
X184348320Y-70549727D01*
X184505363Y-70784759D01*
X184705241Y-70984637D01*
X184937759Y-71140000D01*
X184705241Y-71295363D01*
X184505363Y-71495241D01*
X184348320Y-71730273D01*
X184240147Y-71991426D01*
X184185000Y-72268665D01*
X184185000Y-72551335D01*
X184240147Y-72828574D01*
X184348320Y-73089727D01*
X184505363Y-73324759D01*
X184705241Y-73524637D01*
X184937759Y-73680000D01*
X184705241Y-73835363D01*
X184505363Y-74035241D01*
X184348320Y-74270273D01*
X184240147Y-74531426D01*
X184185000Y-74808665D01*
X184185000Y-75091335D01*
X184237447Y-75354999D01*
X176753466Y-75354999D01*
X176710000Y-75350718D01*
X176666534Y-75354999D01*
X176666524Y-75354999D01*
X176536511Y-75367804D01*
X176369688Y-75418410D01*
X176215942Y-75500588D01*
X176215940Y-75500589D01*
X176215941Y-75500589D01*
X176114954Y-75583467D01*
X176114952Y-75583469D01*
X176081184Y-75611182D01*
X176053471Y-75644950D01*
X175636439Y-76061983D01*
X175601335Y-76055000D01*
X175318665Y-76055000D01*
X175041426Y-76110147D01*
X174780273Y-76218320D01*
X174545241Y-76375363D01*
X174345363Y-76575241D01*
X174190000Y-76807759D01*
X174034637Y-76575241D01*
X173834759Y-76375363D01*
X173599727Y-76218320D01*
X173338574Y-76110147D01*
X173061335Y-76055000D01*
X172778665Y-76055000D01*
X172501426Y-76110147D01*
X172240273Y-76218320D01*
X172005241Y-76375363D01*
X171805363Y-76575241D01*
X171650000Y-76807759D01*
X171494637Y-76575241D01*
X171294759Y-76375363D01*
X171062241Y-76220000D01*
X171294759Y-76064637D01*
X171494637Y-75864759D01*
X171651680Y-75629727D01*
X171759853Y-75368574D01*
X171815000Y-75091335D01*
X171815000Y-74808665D01*
X171759853Y-74531426D01*
X171651680Y-74270273D01*
X171494637Y-74035241D01*
X171294759Y-73835363D01*
X171062241Y-73680000D01*
X171294759Y-73524637D01*
X171494637Y-73324759D01*
X171651680Y-73089727D01*
X171759853Y-72828574D01*
X171815000Y-72551335D01*
X171815000Y-72268665D01*
X171759853Y-71991426D01*
X171651680Y-71730273D01*
X171494637Y-71495241D01*
X171294759Y-71295363D01*
X171062241Y-71140000D01*
X171294759Y-70984637D01*
X171494637Y-70784759D01*
X171651680Y-70549727D01*
X171759853Y-70288574D01*
X171815000Y-70011335D01*
X171815000Y-69728665D01*
X171759853Y-69451426D01*
X171651680Y-69190273D01*
X171494637Y-68955241D01*
X171294759Y-68755363D01*
X171062241Y-68600000D01*
X171294759Y-68444637D01*
X171494637Y-68244759D01*
X171651680Y-68009727D01*
X171759853Y-67748574D01*
X171815000Y-67471335D01*
X171815000Y-67188665D01*
X171759853Y-66911426D01*
X171651680Y-66650273D01*
X171494637Y-66415241D01*
X171294759Y-66215363D01*
X171062241Y-66060000D01*
X171294759Y-65904637D01*
X171494637Y-65704759D01*
X171651680Y-65469727D01*
X171759853Y-65208574D01*
X171815000Y-64931335D01*
X171815000Y-64648665D01*
X171759853Y-64371426D01*
X171651680Y-64110273D01*
X171494637Y-63875241D01*
X171294759Y-63675363D01*
X171059727Y-63518320D01*
X170798574Y-63410147D01*
X170521335Y-63355000D01*
X170238665Y-63355000D01*
X169961426Y-63410147D01*
X169700273Y-63518320D01*
X169465241Y-63675363D01*
X169265363Y-63875241D01*
X169108320Y-64110273D01*
X169000147Y-64371426D01*
X168945000Y-64648665D01*
X168945000Y-64931335D01*
X169000147Y-65208574D01*
X169108320Y-65469727D01*
X169265363Y-65704759D01*
X169465241Y-65904637D01*
X169697759Y-66060000D01*
X169465241Y-66215363D01*
X169265363Y-66415241D01*
X169108320Y-66650273D01*
X169000147Y-66911426D01*
X168945000Y-67188665D01*
X168945000Y-67471335D01*
X169000147Y-67748574D01*
X169108320Y-68009727D01*
X169265363Y-68244759D01*
X169465241Y-68444637D01*
X169697759Y-68600000D01*
X169465241Y-68755363D01*
X169265363Y-68955241D01*
X169108320Y-69190273D01*
X169000147Y-69451426D01*
X168945000Y-69728665D01*
X168945000Y-70011335D01*
X169000147Y-70288574D01*
X169108320Y-70549727D01*
X169265363Y-70784759D01*
X169465241Y-70984637D01*
X169697759Y-71140000D01*
X169465241Y-71295363D01*
X169265363Y-71495241D01*
X169108320Y-71730273D01*
X169000147Y-71991426D01*
X168945000Y-72268665D01*
X168945000Y-72551335D01*
X169000147Y-72828574D01*
X169108320Y-73089727D01*
X169265363Y-73324759D01*
X169465241Y-73524637D01*
X169697759Y-73680000D01*
X169465241Y-73835363D01*
X169265363Y-74035241D01*
X169108320Y-74270273D01*
X169000147Y-74531426D01*
X168945000Y-74808665D01*
X168945000Y-75091335D01*
X169000147Y-75368574D01*
X169108320Y-75629727D01*
X169265363Y-75864759D01*
X169465241Y-76064637D01*
X169697759Y-76220000D01*
X169465241Y-76375363D01*
X169265363Y-76575241D01*
X169108320Y-76810273D01*
X169000147Y-77071426D01*
X168945000Y-77348665D01*
X168945000Y-77631335D01*
X169000147Y-77908574D01*
X169108320Y-78169727D01*
X169265363Y-78404759D01*
X169465241Y-78604637D01*
X169697759Y-78760000D01*
X169465241Y-78915363D01*
X169265363Y-79115241D01*
X169108320Y-79350273D01*
X169000147Y-79611426D01*
X168945000Y-79888665D01*
X168945000Y-80171335D01*
X169000147Y-80448574D01*
X169108320Y-80709727D01*
X169265363Y-80944759D01*
X169465241Y-81144637D01*
X169697759Y-81300000D01*
X169465241Y-81455363D01*
X169265363Y-81655241D01*
X169108320Y-81890273D01*
X169000147Y-82151426D01*
X168945000Y-82428665D01*
X168945000Y-82711335D01*
X169000147Y-82988574D01*
X169108320Y-83249727D01*
X169265363Y-83484759D01*
X169465241Y-83684637D01*
X169697759Y-83840000D01*
X169465241Y-83995363D01*
X169265363Y-84195241D01*
X169108320Y-84430273D01*
X169000147Y-84691426D01*
X168945000Y-84968665D01*
X168945000Y-85251335D01*
X169000147Y-85528574D01*
X169108320Y-85789727D01*
X169265363Y-86024759D01*
X169465241Y-86224637D01*
X169699128Y-86380915D01*
X169638486Y-86413329D01*
X169566903Y-86657298D01*
X170380000Y-87470395D01*
X171193097Y-86657298D01*
X171121514Y-86413329D01*
X171057008Y-86382806D01*
X171059727Y-86381680D01*
X171294759Y-86224637D01*
X171494637Y-86024759D01*
X171651680Y-85789727D01*
X171759853Y-85528574D01*
X171815000Y-85251335D01*
X171815000Y-84968665D01*
X171759853Y-84691426D01*
X171651680Y-84430273D01*
X171494637Y-84195241D01*
X171294759Y-83995363D01*
X171062241Y-83840000D01*
X171294759Y-83684637D01*
X171494637Y-83484759D01*
X171651680Y-83249727D01*
X171759853Y-82988574D01*
X171815000Y-82711335D01*
X171815000Y-82428665D01*
X171759853Y-82151426D01*
X171651680Y-81890273D01*
X171494637Y-81655241D01*
X171294759Y-81455363D01*
X171062241Y-81300000D01*
X171294759Y-81144637D01*
X171494637Y-80944759D01*
X171651680Y-80709727D01*
X171759853Y-80448574D01*
X171815000Y-80171335D01*
X171815000Y-79888665D01*
X171759853Y-79611426D01*
X171651680Y-79350273D01*
X171494637Y-79115241D01*
X171294759Y-78915363D01*
X171062241Y-78760000D01*
X171294759Y-78604637D01*
X171494637Y-78404759D01*
X171650000Y-78172241D01*
X171805363Y-78404759D01*
X172005241Y-78604637D01*
X172240273Y-78761680D01*
X172501426Y-78869853D01*
X172778665Y-78925000D01*
X173061335Y-78925000D01*
X173338574Y-78869853D01*
X173599727Y-78761680D01*
X173834759Y-78604637D01*
X174034637Y-78404759D01*
X174190000Y-78172241D01*
X174345363Y-78404759D01*
X174545241Y-78604637D01*
X174780273Y-78761680D01*
X175041426Y-78869853D01*
X175318665Y-78925000D01*
X175601335Y-78925000D01*
X175878574Y-78869853D01*
X176139727Y-78761680D01*
X176374759Y-78604637D01*
X176496694Y-78482702D01*
X177186903Y-78482702D01*
X177258486Y-78726671D01*
X177513996Y-78847571D01*
X177788184Y-78916300D01*
X178070512Y-78930217D01*
X178350130Y-78888787D01*
X178616292Y-78793603D01*
X178741514Y-78726671D01*
X178813097Y-78482702D01*
X178000000Y-77669605D01*
X177186903Y-78482702D01*
X176496694Y-78482702D01*
X176574637Y-78404759D01*
X176730915Y-78170872D01*
X176763329Y-78231514D01*
X177007298Y-78303097D01*
X177820395Y-77490000D01*
X177806253Y-77475858D01*
X177985858Y-77296253D01*
X178000000Y-77310395D01*
X178014143Y-77296253D01*
X178193748Y-77475858D01*
X178179605Y-77490000D01*
X178992702Y-78303097D01*
X179236671Y-78231514D01*
X179267194Y-78167008D01*
X179268320Y-78169727D01*
X179425363Y-78404759D01*
X179625241Y-78604637D01*
X179655000Y-78624521D01*
X179655001Y-103108652D01*
X179589411Y-102985941D01*
X179534811Y-102919411D01*
X179506532Y-102884953D01*
X179506530Y-102884951D01*
X179478817Y-102851183D01*
X179445050Y-102823471D01*
X177576534Y-100954956D01*
X177548817Y-100921183D01*
X177414059Y-100810589D01*
X177260313Y-100728411D01*
X177093490Y-100677805D01*
X176963477Y-100665000D01*
X176963469Y-100665000D01*
X176920000Y-100660719D01*
X176876531Y-100665000D01*
X176238454Y-100665000D01*
X176190256Y-100632795D01*
X176001898Y-100554774D01*
X175801939Y-100515000D01*
X175598061Y-100515000D01*
X175398102Y-100554774D01*
X175209744Y-100632795D01*
X175040226Y-100746063D01*
X174896063Y-100890226D01*
X174782795Y-101059744D01*
X174704774Y-101248102D01*
X174665000Y-101448061D01*
X174665000Y-101651939D01*
X174704774Y-101851898D01*
X174782795Y-102040256D01*
X174896063Y-102209774D01*
X175040226Y-102353937D01*
X175209744Y-102467205D01*
X175398102Y-102545226D01*
X175598061Y-102585000D01*
X175801939Y-102585000D01*
X176001898Y-102545226D01*
X176190256Y-102467205D01*
X176238454Y-102435000D01*
X176553422Y-102435000D01*
X177965000Y-103846579D01*
X177965001Y-107650270D01*
X177957153Y-107631324D01*
X177816525Y-107420860D01*
X177637540Y-107241875D01*
X177427076Y-107101247D01*
X177193221Y-107004381D01*
X176944961Y-106955000D01*
X176691839Y-106955000D01*
X176443579Y-107004381D01*
X176209724Y-107101247D01*
X175999260Y-107241875D01*
X175820275Y-107420860D01*
X175739133Y-107542297D01*
X175703927Y-107534078D01*
X174998005Y-108240000D01*
X175703927Y-108945922D01*
X175739133Y-108937703D01*
X175820275Y-109059140D01*
X175999260Y-109238125D01*
X176002066Y-109240000D01*
X175999260Y-109241875D01*
X175820275Y-109420860D01*
X175818400Y-109423666D01*
X175816525Y-109420860D01*
X175637540Y-109241875D01*
X175516103Y-109160733D01*
X175524322Y-109125527D01*
X174818400Y-108419605D01*
X174804258Y-108433748D01*
X174624653Y-108254143D01*
X174638795Y-108240000D01*
X173932873Y-107534078D01*
X173897667Y-107542297D01*
X173816525Y-107420860D01*
X173750138Y-107354473D01*
X174112478Y-107354473D01*
X174818400Y-108060395D01*
X175524322Y-107354473D01*
X175470934Y-107125799D01*
X175241026Y-107019905D01*
X174994876Y-106960898D01*
X174741945Y-106951048D01*
X174491951Y-106990730D01*
X174254504Y-107078422D01*
X174165866Y-107125799D01*
X174112478Y-107354473D01*
X173750138Y-107354473D01*
X173703400Y-107307735D01*
X173703400Y-100186869D01*
X173707681Y-100143400D01*
X173703400Y-100099931D01*
X173703400Y-100099923D01*
X173690595Y-99969910D01*
X173639989Y-99803086D01*
X173557811Y-99649341D01*
X173474932Y-99548353D01*
X173474930Y-99548351D01*
X173447217Y-99514583D01*
X173413449Y-99486870D01*
X172391535Y-98464957D01*
X172363818Y-98431184D01*
X172229060Y-98320590D01*
X172075314Y-98238412D01*
X171908491Y-98187806D01*
X171778478Y-98175001D01*
X171778470Y-98175001D01*
X171770662Y-98174232D01*
X171815000Y-97951335D01*
X171815000Y-97668665D01*
X171759853Y-97391426D01*
X171651680Y-97130273D01*
X171494637Y-96895241D01*
X171294759Y-96695363D01*
X171062241Y-96540000D01*
X171294759Y-96384637D01*
X171494637Y-96184759D01*
X171651680Y-95949727D01*
X171759853Y-95688574D01*
X171815000Y-95411335D01*
X171815000Y-95128665D01*
X171759853Y-94851426D01*
X171651680Y-94590273D01*
X171494637Y-94355241D01*
X171294759Y-94155363D01*
X171062241Y-94000000D01*
X171294759Y-93844637D01*
X171494637Y-93644759D01*
X171651680Y-93409727D01*
X171759853Y-93148574D01*
X171815000Y-92871335D01*
X171815000Y-92588665D01*
X171759853Y-92311426D01*
X171651680Y-92050273D01*
X171494637Y-91815241D01*
X171294759Y-91615363D01*
X171062241Y-91460000D01*
X171294759Y-91304637D01*
X171494637Y-91104759D01*
X171651680Y-90869727D01*
X171759853Y-90608574D01*
X171815000Y-90331335D01*
X171815000Y-90048665D01*
X171759853Y-89771426D01*
X171651680Y-89510273D01*
X171494637Y-89275241D01*
X171294759Y-89075363D01*
X171060872Y-88919085D01*
X171121514Y-88886671D01*
X171193097Y-88642702D01*
X170380000Y-87829605D01*
X170365858Y-87843748D01*
X170186253Y-87664143D01*
X170200395Y-87650000D01*
X170559605Y-87650000D01*
X171372702Y-88463097D01*
X171616671Y-88391514D01*
X171737571Y-88136004D01*
X171806300Y-87861816D01*
X171820217Y-87579488D01*
X171778787Y-87299870D01*
X171683603Y-87033708D01*
X171616671Y-86908486D01*
X171372702Y-86836903D01*
X170559605Y-87650000D01*
X170200395Y-87650000D01*
X169387298Y-86836903D01*
X169143329Y-86908486D01*
X169022429Y-87163996D01*
X168953700Y-87438184D01*
X168950227Y-87508648D01*
X162366534Y-80924956D01*
X162338817Y-80891183D01*
X162204059Y-80780589D01*
X162050313Y-80698411D01*
X161883490Y-80647805D01*
X161753477Y-80635000D01*
X161753469Y-80635000D01*
X161710000Y-80630719D01*
X161666531Y-80635000D01*
X160935804Y-80635000D01*
X160970226Y-80551898D01*
X161010000Y-80351939D01*
X161010000Y-80148061D01*
X160970226Y-79948102D01*
X160892205Y-79759744D01*
X160778937Y-79590226D01*
X160634774Y-79446063D01*
X160465256Y-79332795D01*
X160276898Y-79254774D01*
X160076939Y-79215000D01*
X159873061Y-79215000D01*
X159673102Y-79254774D01*
X159484744Y-79332795D01*
X159315226Y-79446063D01*
X159171063Y-79590226D01*
X159057795Y-79759744D01*
X158979774Y-79948102D01*
X158940000Y-80148061D01*
X158940000Y-80351939D01*
X158979774Y-80551898D01*
X159014196Y-80635000D01*
X129463466Y-80635000D01*
X129419999Y-80630719D01*
X129376533Y-80635000D01*
X129376523Y-80635000D01*
X129246510Y-80647805D01*
X129079687Y-80698411D01*
X128925941Y-80780589D01*
X128925939Y-80780590D01*
X128925940Y-80780590D01*
X128824953Y-80863468D01*
X128824951Y-80863470D01*
X128791183Y-80891183D01*
X128763470Y-80924951D01*
X127955423Y-81732998D01*
X127860156Y-81732998D01*
X127981476Y-81503110D01*
X127936825Y-81355901D01*
X127811641Y-81093080D01*
X127637588Y-80859731D01*
X127421355Y-80664822D01*
X127304466Y-80595195D01*
X127486632Y-80473475D01*
X127693475Y-80266632D01*
X127855990Y-80023411D01*
X127967932Y-79753158D01*
X128025000Y-79466260D01*
X128025000Y-79173740D01*
X127967932Y-78886842D01*
X127855990Y-78616589D01*
X127693475Y-78373368D01*
X127486632Y-78166525D01*
X127312240Y-78050000D01*
X127486632Y-77933475D01*
X127693475Y-77726632D01*
X127855990Y-77483411D01*
X127967932Y-77213158D01*
X128025000Y-76926260D01*
X128025000Y-76633740D01*
X127967932Y-76346842D01*
X127855990Y-76076589D01*
X127693475Y-75833368D01*
X127486632Y-75626525D01*
X127312240Y-75510000D01*
X127486632Y-75393475D01*
X127693475Y-75186632D01*
X127855990Y-74943411D01*
X127967932Y-74673158D01*
X128025000Y-74386260D01*
X128025000Y-74093740D01*
X127967932Y-73806842D01*
X127855990Y-73536589D01*
X127693475Y-73293368D01*
X127486632Y-73086525D01*
X127312240Y-72970000D01*
X127486632Y-72853475D01*
X127693475Y-72646632D01*
X127855990Y-72403411D01*
X127967932Y-72133158D01*
X128025000Y-71846260D01*
X128025000Y-71553740D01*
X127967932Y-71266842D01*
X127855990Y-70996589D01*
X127693475Y-70753368D01*
X127486632Y-70546525D01*
X127312240Y-70430000D01*
X127486632Y-70313475D01*
X127693475Y-70106632D01*
X127855990Y-69863411D01*
X127967932Y-69593158D01*
X128025000Y-69306260D01*
X128025000Y-69013740D01*
X127967932Y-68726842D01*
X127855990Y-68456589D01*
X127693475Y-68213368D01*
X127486632Y-68006525D01*
X127312240Y-67890000D01*
X127486632Y-67773475D01*
X127693475Y-67566632D01*
X127855990Y-67323411D01*
X127967932Y-67053158D01*
X128025000Y-66766260D01*
X128025000Y-66473740D01*
X127967932Y-66186842D01*
X127855990Y-65916589D01*
X127693475Y-65673368D01*
X127486632Y-65466525D01*
X127312240Y-65350000D01*
X127486632Y-65233475D01*
X127693475Y-65026632D01*
X127855990Y-64783411D01*
X127967932Y-64513158D01*
X128025000Y-64226260D01*
X128025000Y-63933740D01*
X127967932Y-63646842D01*
X127855990Y-63376589D01*
X127693475Y-63133368D01*
X127486632Y-62926525D01*
X127312240Y-62810000D01*
X127486632Y-62693475D01*
X127693475Y-62486632D01*
X127855990Y-62243411D01*
X127967932Y-61973158D01*
X128025000Y-61686260D01*
X128025000Y-61393740D01*
X127967932Y-61106842D01*
X127855990Y-60836589D01*
X127693475Y-60593368D01*
X127486632Y-60386525D01*
X127312240Y-60270000D01*
X127486632Y-60153475D01*
X127693475Y-59946632D01*
X127855990Y-59703411D01*
X127967932Y-59433158D01*
X128025000Y-59146260D01*
X128025000Y-58853740D01*
X127967932Y-58566842D01*
X127855990Y-58296589D01*
X127693475Y-58053368D01*
X127486632Y-57846525D01*
X127243411Y-57684010D01*
X126973158Y-57572068D01*
X126686260Y-57515000D01*
X126393740Y-57515000D01*
X126106842Y-57572068D01*
X125836589Y-57684010D01*
X125593368Y-57846525D01*
X125461513Y-57978380D01*
X125439502Y-57905820D01*
X125380537Y-57795506D01*
X125301185Y-57698815D01*
X125204494Y-57619463D01*
X125094180Y-57560498D01*
X124974482Y-57524188D01*
X124850000Y-57511928D01*
X124285750Y-57515000D01*
X124127000Y-57673750D01*
X124127000Y-58873000D01*
X124147000Y-58873000D01*
X124147000Y-59127000D01*
X124127000Y-59127000D01*
X124127000Y-61413000D01*
X124147000Y-61413000D01*
X124147000Y-61667000D01*
X124127000Y-61667000D01*
X124127000Y-63953000D01*
X124147000Y-63953000D01*
X124147000Y-64207000D01*
X124127000Y-64207000D01*
X124127000Y-66493000D01*
X124147000Y-66493000D01*
X124147000Y-66747000D01*
X124127000Y-66747000D01*
X124127000Y-69033000D01*
X124147000Y-69033000D01*
X124147000Y-69287000D01*
X124127000Y-69287000D01*
X124127000Y-71573000D01*
X124147000Y-71573000D01*
X124147000Y-71827000D01*
X124127000Y-71827000D01*
X124127000Y-74113000D01*
X124147000Y-74113000D01*
X124147000Y-74367000D01*
X124127000Y-74367000D01*
X124127000Y-76653000D01*
X124147000Y-76653000D01*
X124147000Y-76907000D01*
X124127000Y-76907000D01*
X124127000Y-79193000D01*
X124147000Y-79193000D01*
X124147000Y-79447000D01*
X124127000Y-79447000D01*
X124127000Y-81733000D01*
X126413000Y-81733000D01*
X126413000Y-81713000D01*
X126667000Y-81713000D01*
X126667000Y-81733000D01*
X126687000Y-81733000D01*
X126687000Y-81987000D01*
X126667000Y-81987000D01*
X126667000Y-82007000D01*
X126413000Y-82007000D01*
X126413000Y-81987000D01*
X124127000Y-81987000D01*
X124127000Y-84273000D01*
X124147000Y-84273000D01*
X124147000Y-84527000D01*
X124127000Y-84527000D01*
X124127000Y-86813000D01*
X124147000Y-86813000D01*
X124147000Y-87067000D01*
X124127000Y-87067000D01*
X124127000Y-89353000D01*
X124147000Y-89353000D01*
X124147000Y-89607000D01*
X124127000Y-89607000D01*
X124127000Y-91893000D01*
X124147000Y-91893000D01*
X124147000Y-92147000D01*
X124127000Y-92147000D01*
X124127000Y-94433000D01*
X124147000Y-94433000D01*
X124147000Y-94687000D01*
X124127000Y-94687000D01*
X124127000Y-96973000D01*
X124147000Y-96973000D01*
X124147000Y-97227000D01*
X124127000Y-97227000D01*
X124127000Y-99513000D01*
X124147000Y-99513000D01*
X124147000Y-99767000D01*
X124127000Y-99767000D01*
X124127000Y-102053000D01*
X124147000Y-102053000D01*
X124147000Y-102307000D01*
X124127000Y-102307000D01*
X124127000Y-104593000D01*
X124147000Y-104593000D01*
X124147000Y-104847000D01*
X124127000Y-104847000D01*
X124127000Y-107133000D01*
X124147000Y-107133000D01*
X124147000Y-107387000D01*
X124127000Y-107387000D01*
X124127000Y-109673000D01*
X124147000Y-109673000D01*
X124147000Y-109927000D01*
X124127000Y-109927000D01*
X124127000Y-112213000D01*
X124147000Y-112213000D01*
X124147000Y-112467000D01*
X124127000Y-112467000D01*
X124127000Y-114753000D01*
X126413000Y-114753000D01*
X126413000Y-114733000D01*
X126667000Y-114733000D01*
X126667000Y-114753000D01*
X127860155Y-114753000D01*
X127981476Y-114523110D01*
X127936825Y-114375901D01*
X127811641Y-114113080D01*
X127637588Y-113879731D01*
X127421355Y-113684822D01*
X127304466Y-113615195D01*
X127486632Y-113493475D01*
X127693475Y-113286632D01*
X127855990Y-113043411D01*
X127967932Y-112773158D01*
X128025000Y-112486260D01*
X128025000Y-112193740D01*
X127967932Y-111906842D01*
X127855990Y-111636589D01*
X127693475Y-111393368D01*
X127486632Y-111186525D01*
X127312240Y-111070000D01*
X127486632Y-110953475D01*
X127693475Y-110746632D01*
X127734656Y-110685000D01*
X133308422Y-110685000D01*
X138808470Y-116185049D01*
X138836183Y-116218817D01*
X138869951Y-116246530D01*
X138869953Y-116246532D01*
X138970941Y-116329411D01*
X139124686Y-116411589D01*
X139232143Y-116444186D01*
X139291510Y-116462195D01*
X139421523Y-116475000D01*
X139421531Y-116475000D01*
X139465000Y-116479281D01*
X139508469Y-116475000D01*
X144879327Y-116475000D01*
X144697115Y-116550475D01*
X144466178Y-116704782D01*
X144269782Y-116901178D01*
X144115475Y-117132115D01*
X144009186Y-117388718D01*
X143955000Y-117661127D01*
X143955000Y-117938873D01*
X144009186Y-118211282D01*
X144115475Y-118467885D01*
X144269782Y-118698822D01*
X144466178Y-118895218D01*
X144697115Y-119049525D01*
X144953718Y-119155814D01*
X145226127Y-119210000D01*
X145503873Y-119210000D01*
X145776282Y-119155814D01*
X146032885Y-119049525D01*
X146263822Y-118895218D01*
X146460218Y-118698822D01*
X146614525Y-118467885D01*
X146720814Y-118211282D01*
X146775000Y-117938873D01*
X146775000Y-117661127D01*
X146720814Y-117388718D01*
X146614525Y-117132115D01*
X146460218Y-116901178D01*
X146263822Y-116704782D01*
X146032885Y-116550475D01*
X145850673Y-116475000D01*
X169245479Y-116475000D01*
X169265363Y-116504759D01*
X169465241Y-116704637D01*
X169697759Y-116860000D01*
X169465241Y-117015363D01*
X169265363Y-117215241D01*
X169108320Y-117450273D01*
X169000147Y-117711426D01*
X168945000Y-117988665D01*
X168945000Y-118271335D01*
X169000147Y-118548574D01*
X169108320Y-118809727D01*
X169265363Y-119044759D01*
X169465241Y-119244637D01*
X169699128Y-119400915D01*
X169638486Y-119433329D01*
X169566903Y-119677298D01*
X170380000Y-120490395D01*
X171193097Y-119677298D01*
X171121514Y-119433329D01*
X171057008Y-119402806D01*
X171059727Y-119401680D01*
X171294759Y-119244637D01*
X171494637Y-119044759D01*
X171651680Y-118809727D01*
X171759853Y-118548574D01*
X171815000Y-118271335D01*
X171815000Y-117988665D01*
X171759853Y-117711426D01*
X171651680Y-117450273D01*
X171494637Y-117215241D01*
X171294759Y-117015363D01*
X171062241Y-116860000D01*
X171294759Y-116704637D01*
X171494637Y-116504759D01*
X171651680Y-116269727D01*
X171759853Y-116008574D01*
X171815000Y-115731335D01*
X171815000Y-115448665D01*
X171759853Y-115171426D01*
X171651680Y-114910273D01*
X171494637Y-114675241D01*
X171294759Y-114475363D01*
X171062241Y-114320000D01*
X171294759Y-114164637D01*
X171494637Y-113964759D01*
X171651680Y-113729727D01*
X171759853Y-113468574D01*
X171815000Y-113191335D01*
X171815000Y-112908665D01*
X171759853Y-112631426D01*
X171651680Y-112370273D01*
X171494637Y-112135241D01*
X171294759Y-111935363D01*
X171062241Y-111780000D01*
X171294759Y-111624637D01*
X171494637Y-111424759D01*
X171627740Y-111225556D01*
X171637863Y-111244494D01*
X171717215Y-111341185D01*
X171813906Y-111420537D01*
X171924220Y-111479502D01*
X172043918Y-111515812D01*
X172168400Y-111528072D01*
X173468400Y-111528072D01*
X173592882Y-111515812D01*
X173712580Y-111479502D01*
X173822894Y-111420537D01*
X173919585Y-111341185D01*
X173998937Y-111244494D01*
X174001530Y-111239642D01*
X174209724Y-111378753D01*
X174443579Y-111475619D01*
X174691839Y-111525000D01*
X174944961Y-111525000D01*
X175193221Y-111475619D01*
X175427076Y-111378753D01*
X175637540Y-111238125D01*
X175816525Y-111059140D01*
X175818400Y-111056334D01*
X175820275Y-111059140D01*
X175999260Y-111238125D01*
X176209724Y-111378753D01*
X176443579Y-111475619D01*
X176691839Y-111525000D01*
X176944961Y-111525000D01*
X177193221Y-111475619D01*
X177427076Y-111378753D01*
X177637540Y-111238125D01*
X177816525Y-111059140D01*
X177957153Y-110848676D01*
X178054019Y-110614821D01*
X178103400Y-110366561D01*
X178103400Y-110206578D01*
X179445049Y-108864930D01*
X179478817Y-108837217D01*
X179509582Y-108799731D01*
X179589410Y-108702460D01*
X179589411Y-108702459D01*
X179655001Y-108579748D01*
X179655001Y-120496521D01*
X179650719Y-120540000D01*
X179667805Y-120713490D01*
X179718412Y-120880313D01*
X179800590Y-121034059D01*
X179883468Y-121135046D01*
X179883471Y-121135049D01*
X179911184Y-121168817D01*
X179944951Y-121196529D01*
X181383470Y-122635049D01*
X181411183Y-122668817D01*
X181444951Y-122696530D01*
X181444953Y-122696532D01*
X181468602Y-122715940D01*
X181545941Y-122779411D01*
X181699687Y-122861589D01*
X181866510Y-122912195D01*
X181996523Y-122925000D01*
X181996533Y-122925000D01*
X182039999Y-122929281D01*
X182083465Y-122925000D01*
X184185750Y-122925000D01*
X184343750Y-123083000D01*
X185493000Y-123083000D01*
X185493000Y-123063000D01*
X185747000Y-123063000D01*
X185747000Y-123083000D01*
X186896250Y-123083000D01*
X187055000Y-122924250D01*
X187055033Y-122918692D01*
X187100170Y-122905000D01*
X216125542Y-122905000D01*
X216111826Y-122938112D01*
X216072052Y-123138071D01*
X216072052Y-123341949D01*
X216111826Y-123541908D01*
X216189847Y-123730266D01*
X216303115Y-123899784D01*
X216447278Y-124043947D01*
X216616796Y-124157215D01*
X216805154Y-124235236D01*
X216862008Y-124246545D01*
X216955463Y-124340000D01*
X186963630Y-124340000D01*
X187009502Y-124254180D01*
X187045812Y-124134482D01*
X187058072Y-124010000D01*
X187055000Y-123495750D01*
X186896250Y-123337000D01*
X185747000Y-123337000D01*
X185747000Y-123357000D01*
X185493000Y-123357000D01*
X185493000Y-123337000D01*
X184343750Y-123337000D01*
X184185000Y-123495750D01*
X184181928Y-124010000D01*
X184194188Y-124134482D01*
X184230498Y-124254180D01*
X184276370Y-124340000D01*
X171271767Y-124340000D01*
X171294759Y-124324637D01*
X171494637Y-124124759D01*
X171651680Y-123889727D01*
X171759853Y-123628574D01*
X171815000Y-123351335D01*
X171815000Y-123068665D01*
X171759853Y-122791426D01*
X171651680Y-122530273D01*
X171533524Y-122353439D01*
X175445000Y-122353439D01*
X175445000Y-122606561D01*
X175494381Y-122854821D01*
X175591247Y-123088676D01*
X175731875Y-123299140D01*
X175910860Y-123478125D01*
X176121324Y-123618753D01*
X176355179Y-123715619D01*
X176603439Y-123765000D01*
X176856561Y-123765000D01*
X177104821Y-123715619D01*
X177338676Y-123618753D01*
X177549140Y-123478125D01*
X177728125Y-123299140D01*
X177868753Y-123088676D01*
X177965619Y-122854821D01*
X178000000Y-122681973D01*
X178034381Y-122854821D01*
X178131247Y-123088676D01*
X178271875Y-123299140D01*
X178450860Y-123478125D01*
X178661324Y-123618753D01*
X178895179Y-123715619D01*
X179143439Y-123765000D01*
X179396561Y-123765000D01*
X179644821Y-123715619D01*
X179878676Y-123618753D01*
X180089140Y-123478125D01*
X180268125Y-123299140D01*
X180408753Y-123088676D01*
X180505619Y-122854821D01*
X180555000Y-122606561D01*
X180555000Y-122353439D01*
X180505619Y-122105179D01*
X180408753Y-121871324D01*
X180268125Y-121660860D01*
X180089140Y-121481875D01*
X179878676Y-121341247D01*
X179644821Y-121244381D01*
X179396561Y-121195000D01*
X179143439Y-121195000D01*
X178895179Y-121244381D01*
X178661324Y-121341247D01*
X178450860Y-121481875D01*
X178271875Y-121660860D01*
X178131247Y-121871324D01*
X178034381Y-122105179D01*
X178000000Y-122278027D01*
X177965619Y-122105179D01*
X177868753Y-121871324D01*
X177728125Y-121660860D01*
X177549140Y-121481875D01*
X177338676Y-121341247D01*
X177104821Y-121244381D01*
X176856561Y-121195000D01*
X176603439Y-121195000D01*
X176355179Y-121244381D01*
X176121324Y-121341247D01*
X175910860Y-121481875D01*
X175731875Y-121660860D01*
X175591247Y-121871324D01*
X175494381Y-122105179D01*
X175445000Y-122353439D01*
X171533524Y-122353439D01*
X171494637Y-122295241D01*
X171294759Y-122095363D01*
X171060872Y-121939085D01*
X171121514Y-121906671D01*
X171193097Y-121662702D01*
X170380000Y-120849605D01*
X169566903Y-121662702D01*
X169638486Y-121906671D01*
X169702992Y-121937194D01*
X169700273Y-121938320D01*
X169465241Y-122095363D01*
X169265363Y-122295241D01*
X169245479Y-122325000D01*
X139436579Y-122325000D01*
X137852091Y-120740512D01*
X168939783Y-120740512D01*
X168981213Y-121020130D01*
X169076397Y-121286292D01*
X169143329Y-121411514D01*
X169387298Y-121483097D01*
X170200395Y-120670000D01*
X170559605Y-120670000D01*
X171372702Y-121483097D01*
X171616671Y-121411514D01*
X171647194Y-121347008D01*
X171648320Y-121349727D01*
X171805363Y-121584759D01*
X172005241Y-121784637D01*
X172240273Y-121941680D01*
X172501426Y-122049853D01*
X172778665Y-122105000D01*
X173061335Y-122105000D01*
X173338574Y-122049853D01*
X173599727Y-121941680D01*
X173834759Y-121784637D01*
X174034637Y-121584759D01*
X174191680Y-121349727D01*
X174299853Y-121088574D01*
X174355000Y-120811335D01*
X174355000Y-120528665D01*
X174299853Y-120251426D01*
X174191680Y-119990273D01*
X174034637Y-119755241D01*
X173834759Y-119555363D01*
X173599727Y-119398320D01*
X173338574Y-119290147D01*
X173061335Y-119235000D01*
X172778665Y-119235000D01*
X172501426Y-119290147D01*
X172240273Y-119398320D01*
X172005241Y-119555363D01*
X171805363Y-119755241D01*
X171649085Y-119989128D01*
X171616671Y-119928486D01*
X171372702Y-119856903D01*
X170559605Y-120670000D01*
X170200395Y-120670000D01*
X169387298Y-119856903D01*
X169143329Y-119928486D01*
X169022429Y-120183996D01*
X168953700Y-120458184D01*
X168939783Y-120740512D01*
X137852091Y-120740512D01*
X136746535Y-119634957D01*
X136735226Y-119578102D01*
X136657205Y-119389744D01*
X136543937Y-119220226D01*
X136399774Y-119076063D01*
X136230256Y-118962795D01*
X136041898Y-118884774D01*
X135841939Y-118845000D01*
X135638061Y-118845000D01*
X135438102Y-118884774D01*
X135249744Y-118962795D01*
X135080226Y-119076063D01*
X134936063Y-119220226D01*
X134822795Y-119389744D01*
X134744774Y-119578102D01*
X134705000Y-119778061D01*
X134705000Y-119981939D01*
X134744774Y-120181898D01*
X134822795Y-120370256D01*
X134936063Y-120539774D01*
X135080226Y-120683937D01*
X135249744Y-120797205D01*
X135438102Y-120875226D01*
X135494957Y-120886535D01*
X138413470Y-123805049D01*
X138441183Y-123838817D01*
X138474951Y-123866530D01*
X138474953Y-123866532D01*
X138503216Y-123889727D01*
X138575941Y-123949411D01*
X138729687Y-124031589D01*
X138896510Y-124082195D01*
X139026523Y-124095000D01*
X139026533Y-124095000D01*
X139069999Y-124099281D01*
X139113465Y-124095000D01*
X169245479Y-124095000D01*
X169265363Y-124124759D01*
X169465241Y-124324637D01*
X169488233Y-124340000D01*
X122660000Y-124340000D01*
X122660000Y-123123402D01*
X122728359Y-123266920D01*
X122902412Y-123500269D01*
X123118645Y-123695178D01*
X123368748Y-123844157D01*
X123643109Y-123941481D01*
X123873000Y-123820814D01*
X123873000Y-122627000D01*
X123853000Y-122627000D01*
X123853000Y-122373000D01*
X123873000Y-122373000D01*
X123873000Y-120087000D01*
X123853000Y-120087000D01*
X123853000Y-119833000D01*
X123873000Y-119833000D01*
X123873000Y-117547000D01*
X123853000Y-117547000D01*
X123853000Y-117293000D01*
X123873000Y-117293000D01*
X123873000Y-115007000D01*
X124127000Y-115007000D01*
X124127000Y-117293000D01*
X124147000Y-117293000D01*
X124147000Y-117547000D01*
X124127000Y-117547000D01*
X124127000Y-119833000D01*
X124147000Y-119833000D01*
X124147000Y-120087000D01*
X124127000Y-120087000D01*
X124127000Y-122373000D01*
X124147000Y-122373000D01*
X124147000Y-122627000D01*
X124127000Y-122627000D01*
X124127000Y-123820814D01*
X124356891Y-123941481D01*
X124631252Y-123844157D01*
X124881355Y-123695178D01*
X125097588Y-123500269D01*
X125268900Y-123270594D01*
X125386525Y-123446632D01*
X125593368Y-123653475D01*
X125836589Y-123815990D01*
X126106842Y-123927932D01*
X126393740Y-123985000D01*
X126686260Y-123985000D01*
X126973158Y-123927932D01*
X127243411Y-123815990D01*
X127486632Y-123653475D01*
X127693475Y-123446632D01*
X127855990Y-123203411D01*
X127967932Y-122933158D01*
X128025000Y-122646260D01*
X128025000Y-122353740D01*
X127967932Y-122066842D01*
X127855990Y-121796589D01*
X127693475Y-121553368D01*
X127486632Y-121346525D01*
X127312240Y-121230000D01*
X127486632Y-121113475D01*
X127693475Y-120906632D01*
X127855990Y-120663411D01*
X127967932Y-120393158D01*
X128025000Y-120106260D01*
X128025000Y-119813740D01*
X127967932Y-119526842D01*
X127855990Y-119256589D01*
X127693475Y-119013368D01*
X127486632Y-118806525D01*
X127312240Y-118690000D01*
X127486632Y-118573475D01*
X127693475Y-118366632D01*
X127855990Y-118123411D01*
X127967932Y-117853158D01*
X128025000Y-117566260D01*
X128025000Y-117273740D01*
X127967932Y-116986842D01*
X127855990Y-116716589D01*
X127693475Y-116473368D01*
X127486632Y-116266525D01*
X127304466Y-116144805D01*
X127421355Y-116075178D01*
X127637588Y-115880269D01*
X127811641Y-115646920D01*
X127936825Y-115384099D01*
X127981476Y-115236890D01*
X127860155Y-115007000D01*
X126667000Y-115007000D01*
X126667000Y-115027000D01*
X126413000Y-115027000D01*
X126413000Y-115007000D01*
X124127000Y-115007000D01*
X123873000Y-115007000D01*
X123853000Y-115007000D01*
X123853000Y-114753000D01*
X123873000Y-114753000D01*
X123873000Y-112467000D01*
X123853000Y-112467000D01*
X123853000Y-112213000D01*
X123873000Y-112213000D01*
X123873000Y-109927000D01*
X123853000Y-109927000D01*
X123853000Y-109673000D01*
X123873000Y-109673000D01*
X123873000Y-107387000D01*
X123853000Y-107387000D01*
X123853000Y-107133000D01*
X123873000Y-107133000D01*
X123873000Y-104847000D01*
X123853000Y-104847000D01*
X123853000Y-104593000D01*
X123873000Y-104593000D01*
X123873000Y-102307000D01*
X123853000Y-102307000D01*
X123853000Y-102053000D01*
X123873000Y-102053000D01*
X123873000Y-99767000D01*
X123853000Y-99767000D01*
X123853000Y-99513000D01*
X123873000Y-99513000D01*
X123873000Y-97227000D01*
X123853000Y-97227000D01*
X123853000Y-96973000D01*
X123873000Y-96973000D01*
X123873000Y-94687000D01*
X123853000Y-94687000D01*
X123853000Y-94433000D01*
X123873000Y-94433000D01*
X123873000Y-92147000D01*
X123853000Y-92147000D01*
X123853000Y-91893000D01*
X123873000Y-91893000D01*
X123873000Y-89607000D01*
X123853000Y-89607000D01*
X123853000Y-89353000D01*
X123873000Y-89353000D01*
X123873000Y-87067000D01*
X123853000Y-87067000D01*
X123853000Y-86813000D01*
X123873000Y-86813000D01*
X123873000Y-84527000D01*
X123853000Y-84527000D01*
X123853000Y-84273000D01*
X123873000Y-84273000D01*
X123873000Y-81987000D01*
X123853000Y-81987000D01*
X123853000Y-81733000D01*
X123873000Y-81733000D01*
X123873000Y-79447000D01*
X123853000Y-79447000D01*
X123853000Y-79193000D01*
X123873000Y-79193000D01*
X123873000Y-76907000D01*
X123853000Y-76907000D01*
X123853000Y-76653000D01*
X123873000Y-76653000D01*
X123873000Y-74367000D01*
X123853000Y-74367000D01*
X123853000Y-74113000D01*
X123873000Y-74113000D01*
X123873000Y-71827000D01*
X123853000Y-71827000D01*
X123853000Y-71573000D01*
X123873000Y-71573000D01*
X123873000Y-69287000D01*
X123853000Y-69287000D01*
X123853000Y-69033000D01*
X123873000Y-69033000D01*
X123873000Y-66747000D01*
X123853000Y-66747000D01*
X123853000Y-66493000D01*
X123873000Y-66493000D01*
X123873000Y-64207000D01*
X123853000Y-64207000D01*
X123853000Y-63953000D01*
X123873000Y-63953000D01*
X123873000Y-61667000D01*
X123853000Y-61667000D01*
X123853000Y-61413000D01*
X123873000Y-61413000D01*
X123873000Y-59127000D01*
X123853000Y-59127000D01*
X123853000Y-58873000D01*
X123873000Y-58873000D01*
X123873000Y-57673750D01*
X123714250Y-57515000D01*
X123150000Y-57511928D01*
X123025518Y-57524188D01*
X122905820Y-57560498D01*
X122795506Y-57619463D01*
X122698815Y-57698815D01*
X122660000Y-57746111D01*
X122660000Y-56660000D01*
X226340001Y-56660000D01*
X226340001Y-56967572D01*
G37*
X226340001Y-56967572D02*
X226340000Y-56967582D01*
X226340000Y-58876598D01*
X226271641Y-58733080D01*
X226097588Y-58499731D01*
X225881355Y-58304822D01*
X225631252Y-58155843D01*
X225356891Y-58058519D01*
X225127000Y-58179186D01*
X225127000Y-59373000D01*
X225147000Y-59373000D01*
X225147000Y-59627000D01*
X225127000Y-59627000D01*
X225127000Y-61913000D01*
X225147000Y-61913000D01*
X225147000Y-62167000D01*
X225127000Y-62167000D01*
X225127000Y-64453000D01*
X225147000Y-64453000D01*
X225147000Y-64707000D01*
X225127000Y-64707000D01*
X225127000Y-66993000D01*
X225147000Y-66993000D01*
X225147000Y-67247000D01*
X225127000Y-67247000D01*
X225127000Y-69533000D01*
X225147000Y-69533000D01*
X225147000Y-69787000D01*
X225127000Y-69787000D01*
X225127000Y-72073000D01*
X225147000Y-72073000D01*
X225147000Y-72327000D01*
X225127000Y-72327000D01*
X225127000Y-74613000D01*
X225147000Y-74613000D01*
X225147000Y-74867000D01*
X225127000Y-74867000D01*
X225127000Y-77153000D01*
X225147000Y-77153000D01*
X225147000Y-77407000D01*
X225127000Y-77407000D01*
X225127000Y-79693000D01*
X225147000Y-79693000D01*
X225147000Y-79947000D01*
X225127000Y-79947000D01*
X225127000Y-82233000D01*
X225147000Y-82233000D01*
X225147000Y-82487000D01*
X225127000Y-82487000D01*
X225127000Y-84773000D01*
X225147000Y-84773000D01*
X225147000Y-85027000D01*
X225127000Y-85027000D01*
X225127000Y-87313000D01*
X225147000Y-87313000D01*
X225147000Y-87567000D01*
X225127000Y-87567000D01*
X225127000Y-89853000D01*
X225147000Y-89853000D01*
X225147000Y-90107000D01*
X225127000Y-90107000D01*
X225127000Y-92393000D01*
X225147000Y-92393000D01*
X225147000Y-92647000D01*
X225127000Y-92647000D01*
X225127000Y-94933000D01*
X225147000Y-94933000D01*
X225147000Y-95187000D01*
X225127000Y-95187000D01*
X225127000Y-97473000D01*
X225147000Y-97473000D01*
X225147000Y-97727000D01*
X225127000Y-97727000D01*
X225127000Y-100013000D01*
X225147000Y-100013000D01*
X225147000Y-100267000D01*
X225127000Y-100267000D01*
X225127000Y-102553000D01*
X225147000Y-102553000D01*
X225147000Y-102807000D01*
X225127000Y-102807000D01*
X225127000Y-105093000D01*
X225147000Y-105093000D01*
X225147000Y-105347000D01*
X225127000Y-105347000D01*
X225127000Y-107633000D01*
X225147000Y-107633000D01*
X225147000Y-107887000D01*
X225127000Y-107887000D01*
X225127000Y-110173000D01*
X225147000Y-110173000D01*
X225147000Y-110427000D01*
X225127000Y-110427000D01*
X225127000Y-112713000D01*
X225147000Y-112713000D01*
X225147000Y-112967000D01*
X225127000Y-112967000D01*
X225127000Y-115253000D01*
X225147000Y-115253000D01*
X225147000Y-115507000D01*
X225127000Y-115507000D01*
X225127000Y-117793000D01*
X225147000Y-117793000D01*
X225147000Y-118047000D01*
X225127000Y-118047000D01*
X225127000Y-120333000D01*
X225147000Y-120333000D01*
X225147000Y-120587000D01*
X225127000Y-120587000D01*
X225127000Y-122873000D01*
X225147000Y-122873000D01*
X225147000Y-123127000D01*
X225127000Y-123127000D01*
X225127000Y-123147000D01*
X224873000Y-123147000D01*
X224873000Y-123127000D01*
X224853000Y-123127000D01*
X224853000Y-122873000D01*
X224873000Y-122873000D01*
X224873000Y-120587000D01*
X224853000Y-120587000D01*
X224853000Y-120333000D01*
X224873000Y-120333000D01*
X224873000Y-118047000D01*
X224853000Y-118047000D01*
X224853000Y-117793000D01*
X224873000Y-117793000D01*
X224873000Y-115507000D01*
X224853000Y-115507000D01*
X224853000Y-115253000D01*
X224873000Y-115253000D01*
X224873000Y-112967000D01*
X224853000Y-112967000D01*
X224853000Y-112713000D01*
X224873000Y-112713000D01*
X224873000Y-110427000D01*
X224853000Y-110427000D01*
X224853000Y-110173000D01*
X224873000Y-110173000D01*
X224873000Y-107887000D01*
X224853000Y-107887000D01*
X224853000Y-107633000D01*
X224873000Y-107633000D01*
X224873000Y-105347000D01*
X224853000Y-105347000D01*
X224853000Y-105093000D01*
X224873000Y-105093000D01*
X224873000Y-102807000D01*
X224853000Y-102807000D01*
X224853000Y-102553000D01*
X224873000Y-102553000D01*
X224873000Y-100267000D01*
X224853000Y-100267000D01*
X224853000Y-100013000D01*
X224873000Y-100013000D01*
X224873000Y-97727000D01*
X224853000Y-97727000D01*
X224853000Y-97473000D01*
X224873000Y-97473000D01*
X224873000Y-95187000D01*
X224853000Y-95187000D01*
X224853000Y-94933000D01*
X224873000Y-94933000D01*
X224873000Y-92647000D01*
X224853000Y-92647000D01*
X224853000Y-92393000D01*
X224873000Y-92393000D01*
X224873000Y-90107000D01*
X224853000Y-90107000D01*
X224853000Y-89853000D01*
X224873000Y-89853000D01*
X224873000Y-87567000D01*
X224853000Y-87567000D01*
X224853000Y-87313000D01*
X224873000Y-87313000D01*
X224873000Y-85027000D01*
X224853000Y-85027000D01*
X224853000Y-84773000D01*
X224873000Y-84773000D01*
X224873000Y-82487000D01*
X224853000Y-82487000D01*
X224853000Y-82233000D01*
X224873000Y-82233000D01*
X224873000Y-79947000D01*
X224853000Y-79947000D01*
X224853000Y-79693000D01*
X224873000Y-79693000D01*
X224873000Y-77407000D01*
X224853000Y-77407000D01*
X224853000Y-77153000D01*
X224873000Y-77153000D01*
X224873000Y-74867000D01*
X224853000Y-74867000D01*
X224853000Y-74613000D01*
X224873000Y-74613000D01*
X224873000Y-72327000D01*
X224853000Y-72327000D01*
X224853000Y-72073000D01*
X224873000Y-72073000D01*
X224873000Y-69787000D01*
X224853000Y-69787000D01*
X224853000Y-69533000D01*
X224873000Y-69533000D01*
X224873000Y-67247000D01*
X224853000Y-67247000D01*
X224853000Y-66993000D01*
X224873000Y-66993000D01*
X224873000Y-64707000D01*
X224853000Y-64707000D01*
X224853000Y-64453000D01*
X224873000Y-64453000D01*
X224873000Y-62167000D01*
X224853000Y-62167000D01*
X224853000Y-61913000D01*
X224873000Y-61913000D01*
X224873000Y-59627000D01*
X224853000Y-59627000D01*
X224853000Y-59373000D01*
X224873000Y-59373000D01*
X224873000Y-58179186D01*
X224643109Y-58058519D01*
X224368748Y-58155843D01*
X224118645Y-58304822D01*
X223902412Y-58499731D01*
X223731100Y-58729406D01*
X223613475Y-58553368D01*
X223406632Y-58346525D01*
X223163411Y-58184010D01*
X222893158Y-58072068D01*
X222606260Y-58015000D01*
X222313740Y-58015000D01*
X222026842Y-58072068D01*
X221756589Y-58184010D01*
X221513368Y-58346525D01*
X221306525Y-58553368D01*
X221144010Y-58796589D01*
X221032068Y-59066842D01*
X220975000Y-59353740D01*
X220975000Y-59646260D01*
X221032068Y-59933158D01*
X221144010Y-60203411D01*
X221306525Y-60446632D01*
X221513368Y-60653475D01*
X221687760Y-60770000D01*
X221513368Y-60886525D01*
X221306525Y-61093368D01*
X221144010Y-61336589D01*
X221032068Y-61606842D01*
X220975000Y-61893740D01*
X220975000Y-62186260D01*
X221032068Y-62473158D01*
X221144010Y-62743411D01*
X221306525Y-62986632D01*
X221513368Y-63193475D01*
X221687760Y-63310000D01*
X221513368Y-63426525D01*
X221306525Y-63633368D01*
X221144010Y-63876589D01*
X221032068Y-64146842D01*
X220975000Y-64433740D01*
X220975000Y-64726260D01*
X221032068Y-65013158D01*
X221144010Y-65283411D01*
X221306525Y-65526632D01*
X221513368Y-65733475D01*
X221687760Y-65850000D01*
X221513368Y-65966525D01*
X221306525Y-66173368D01*
X221144010Y-66416589D01*
X221032068Y-66686842D01*
X220975000Y-66973740D01*
X220975000Y-67266260D01*
X221032068Y-67553158D01*
X221144010Y-67823411D01*
X221306525Y-68066632D01*
X221513368Y-68273475D01*
X221687760Y-68390000D01*
X221513368Y-68506525D01*
X221306525Y-68713368D01*
X221144010Y-68956589D01*
X221032068Y-69226842D01*
X220975000Y-69513740D01*
X220975000Y-69806260D01*
X221032068Y-70093158D01*
X221144010Y-70363411D01*
X221306525Y-70606632D01*
X221513368Y-70813475D01*
X221687760Y-70930000D01*
X221513368Y-71046525D01*
X221306525Y-71253368D01*
X221144010Y-71496589D01*
X221032068Y-71766842D01*
X220975000Y-72053740D01*
X220975000Y-72346260D01*
X221032068Y-72633158D01*
X221144010Y-72903411D01*
X221306525Y-73146632D01*
X221513368Y-73353475D01*
X221687760Y-73470000D01*
X221513368Y-73586525D01*
X221306525Y-73793368D01*
X221144010Y-74036589D01*
X221032068Y-74306842D01*
X220975000Y-74593740D01*
X220975000Y-74886260D01*
X221032068Y-75173158D01*
X221144010Y-75443411D01*
X221306525Y-75686632D01*
X221513368Y-75893475D01*
X221687760Y-76010000D01*
X221513368Y-76126525D01*
X221306525Y-76333368D01*
X221144010Y-76576589D01*
X221032068Y-76846842D01*
X220975000Y-77133740D01*
X220975000Y-77426260D01*
X221032068Y-77713158D01*
X221144010Y-77983411D01*
X221306525Y-78226632D01*
X221513368Y-78433475D01*
X221687760Y-78550000D01*
X221513368Y-78666525D01*
X221306525Y-78873368D01*
X221144010Y-79116589D01*
X221032068Y-79386842D01*
X220975000Y-79673740D01*
X220975000Y-79966260D01*
X221032068Y-80253158D01*
X221144010Y-80523411D01*
X221306525Y-80766632D01*
X221513368Y-80973475D01*
X221687760Y-81090000D01*
X221513368Y-81206525D01*
X221306525Y-81413368D01*
X221144010Y-81656589D01*
X221032068Y-81926842D01*
X220975000Y-82213740D01*
X220975000Y-82506260D01*
X221032068Y-82793158D01*
X221144010Y-83063411D01*
X221306525Y-83306632D01*
X221513368Y-83513475D01*
X221687760Y-83630000D01*
X221513368Y-83746525D01*
X221306525Y-83953368D01*
X221144010Y-84196589D01*
X221032068Y-84466842D01*
X220975000Y-84753740D01*
X220975000Y-85046260D01*
X221032068Y-85333158D01*
X221144010Y-85603411D01*
X221306525Y-85846632D01*
X221513368Y-86053475D01*
X221687760Y-86170000D01*
X221513368Y-86286525D01*
X221306525Y-86493368D01*
X221144010Y-86736589D01*
X221032068Y-87006842D01*
X220975000Y-87293740D01*
X220975000Y-87586260D01*
X221032068Y-87873158D01*
X221144010Y-88143411D01*
X221306525Y-88386632D01*
X221513368Y-88593475D01*
X221687760Y-88710000D01*
X221513368Y-88826525D01*
X221306525Y-89033368D01*
X221144010Y-89276589D01*
X221032068Y-89546842D01*
X220975000Y-89833740D01*
X220975000Y-90126260D01*
X221032068Y-90413158D01*
X221144010Y-90683411D01*
X221306525Y-90926632D01*
X221513368Y-91133475D01*
X221687760Y-91250000D01*
X221513368Y-91366525D01*
X221306525Y-91573368D01*
X221144010Y-91816589D01*
X221032068Y-92086842D01*
X220975000Y-92373740D01*
X220975000Y-92666260D01*
X221032068Y-92953158D01*
X221144010Y-93223411D01*
X221306525Y-93466632D01*
X221513368Y-93673475D01*
X221687760Y-93790000D01*
X221513368Y-93906525D01*
X221306525Y-94113368D01*
X221144010Y-94356589D01*
X221032068Y-94626842D01*
X220975000Y-94913740D01*
X220975000Y-95206260D01*
X221032068Y-95493158D01*
X221144010Y-95763411D01*
X221306525Y-96006632D01*
X221513368Y-96213475D01*
X221687760Y-96330000D01*
X221513368Y-96446525D01*
X221306525Y-96653368D01*
X221144010Y-96896589D01*
X221032068Y-97166842D01*
X220975000Y-97453740D01*
X220975000Y-97746260D01*
X221032068Y-98033158D01*
X221144010Y-98303411D01*
X221306525Y-98546632D01*
X221513368Y-98753475D01*
X221687760Y-98870000D01*
X221513368Y-98986525D01*
X221306525Y-99193368D01*
X221144010Y-99436589D01*
X221032068Y-99706842D01*
X220975000Y-99993740D01*
X220975000Y-100286260D01*
X221032068Y-100573158D01*
X221144010Y-100843411D01*
X221306525Y-101086632D01*
X221513368Y-101293475D01*
X221687760Y-101410000D01*
X221513368Y-101526525D01*
X221306525Y-101733368D01*
X221144010Y-101976589D01*
X221032068Y-102246842D01*
X220975000Y-102533740D01*
X220975000Y-102826260D01*
X221032068Y-103113158D01*
X221144010Y-103383411D01*
X221306525Y-103626632D01*
X221513368Y-103833475D01*
X221687760Y-103950000D01*
X221513368Y-104066525D01*
X221306525Y-104273368D01*
X221144010Y-104516589D01*
X221032068Y-104786842D01*
X220975000Y-105073740D01*
X220975000Y-105366260D01*
X221032068Y-105653158D01*
X221144010Y-105923411D01*
X221306525Y-106166632D01*
X221513368Y-106373475D01*
X221687760Y-106490000D01*
X221513368Y-106606525D01*
X221306525Y-106813368D01*
X221144010Y-107056589D01*
X221032068Y-107326842D01*
X220975000Y-107613740D01*
X220975000Y-107906260D01*
X221032068Y-108193158D01*
X221144010Y-108463411D01*
X221306525Y-108706632D01*
X221513368Y-108913475D01*
X221687760Y-109030000D01*
X221513368Y-109146525D01*
X221306525Y-109353368D01*
X221265344Y-109415000D01*
X217243469Y-109415000D01*
X217200000Y-109410719D01*
X217156531Y-109415000D01*
X217156523Y-109415000D01*
X217026510Y-109427805D01*
X216859687Y-109478411D01*
X216744459Y-109540001D01*
X216705941Y-109560589D01*
X216604953Y-109643468D01*
X216604951Y-109643470D01*
X216571183Y-109671183D01*
X216543470Y-109704951D01*
X214404956Y-111843466D01*
X214371183Y-111871183D01*
X214260589Y-112005942D01*
X214178411Y-112159688D01*
X214127805Y-112326511D01*
X214115000Y-112456524D01*
X214115000Y-112456531D01*
X214110719Y-112500000D01*
X214115000Y-112543469D01*
X214115001Y-116615000D01*
X209866579Y-116615000D01*
X208246534Y-114994956D01*
X208218817Y-114961183D01*
X208084059Y-114850589D01*
X207930313Y-114768411D01*
X207763490Y-114717805D01*
X207633477Y-114705000D01*
X207633469Y-114705000D01*
X207590000Y-114700719D01*
X207546531Y-114705000D01*
X186754521Y-114705000D01*
X186734637Y-114675241D01*
X186534759Y-114475363D01*
X186302241Y-114320000D01*
X186534759Y-114164637D01*
X186734637Y-113964759D01*
X186891680Y-113729727D01*
X186999853Y-113468574D01*
X187055000Y-113191335D01*
X187055000Y-112908665D01*
X187010509Y-112684999D01*
X209406292Y-112684999D01*
X211979900Y-115258608D01*
X211991209Y-115315462D01*
X212069230Y-115503820D01*
X212182498Y-115673338D01*
X212326661Y-115817501D01*
X212496179Y-115930769D01*
X212684537Y-116008790D01*
X212884496Y-116048564D01*
X213088374Y-116048564D01*
X213288333Y-116008790D01*
X213476691Y-115930769D01*
X213646209Y-115817501D01*
X213790372Y-115673338D01*
X213903640Y-115503820D01*
X213981661Y-115315462D01*
X214021435Y-115115503D01*
X214021435Y-114911625D01*
X213981661Y-114711666D01*
X213903640Y-114523308D01*
X213790372Y-114353790D01*
X213646209Y-114209627D01*
X213476691Y-114096359D01*
X213288333Y-114018338D01*
X213231479Y-114007029D01*
X210429404Y-111204955D01*
X210401687Y-111171182D01*
X210266929Y-111060588D01*
X210113183Y-110978410D01*
X209946360Y-110927804D01*
X209816347Y-110914999D01*
X209816339Y-110914999D01*
X209772870Y-110910718D01*
X209729401Y-110914999D01*
X193448378Y-110914999D01*
X193495226Y-110801898D01*
X193535000Y-110601939D01*
X193535000Y-110398061D01*
X193495226Y-110198102D01*
X193417205Y-110009744D01*
X193303937Y-109840226D01*
X193159774Y-109696063D01*
X192990256Y-109582795D01*
X192801898Y-109504774D01*
X192601939Y-109465000D01*
X192398061Y-109465000D01*
X192198102Y-109504774D01*
X192009744Y-109582795D01*
X191961546Y-109615000D01*
X188885000Y-109615000D01*
X188885000Y-78063467D01*
X188889281Y-78019998D01*
X188885000Y-77976529D01*
X188885000Y-77976521D01*
X188872195Y-77846508D01*
X188821589Y-77679685D01*
X188739411Y-77525939D01*
X188656532Y-77424951D01*
X188656530Y-77424949D01*
X188628817Y-77391181D01*
X188595049Y-77363468D01*
X186879514Y-75647934D01*
X186891680Y-75629727D01*
X186999853Y-75368574D01*
X187055000Y-75091335D01*
X187055000Y-74808665D01*
X186999853Y-74531426D01*
X186891680Y-74270273D01*
X186734637Y-74035241D01*
X186534759Y-73835363D01*
X186302241Y-73680000D01*
X186534759Y-73524637D01*
X186734637Y-73324759D01*
X186891680Y-73089727D01*
X186999853Y-72828574D01*
X187055000Y-72551335D01*
X187055000Y-72268665D01*
X186999853Y-71991426D01*
X186891680Y-71730273D01*
X186734637Y-71495241D01*
X186534759Y-71295363D01*
X186302241Y-71140000D01*
X186534759Y-70984637D01*
X186734637Y-70784759D01*
X186891680Y-70549727D01*
X186999853Y-70288574D01*
X187055000Y-70011335D01*
X187055000Y-69728665D01*
X186999853Y-69451426D01*
X186891680Y-69190273D01*
X186734637Y-68955241D01*
X186534759Y-68755363D01*
X186302241Y-68600000D01*
X186534759Y-68444637D01*
X186734637Y-68244759D01*
X186891680Y-68009727D01*
X186999853Y-67748574D01*
X187055000Y-67471335D01*
X187055000Y-67188665D01*
X186999853Y-66911426D01*
X186891680Y-66650273D01*
X186734637Y-66415241D01*
X186534759Y-66215363D01*
X186302241Y-66060000D01*
X186534759Y-65904637D01*
X186734637Y-65704759D01*
X186891680Y-65469727D01*
X186999853Y-65208574D01*
X187055000Y-64931335D01*
X187055000Y-64648665D01*
X186999853Y-64371426D01*
X186891680Y-64110273D01*
X186734637Y-63875241D01*
X186534759Y-63675363D01*
X186299727Y-63518320D01*
X186038574Y-63410147D01*
X185761335Y-63355000D01*
X185478665Y-63355000D01*
X185201426Y-63410147D01*
X184940273Y-63518320D01*
X184705241Y-63675363D01*
X184505363Y-63875241D01*
X184348320Y-64110273D01*
X184240147Y-64371426D01*
X184185000Y-64648665D01*
X184185000Y-64931335D01*
X184240147Y-65208574D01*
X184348320Y-65469727D01*
X184505363Y-65704759D01*
X184705241Y-65904637D01*
X184937759Y-66060000D01*
X184705241Y-66215363D01*
X184505363Y-66415241D01*
X184348320Y-66650273D01*
X184240147Y-66911426D01*
X184185000Y-67188665D01*
X184185000Y-67471335D01*
X184240147Y-67748574D01*
X184348320Y-68009727D01*
X184505363Y-68244759D01*
X184705241Y-68444637D01*
X184937759Y-68600000D01*
X184705241Y-68755363D01*
X184505363Y-68955241D01*
X184348320Y-69190273D01*
X184240147Y-69451426D01*
X184185000Y-69728665D01*
X184185000Y-70011335D01*
X184240147Y-70288574D01*
X184348320Y-70549727D01*
X184505363Y-70784759D01*
X184705241Y-70984637D01*
X184937759Y-71140000D01*
X184705241Y-71295363D01*
X184505363Y-71495241D01*
X184348320Y-71730273D01*
X184240147Y-71991426D01*
X184185000Y-72268665D01*
X184185000Y-72551335D01*
X184240147Y-72828574D01*
X184348320Y-73089727D01*
X184505363Y-73324759D01*
X184705241Y-73524637D01*
X184937759Y-73680000D01*
X184705241Y-73835363D01*
X184505363Y-74035241D01*
X184348320Y-74270273D01*
X184240147Y-74531426D01*
X184185000Y-74808665D01*
X184185000Y-75091335D01*
X184237447Y-75354999D01*
X176753466Y-75354999D01*
X176710000Y-75350718D01*
X176666534Y-75354999D01*
X176666524Y-75354999D01*
X176536511Y-75367804D01*
X176369688Y-75418410D01*
X176215942Y-75500588D01*
X176215940Y-75500589D01*
X176215941Y-75500589D01*
X176114954Y-75583467D01*
X176114952Y-75583469D01*
X176081184Y-75611182D01*
X176053471Y-75644950D01*
X175636439Y-76061983D01*
X175601335Y-76055000D01*
X175318665Y-76055000D01*
X175041426Y-76110147D01*
X174780273Y-76218320D01*
X174545241Y-76375363D01*
X174345363Y-76575241D01*
X174190000Y-76807759D01*
X174034637Y-76575241D01*
X173834759Y-76375363D01*
X173599727Y-76218320D01*
X173338574Y-76110147D01*
X173061335Y-76055000D01*
X172778665Y-76055000D01*
X172501426Y-76110147D01*
X172240273Y-76218320D01*
X172005241Y-76375363D01*
X171805363Y-76575241D01*
X171650000Y-76807759D01*
X171494637Y-76575241D01*
X171294759Y-76375363D01*
X171062241Y-76220000D01*
X171294759Y-76064637D01*
X171494637Y-75864759D01*
X171651680Y-75629727D01*
X171759853Y-75368574D01*
X171815000Y-75091335D01*
X171815000Y-74808665D01*
X171759853Y-74531426D01*
X171651680Y-74270273D01*
X171494637Y-74035241D01*
X171294759Y-73835363D01*
X171062241Y-73680000D01*
X171294759Y-73524637D01*
X171494637Y-73324759D01*
X171651680Y-73089727D01*
X171759853Y-72828574D01*
X171815000Y-72551335D01*
X171815000Y-72268665D01*
X171759853Y-71991426D01*
X171651680Y-71730273D01*
X171494637Y-71495241D01*
X171294759Y-71295363D01*
X171062241Y-71140000D01*
X171294759Y-70984637D01*
X171494637Y-70784759D01*
X171651680Y-70549727D01*
X171759853Y-70288574D01*
X171815000Y-70011335D01*
X171815000Y-69728665D01*
X171759853Y-69451426D01*
X171651680Y-69190273D01*
X171494637Y-68955241D01*
X171294759Y-68755363D01*
X171062241Y-68600000D01*
X171294759Y-68444637D01*
X171494637Y-68244759D01*
X171651680Y-68009727D01*
X171759853Y-67748574D01*
X171815000Y-67471335D01*
X171815000Y-67188665D01*
X171759853Y-66911426D01*
X171651680Y-66650273D01*
X171494637Y-66415241D01*
X171294759Y-66215363D01*
X171062241Y-66060000D01*
X171294759Y-65904637D01*
X171494637Y-65704759D01*
X171651680Y-65469727D01*
X171759853Y-65208574D01*
X171815000Y-64931335D01*
X171815000Y-64648665D01*
X171759853Y-64371426D01*
X171651680Y-64110273D01*
X171494637Y-63875241D01*
X171294759Y-63675363D01*
X171059727Y-63518320D01*
X170798574Y-63410147D01*
X170521335Y-63355000D01*
X170238665Y-63355000D01*
X169961426Y-63410147D01*
X169700273Y-63518320D01*
X169465241Y-63675363D01*
X169265363Y-63875241D01*
X169108320Y-64110273D01*
X169000147Y-64371426D01*
X168945000Y-64648665D01*
X168945000Y-64931335D01*
X169000147Y-65208574D01*
X169108320Y-65469727D01*
X169265363Y-65704759D01*
X169465241Y-65904637D01*
X169697759Y-66060000D01*
X169465241Y-66215363D01*
X169265363Y-66415241D01*
X169108320Y-66650273D01*
X169000147Y-66911426D01*
X168945000Y-67188665D01*
X168945000Y-67471335D01*
X169000147Y-67748574D01*
X169108320Y-68009727D01*
X169265363Y-68244759D01*
X169465241Y-68444637D01*
X169697759Y-68600000D01*
X169465241Y-68755363D01*
X169265363Y-68955241D01*
X169108320Y-69190273D01*
X169000147Y-69451426D01*
X168945000Y-69728665D01*
X168945000Y-70011335D01*
X169000147Y-70288574D01*
X169108320Y-70549727D01*
X169265363Y-70784759D01*
X169465241Y-70984637D01*
X169697759Y-71140000D01*
X169465241Y-71295363D01*
X169265363Y-71495241D01*
X169108320Y-71730273D01*
X169000147Y-71991426D01*
X168945000Y-72268665D01*
X168945000Y-72551335D01*
X169000147Y-72828574D01*
X169108320Y-73089727D01*
X169265363Y-73324759D01*
X169465241Y-73524637D01*
X169697759Y-73680000D01*
X169465241Y-73835363D01*
X169265363Y-74035241D01*
X169108320Y-74270273D01*
X169000147Y-74531426D01*
X168945000Y-74808665D01*
X168945000Y-75091335D01*
X169000147Y-75368574D01*
X169108320Y-75629727D01*
X169265363Y-75864759D01*
X169465241Y-76064637D01*
X169697759Y-76220000D01*
X169465241Y-76375363D01*
X169265363Y-76575241D01*
X169108320Y-76810273D01*
X169000147Y-77071426D01*
X168945000Y-77348665D01*
X168945000Y-77631335D01*
X169000147Y-77908574D01*
X169108320Y-78169727D01*
X169265363Y-78404759D01*
X169465241Y-78604637D01*
X169697759Y-78760000D01*
X169465241Y-78915363D01*
X169265363Y-79115241D01*
X169108320Y-79350273D01*
X169000147Y-79611426D01*
X168945000Y-79888665D01*
X168945000Y-80171335D01*
X169000147Y-80448574D01*
X169108320Y-80709727D01*
X169265363Y-80944759D01*
X169465241Y-81144637D01*
X169697759Y-81300000D01*
X169465241Y-81455363D01*
X169265363Y-81655241D01*
X169108320Y-81890273D01*
X169000147Y-82151426D01*
X168945000Y-82428665D01*
X168945000Y-82711335D01*
X169000147Y-82988574D01*
X169108320Y-83249727D01*
X169265363Y-83484759D01*
X169465241Y-83684637D01*
X169697759Y-83840000D01*
X169465241Y-83995363D01*
X169265363Y-84195241D01*
X169108320Y-84430273D01*
X169000147Y-84691426D01*
X168945000Y-84968665D01*
X168945000Y-85251335D01*
X169000147Y-85528574D01*
X169108320Y-85789727D01*
X169265363Y-86024759D01*
X169465241Y-86224637D01*
X169699128Y-86380915D01*
X169638486Y-86413329D01*
X169566903Y-86657298D01*
X170380000Y-87470395D01*
X171193097Y-86657298D01*
X171121514Y-86413329D01*
X171057008Y-86382806D01*
X171059727Y-86381680D01*
X171294759Y-86224637D01*
X171494637Y-86024759D01*
X171651680Y-85789727D01*
X171759853Y-85528574D01*
X171815000Y-85251335D01*
X171815000Y-84968665D01*
X171759853Y-84691426D01*
X171651680Y-84430273D01*
X171494637Y-84195241D01*
X171294759Y-83995363D01*
X171062241Y-83840000D01*
X171294759Y-83684637D01*
X171494637Y-83484759D01*
X171651680Y-83249727D01*
X171759853Y-82988574D01*
X171815000Y-82711335D01*
X171815000Y-82428665D01*
X171759853Y-82151426D01*
X171651680Y-81890273D01*
X171494637Y-81655241D01*
X171294759Y-81455363D01*
X171062241Y-81300000D01*
X171294759Y-81144637D01*
X171494637Y-80944759D01*
X171651680Y-80709727D01*
X171759853Y-80448574D01*
X171815000Y-80171335D01*
X171815000Y-79888665D01*
X171759853Y-79611426D01*
X171651680Y-79350273D01*
X171494637Y-79115241D01*
X171294759Y-78915363D01*
X171062241Y-78760000D01*
X171294759Y-78604637D01*
X171494637Y-78404759D01*
X171650000Y-78172241D01*
X171805363Y-78404759D01*
X172005241Y-78604637D01*
X172240273Y-78761680D01*
X172501426Y-78869853D01*
X172778665Y-78925000D01*
X173061335Y-78925000D01*
X173338574Y-78869853D01*
X173599727Y-78761680D01*
X173834759Y-78604637D01*
X174034637Y-78404759D01*
X174190000Y-78172241D01*
X174345363Y-78404759D01*
X174545241Y-78604637D01*
X174780273Y-78761680D01*
X175041426Y-78869853D01*
X175318665Y-78925000D01*
X175601335Y-78925000D01*
X175878574Y-78869853D01*
X176139727Y-78761680D01*
X176374759Y-78604637D01*
X176496694Y-78482702D01*
X177186903Y-78482702D01*
X177258486Y-78726671D01*
X177513996Y-78847571D01*
X177788184Y-78916300D01*
X178070512Y-78930217D01*
X178350130Y-78888787D01*
X178616292Y-78793603D01*
X178741514Y-78726671D01*
X178813097Y-78482702D01*
X178000000Y-77669605D01*
X177186903Y-78482702D01*
X176496694Y-78482702D01*
X176574637Y-78404759D01*
X176730915Y-78170872D01*
X176763329Y-78231514D01*
X177007298Y-78303097D01*
X177820395Y-77490000D01*
X177806253Y-77475858D01*
X177985858Y-77296253D01*
X178000000Y-77310395D01*
X178014143Y-77296253D01*
X178193748Y-77475858D01*
X178179605Y-77490000D01*
X178992702Y-78303097D01*
X179236671Y-78231514D01*
X179267194Y-78167008D01*
X179268320Y-78169727D01*
X179425363Y-78404759D01*
X179625241Y-78604637D01*
X179655000Y-78624521D01*
X179655001Y-103108652D01*
X179589411Y-102985941D01*
X179534811Y-102919411D01*
X179506532Y-102884953D01*
X179506530Y-102884951D01*
X179478817Y-102851183D01*
X179445050Y-102823471D01*
X177576534Y-100954956D01*
X177548817Y-100921183D01*
X177414059Y-100810589D01*
X177260313Y-100728411D01*
X177093490Y-100677805D01*
X176963477Y-100665000D01*
X176963469Y-100665000D01*
X176920000Y-100660719D01*
X176876531Y-100665000D01*
X176238454Y-100665000D01*
X176190256Y-100632795D01*
X176001898Y-100554774D01*
X175801939Y-100515000D01*
X175598061Y-100515000D01*
X175398102Y-100554774D01*
X175209744Y-100632795D01*
X175040226Y-100746063D01*
X174896063Y-100890226D01*
X174782795Y-101059744D01*
X174704774Y-101248102D01*
X174665000Y-101448061D01*
X174665000Y-101651939D01*
X174704774Y-101851898D01*
X174782795Y-102040256D01*
X174896063Y-102209774D01*
X175040226Y-102353937D01*
X175209744Y-102467205D01*
X175398102Y-102545226D01*
X175598061Y-102585000D01*
X175801939Y-102585000D01*
X176001898Y-102545226D01*
X176190256Y-102467205D01*
X176238454Y-102435000D01*
X176553422Y-102435000D01*
X177965000Y-103846579D01*
X177965001Y-107650270D01*
X177957153Y-107631324D01*
X177816525Y-107420860D01*
X177637540Y-107241875D01*
X177427076Y-107101247D01*
X177193221Y-107004381D01*
X176944961Y-106955000D01*
X176691839Y-106955000D01*
X176443579Y-107004381D01*
X176209724Y-107101247D01*
X175999260Y-107241875D01*
X175820275Y-107420860D01*
X175739133Y-107542297D01*
X175703927Y-107534078D01*
X174998005Y-108240000D01*
X175703927Y-108945922D01*
X175739133Y-108937703D01*
X175820275Y-109059140D01*
X175999260Y-109238125D01*
X176002066Y-109240000D01*
X175999260Y-109241875D01*
X175820275Y-109420860D01*
X175818400Y-109423666D01*
X175816525Y-109420860D01*
X175637540Y-109241875D01*
X175516103Y-109160733D01*
X175524322Y-109125527D01*
X174818400Y-108419605D01*
X174804258Y-108433748D01*
X174624653Y-108254143D01*
X174638795Y-108240000D01*
X173932873Y-107534078D01*
X173897667Y-107542297D01*
X173816525Y-107420860D01*
X173750138Y-107354473D01*
X174112478Y-107354473D01*
X174818400Y-108060395D01*
X175524322Y-107354473D01*
X175470934Y-107125799D01*
X175241026Y-107019905D01*
X174994876Y-106960898D01*
X174741945Y-106951048D01*
X174491951Y-106990730D01*
X174254504Y-107078422D01*
X174165866Y-107125799D01*
X174112478Y-107354473D01*
X173750138Y-107354473D01*
X173703400Y-107307735D01*
X173703400Y-100186869D01*
X173707681Y-100143400D01*
X173703400Y-100099931D01*
X173703400Y-100099923D01*
X173690595Y-99969910D01*
X173639989Y-99803086D01*
X173557811Y-99649341D01*
X173474932Y-99548353D01*
X173474930Y-99548351D01*
X173447217Y-99514583D01*
X173413449Y-99486870D01*
X172391535Y-98464957D01*
X172363818Y-98431184D01*
X172229060Y-98320590D01*
X172075314Y-98238412D01*
X171908491Y-98187806D01*
X171778478Y-98175001D01*
X171778470Y-98175001D01*
X171770662Y-98174232D01*
X171815000Y-97951335D01*
X171815000Y-97668665D01*
X171759853Y-97391426D01*
X171651680Y-97130273D01*
X171494637Y-96895241D01*
X171294759Y-96695363D01*
X171062241Y-96540000D01*
X171294759Y-96384637D01*
X171494637Y-96184759D01*
X171651680Y-95949727D01*
X171759853Y-95688574D01*
X171815000Y-95411335D01*
X171815000Y-95128665D01*
X171759853Y-94851426D01*
X171651680Y-94590273D01*
X171494637Y-94355241D01*
X171294759Y-94155363D01*
X171062241Y-94000000D01*
X171294759Y-93844637D01*
X171494637Y-93644759D01*
X171651680Y-93409727D01*
X171759853Y-93148574D01*
X171815000Y-92871335D01*
X171815000Y-92588665D01*
X171759853Y-92311426D01*
X171651680Y-92050273D01*
X171494637Y-91815241D01*
X171294759Y-91615363D01*
X171062241Y-91460000D01*
X171294759Y-91304637D01*
X171494637Y-91104759D01*
X171651680Y-90869727D01*
X171759853Y-90608574D01*
X171815000Y-90331335D01*
X171815000Y-90048665D01*
X171759853Y-89771426D01*
X171651680Y-89510273D01*
X171494637Y-89275241D01*
X171294759Y-89075363D01*
X171060872Y-88919085D01*
X171121514Y-88886671D01*
X171193097Y-88642702D01*
X170380000Y-87829605D01*
X170365858Y-87843748D01*
X170186253Y-87664143D01*
X170200395Y-87650000D01*
X170559605Y-87650000D01*
X171372702Y-88463097D01*
X171616671Y-88391514D01*
X171737571Y-88136004D01*
X171806300Y-87861816D01*
X171820217Y-87579488D01*
X171778787Y-87299870D01*
X171683603Y-87033708D01*
X171616671Y-86908486D01*
X171372702Y-86836903D01*
X170559605Y-87650000D01*
X170200395Y-87650000D01*
X169387298Y-86836903D01*
X169143329Y-86908486D01*
X169022429Y-87163996D01*
X168953700Y-87438184D01*
X168950227Y-87508648D01*
X162366534Y-80924956D01*
X162338817Y-80891183D01*
X162204059Y-80780589D01*
X162050313Y-80698411D01*
X161883490Y-80647805D01*
X161753477Y-80635000D01*
X161753469Y-80635000D01*
X161710000Y-80630719D01*
X161666531Y-80635000D01*
X160935804Y-80635000D01*
X160970226Y-80551898D01*
X161010000Y-80351939D01*
X161010000Y-80148061D01*
X160970226Y-79948102D01*
X160892205Y-79759744D01*
X160778937Y-79590226D01*
X160634774Y-79446063D01*
X160465256Y-79332795D01*
X160276898Y-79254774D01*
X160076939Y-79215000D01*
X159873061Y-79215000D01*
X159673102Y-79254774D01*
X159484744Y-79332795D01*
X159315226Y-79446063D01*
X159171063Y-79590226D01*
X159057795Y-79759744D01*
X158979774Y-79948102D01*
X158940000Y-80148061D01*
X158940000Y-80351939D01*
X158979774Y-80551898D01*
X159014196Y-80635000D01*
X129463466Y-80635000D01*
X129419999Y-80630719D01*
X129376533Y-80635000D01*
X129376523Y-80635000D01*
X129246510Y-80647805D01*
X129079687Y-80698411D01*
X128925941Y-80780589D01*
X128925939Y-80780590D01*
X128925940Y-80780590D01*
X128824953Y-80863468D01*
X128824951Y-80863470D01*
X128791183Y-80891183D01*
X128763470Y-80924951D01*
X127955423Y-81732998D01*
X127860156Y-81732998D01*
X127981476Y-81503110D01*
X127936825Y-81355901D01*
X127811641Y-81093080D01*
X127637588Y-80859731D01*
X127421355Y-80664822D01*
X127304466Y-80595195D01*
X127486632Y-80473475D01*
X127693475Y-80266632D01*
X127855990Y-80023411D01*
X127967932Y-79753158D01*
X128025000Y-79466260D01*
X128025000Y-79173740D01*
X127967932Y-78886842D01*
X127855990Y-78616589D01*
X127693475Y-78373368D01*
X127486632Y-78166525D01*
X127312240Y-78050000D01*
X127486632Y-77933475D01*
X127693475Y-77726632D01*
X127855990Y-77483411D01*
X127967932Y-77213158D01*
X128025000Y-76926260D01*
X128025000Y-76633740D01*
X127967932Y-76346842D01*
X127855990Y-76076589D01*
X127693475Y-75833368D01*
X127486632Y-75626525D01*
X127312240Y-75510000D01*
X127486632Y-75393475D01*
X127693475Y-75186632D01*
X127855990Y-74943411D01*
X127967932Y-74673158D01*
X128025000Y-74386260D01*
X128025000Y-74093740D01*
X127967932Y-73806842D01*
X127855990Y-73536589D01*
X127693475Y-73293368D01*
X127486632Y-73086525D01*
X127312240Y-72970000D01*
X127486632Y-72853475D01*
X127693475Y-72646632D01*
X127855990Y-72403411D01*
X127967932Y-72133158D01*
X128025000Y-71846260D01*
X128025000Y-71553740D01*
X127967932Y-71266842D01*
X127855990Y-70996589D01*
X127693475Y-70753368D01*
X127486632Y-70546525D01*
X127312240Y-70430000D01*
X127486632Y-70313475D01*
X127693475Y-70106632D01*
X127855990Y-69863411D01*
X127967932Y-69593158D01*
X128025000Y-69306260D01*
X128025000Y-69013740D01*
X127967932Y-68726842D01*
X127855990Y-68456589D01*
X127693475Y-68213368D01*
X127486632Y-68006525D01*
X127312240Y-67890000D01*
X127486632Y-67773475D01*
X127693475Y-67566632D01*
X127855990Y-67323411D01*
X127967932Y-67053158D01*
X128025000Y-66766260D01*
X128025000Y-66473740D01*
X127967932Y-66186842D01*
X127855990Y-65916589D01*
X127693475Y-65673368D01*
X127486632Y-65466525D01*
X127312240Y-65350000D01*
X127486632Y-65233475D01*
X127693475Y-65026632D01*
X127855990Y-64783411D01*
X127967932Y-64513158D01*
X128025000Y-64226260D01*
X128025000Y-63933740D01*
X127967932Y-63646842D01*
X127855990Y-63376589D01*
X127693475Y-63133368D01*
X127486632Y-62926525D01*
X127312240Y-62810000D01*
X127486632Y-62693475D01*
X127693475Y-62486632D01*
X127855990Y-62243411D01*
X127967932Y-61973158D01*
X128025000Y-61686260D01*
X128025000Y-61393740D01*
X127967932Y-61106842D01*
X127855990Y-60836589D01*
X127693475Y-60593368D01*
X127486632Y-60386525D01*
X127312240Y-60270000D01*
X127486632Y-60153475D01*
X127693475Y-59946632D01*
X127855990Y-59703411D01*
X127967932Y-59433158D01*
X128025000Y-59146260D01*
X128025000Y-58853740D01*
X127967932Y-58566842D01*
X127855990Y-58296589D01*
X127693475Y-58053368D01*
X127486632Y-57846525D01*
X127243411Y-57684010D01*
X126973158Y-57572068D01*
X126686260Y-57515000D01*
X126393740Y-57515000D01*
X126106842Y-57572068D01*
X125836589Y-57684010D01*
X125593368Y-57846525D01*
X125461513Y-57978380D01*
X125439502Y-57905820D01*
X125380537Y-57795506D01*
X125301185Y-57698815D01*
X125204494Y-57619463D01*
X125094180Y-57560498D01*
X124974482Y-57524188D01*
X124850000Y-57511928D01*
X124285750Y-57515000D01*
X124127000Y-57673750D01*
X124127000Y-58873000D01*
X124147000Y-58873000D01*
X124147000Y-59127000D01*
X124127000Y-59127000D01*
X124127000Y-61413000D01*
X124147000Y-61413000D01*
X124147000Y-61667000D01*
X124127000Y-61667000D01*
X124127000Y-63953000D01*
X124147000Y-63953000D01*
X124147000Y-64207000D01*
X124127000Y-64207000D01*
X124127000Y-66493000D01*
X124147000Y-66493000D01*
X124147000Y-66747000D01*
X124127000Y-66747000D01*
X124127000Y-69033000D01*
X124147000Y-69033000D01*
X124147000Y-69287000D01*
X124127000Y-69287000D01*
X124127000Y-71573000D01*
X124147000Y-71573000D01*
X124147000Y-71827000D01*
X124127000Y-71827000D01*
X124127000Y-74113000D01*
X124147000Y-74113000D01*
X124147000Y-74367000D01*
X124127000Y-74367000D01*
X124127000Y-76653000D01*
X124147000Y-76653000D01*
X124147000Y-76907000D01*
X124127000Y-76907000D01*
X124127000Y-79193000D01*
X124147000Y-79193000D01*
X124147000Y-79447000D01*
X124127000Y-79447000D01*
X124127000Y-81733000D01*
X126413000Y-81733000D01*
X126413000Y-81713000D01*
X126667000Y-81713000D01*
X126667000Y-81733000D01*
X126687000Y-81733000D01*
X126687000Y-81987000D01*
X126667000Y-81987000D01*
X126667000Y-82007000D01*
X126413000Y-82007000D01*
X126413000Y-81987000D01*
X124127000Y-81987000D01*
X124127000Y-84273000D01*
X124147000Y-84273000D01*
X124147000Y-84527000D01*
X124127000Y-84527000D01*
X124127000Y-86813000D01*
X124147000Y-86813000D01*
X124147000Y-87067000D01*
X124127000Y-87067000D01*
X124127000Y-89353000D01*
X124147000Y-89353000D01*
X124147000Y-89607000D01*
X124127000Y-89607000D01*
X124127000Y-91893000D01*
X124147000Y-91893000D01*
X124147000Y-92147000D01*
X124127000Y-92147000D01*
X124127000Y-94433000D01*
X124147000Y-94433000D01*
X124147000Y-94687000D01*
X124127000Y-94687000D01*
X124127000Y-96973000D01*
X124147000Y-96973000D01*
X124147000Y-97227000D01*
X124127000Y-97227000D01*
X124127000Y-99513000D01*
X124147000Y-99513000D01*
X124147000Y-99767000D01*
X124127000Y-99767000D01*
X124127000Y-102053000D01*
X124147000Y-102053000D01*
X124147000Y-102307000D01*
X124127000Y-102307000D01*
X124127000Y-104593000D01*
X124147000Y-104593000D01*
X124147000Y-104847000D01*
X124127000Y-104847000D01*
X124127000Y-107133000D01*
X124147000Y-107133000D01*
X124147000Y-107387000D01*
X124127000Y-107387000D01*
X124127000Y-109673000D01*
X124147000Y-109673000D01*
X124147000Y-109927000D01*
X124127000Y-109927000D01*
X124127000Y-112213000D01*
X124147000Y-112213000D01*
X124147000Y-112467000D01*
X124127000Y-112467000D01*
X124127000Y-114753000D01*
X126413000Y-114753000D01*
X126413000Y-114733000D01*
X126667000Y-114733000D01*
X126667000Y-114753000D01*
X127860155Y-114753000D01*
X127981476Y-114523110D01*
X127936825Y-114375901D01*
X127811641Y-114113080D01*
X127637588Y-113879731D01*
X127421355Y-113684822D01*
X127304466Y-113615195D01*
X127486632Y-113493475D01*
X127693475Y-113286632D01*
X127855990Y-113043411D01*
X127967932Y-112773158D01*
X128025000Y-112486260D01*
X128025000Y-112193740D01*
X127967932Y-111906842D01*
X127855990Y-111636589D01*
X127693475Y-111393368D01*
X127486632Y-111186525D01*
X127312240Y-111070000D01*
X127486632Y-110953475D01*
X127693475Y-110746632D01*
X127734656Y-110685000D01*
X133308422Y-110685000D01*
X138808470Y-116185049D01*
X138836183Y-116218817D01*
X138869951Y-116246530D01*
X138869953Y-116246532D01*
X138970941Y-116329411D01*
X139124686Y-116411589D01*
X139232143Y-116444186D01*
X139291510Y-116462195D01*
X139421523Y-116475000D01*
X139421531Y-116475000D01*
X139465000Y-116479281D01*
X139508469Y-116475000D01*
X144879327Y-116475000D01*
X144697115Y-116550475D01*
X144466178Y-116704782D01*
X144269782Y-116901178D01*
X144115475Y-117132115D01*
X144009186Y-117388718D01*
X143955000Y-117661127D01*
X143955000Y-117938873D01*
X144009186Y-118211282D01*
X144115475Y-118467885D01*
X144269782Y-118698822D01*
X144466178Y-118895218D01*
X144697115Y-119049525D01*
X144953718Y-119155814D01*
X145226127Y-119210000D01*
X145503873Y-119210000D01*
X145776282Y-119155814D01*
X146032885Y-119049525D01*
X146263822Y-118895218D01*
X146460218Y-118698822D01*
X146614525Y-118467885D01*
X146720814Y-118211282D01*
X146775000Y-117938873D01*
X146775000Y-117661127D01*
X146720814Y-117388718D01*
X146614525Y-117132115D01*
X146460218Y-116901178D01*
X146263822Y-116704782D01*
X146032885Y-116550475D01*
X145850673Y-116475000D01*
X169245479Y-116475000D01*
X169265363Y-116504759D01*
X169465241Y-116704637D01*
X169697759Y-116860000D01*
X169465241Y-117015363D01*
X169265363Y-117215241D01*
X169108320Y-117450273D01*
X169000147Y-117711426D01*
X168945000Y-117988665D01*
X168945000Y-118271335D01*
X169000147Y-118548574D01*
X169108320Y-118809727D01*
X169265363Y-119044759D01*
X169465241Y-119244637D01*
X169699128Y-119400915D01*
X169638486Y-119433329D01*
X169566903Y-119677298D01*
X170380000Y-120490395D01*
X171193097Y-119677298D01*
X171121514Y-119433329D01*
X171057008Y-119402806D01*
X171059727Y-119401680D01*
X171294759Y-119244637D01*
X171494637Y-119044759D01*
X171651680Y-118809727D01*
X171759853Y-118548574D01*
X171815000Y-118271335D01*
X171815000Y-117988665D01*
X171759853Y-117711426D01*
X171651680Y-117450273D01*
X171494637Y-117215241D01*
X171294759Y-117015363D01*
X171062241Y-116860000D01*
X171294759Y-116704637D01*
X171494637Y-116504759D01*
X171651680Y-116269727D01*
X171759853Y-116008574D01*
X171815000Y-115731335D01*
X171815000Y-115448665D01*
X171759853Y-115171426D01*
X171651680Y-114910273D01*
X171494637Y-114675241D01*
X171294759Y-114475363D01*
X171062241Y-114320000D01*
X171294759Y-114164637D01*
X171494637Y-113964759D01*
X171651680Y-113729727D01*
X171759853Y-113468574D01*
X171815000Y-113191335D01*
X171815000Y-112908665D01*
X171759853Y-112631426D01*
X171651680Y-112370273D01*
X171494637Y-112135241D01*
X171294759Y-111935363D01*
X171062241Y-111780000D01*
X171294759Y-111624637D01*
X171494637Y-111424759D01*
X171627740Y-111225556D01*
X171637863Y-111244494D01*
X171717215Y-111341185D01*
X171813906Y-111420537D01*
X171924220Y-111479502D01*
X172043918Y-111515812D01*
X172168400Y-111528072D01*
X173468400Y-111528072D01*
X173592882Y-111515812D01*
X173712580Y-111479502D01*
X173822894Y-111420537D01*
X173919585Y-111341185D01*
X173998937Y-111244494D01*
X174001530Y-111239642D01*
X174209724Y-111378753D01*
X174443579Y-111475619D01*
X174691839Y-111525000D01*
X174944961Y-111525000D01*
X175193221Y-111475619D01*
X175427076Y-111378753D01*
X175637540Y-111238125D01*
X175816525Y-111059140D01*
X175818400Y-111056334D01*
X175820275Y-111059140D01*
X175999260Y-111238125D01*
X176209724Y-111378753D01*
X176443579Y-111475619D01*
X176691839Y-111525000D01*
X176944961Y-111525000D01*
X177193221Y-111475619D01*
X177427076Y-111378753D01*
X177637540Y-111238125D01*
X177816525Y-111059140D01*
X177957153Y-110848676D01*
X178054019Y-110614821D01*
X178103400Y-110366561D01*
X178103400Y-110206578D01*
X179445049Y-108864930D01*
X179478817Y-108837217D01*
X179509582Y-108799731D01*
X179589410Y-108702460D01*
X179589411Y-108702459D01*
X179655001Y-108579748D01*
X179655001Y-120496521D01*
X179650719Y-120540000D01*
X179667805Y-120713490D01*
X179718412Y-120880313D01*
X179800590Y-121034059D01*
X179883468Y-121135046D01*
X179883471Y-121135049D01*
X179911184Y-121168817D01*
X179944951Y-121196529D01*
X181383470Y-122635049D01*
X181411183Y-122668817D01*
X181444951Y-122696530D01*
X181444953Y-122696532D01*
X181468602Y-122715940D01*
X181545941Y-122779411D01*
X181699687Y-122861589D01*
X181866510Y-122912195D01*
X181996523Y-122925000D01*
X181996533Y-122925000D01*
X182039999Y-122929281D01*
X182083465Y-122925000D01*
X184185750Y-122925000D01*
X184343750Y-123083000D01*
X185493000Y-123083000D01*
X185493000Y-123063000D01*
X185747000Y-123063000D01*
X185747000Y-123083000D01*
X186896250Y-123083000D01*
X187055000Y-122924250D01*
X187055033Y-122918692D01*
X187100170Y-122905000D01*
X216125542Y-122905000D01*
X216111826Y-122938112D01*
X216072052Y-123138071D01*
X216072052Y-123341949D01*
X216111826Y-123541908D01*
X216189847Y-123730266D01*
X216303115Y-123899784D01*
X216447278Y-124043947D01*
X216616796Y-124157215D01*
X216805154Y-124235236D01*
X216862008Y-124246545D01*
X216955463Y-124340000D01*
X186963630Y-124340000D01*
X187009502Y-124254180D01*
X187045812Y-124134482D01*
X187058072Y-124010000D01*
X187055000Y-123495750D01*
X186896250Y-123337000D01*
X185747000Y-123337000D01*
X185747000Y-123357000D01*
X185493000Y-123357000D01*
X185493000Y-123337000D01*
X184343750Y-123337000D01*
X184185000Y-123495750D01*
X184181928Y-124010000D01*
X184194188Y-124134482D01*
X184230498Y-124254180D01*
X184276370Y-124340000D01*
X171271767Y-124340000D01*
X171294759Y-124324637D01*
X171494637Y-124124759D01*
X171651680Y-123889727D01*
X171759853Y-123628574D01*
X171815000Y-123351335D01*
X171815000Y-123068665D01*
X171759853Y-122791426D01*
X171651680Y-122530273D01*
X171533524Y-122353439D01*
X175445000Y-122353439D01*
X175445000Y-122606561D01*
X175494381Y-122854821D01*
X175591247Y-123088676D01*
X175731875Y-123299140D01*
X175910860Y-123478125D01*
X176121324Y-123618753D01*
X176355179Y-123715619D01*
X176603439Y-123765000D01*
X176856561Y-123765000D01*
X177104821Y-123715619D01*
X177338676Y-123618753D01*
X177549140Y-123478125D01*
X177728125Y-123299140D01*
X177868753Y-123088676D01*
X177965619Y-122854821D01*
X178000000Y-122681973D01*
X178034381Y-122854821D01*
X178131247Y-123088676D01*
X178271875Y-123299140D01*
X178450860Y-123478125D01*
X178661324Y-123618753D01*
X178895179Y-123715619D01*
X179143439Y-123765000D01*
X179396561Y-123765000D01*
X179644821Y-123715619D01*
X179878676Y-123618753D01*
X180089140Y-123478125D01*
X180268125Y-123299140D01*
X180408753Y-123088676D01*
X180505619Y-122854821D01*
X180555000Y-122606561D01*
X180555000Y-122353439D01*
X180505619Y-122105179D01*
X180408753Y-121871324D01*
X180268125Y-121660860D01*
X180089140Y-121481875D01*
X179878676Y-121341247D01*
X179644821Y-121244381D01*
X179396561Y-121195000D01*
X179143439Y-121195000D01*
X178895179Y-121244381D01*
X178661324Y-121341247D01*
X178450860Y-121481875D01*
X178271875Y-121660860D01*
X178131247Y-121871324D01*
X178034381Y-122105179D01*
X178000000Y-122278027D01*
X177965619Y-122105179D01*
X177868753Y-121871324D01*
X177728125Y-121660860D01*
X177549140Y-121481875D01*
X177338676Y-121341247D01*
X177104821Y-121244381D01*
X176856561Y-121195000D01*
X176603439Y-121195000D01*
X176355179Y-121244381D01*
X176121324Y-121341247D01*
X175910860Y-121481875D01*
X175731875Y-121660860D01*
X175591247Y-121871324D01*
X175494381Y-122105179D01*
X175445000Y-122353439D01*
X171533524Y-122353439D01*
X171494637Y-122295241D01*
X171294759Y-122095363D01*
X171060872Y-121939085D01*
X171121514Y-121906671D01*
X171193097Y-121662702D01*
X170380000Y-120849605D01*
X169566903Y-121662702D01*
X169638486Y-121906671D01*
X169702992Y-121937194D01*
X169700273Y-121938320D01*
X169465241Y-122095363D01*
X169265363Y-122295241D01*
X169245479Y-122325000D01*
X139436579Y-122325000D01*
X137852091Y-120740512D01*
X168939783Y-120740512D01*
X168981213Y-121020130D01*
X169076397Y-121286292D01*
X169143329Y-121411514D01*
X169387298Y-121483097D01*
X170200395Y-120670000D01*
X170559605Y-120670000D01*
X171372702Y-121483097D01*
X171616671Y-121411514D01*
X171647194Y-121347008D01*
X171648320Y-121349727D01*
X171805363Y-121584759D01*
X172005241Y-121784637D01*
X172240273Y-121941680D01*
X172501426Y-122049853D01*
X172778665Y-122105000D01*
X173061335Y-122105000D01*
X173338574Y-122049853D01*
X173599727Y-121941680D01*
X173834759Y-121784637D01*
X174034637Y-121584759D01*
X174191680Y-121349727D01*
X174299853Y-121088574D01*
X174355000Y-120811335D01*
X174355000Y-120528665D01*
X174299853Y-120251426D01*
X174191680Y-119990273D01*
X174034637Y-119755241D01*
X173834759Y-119555363D01*
X173599727Y-119398320D01*
X173338574Y-119290147D01*
X173061335Y-119235000D01*
X172778665Y-119235000D01*
X172501426Y-119290147D01*
X172240273Y-119398320D01*
X172005241Y-119555363D01*
X171805363Y-119755241D01*
X171649085Y-119989128D01*
X171616671Y-119928486D01*
X171372702Y-119856903D01*
X170559605Y-120670000D01*
X170200395Y-120670000D01*
X169387298Y-119856903D01*
X169143329Y-119928486D01*
X169022429Y-120183996D01*
X168953700Y-120458184D01*
X168939783Y-120740512D01*
X137852091Y-120740512D01*
X136746535Y-119634957D01*
X136735226Y-119578102D01*
X136657205Y-119389744D01*
X136543937Y-119220226D01*
X136399774Y-119076063D01*
X136230256Y-118962795D01*
X136041898Y-118884774D01*
X135841939Y-118845000D01*
X135638061Y-118845000D01*
X135438102Y-118884774D01*
X135249744Y-118962795D01*
X135080226Y-119076063D01*
X134936063Y-119220226D01*
X134822795Y-119389744D01*
X134744774Y-119578102D01*
X134705000Y-119778061D01*
X134705000Y-119981939D01*
X134744774Y-120181898D01*
X134822795Y-120370256D01*
X134936063Y-120539774D01*
X135080226Y-120683937D01*
X135249744Y-120797205D01*
X135438102Y-120875226D01*
X135494957Y-120886535D01*
X138413470Y-123805049D01*
X138441183Y-123838817D01*
X138474951Y-123866530D01*
X138474953Y-123866532D01*
X138503216Y-123889727D01*
X138575941Y-123949411D01*
X138729687Y-124031589D01*
X138896510Y-124082195D01*
X139026523Y-124095000D01*
X139026533Y-124095000D01*
X139069999Y-124099281D01*
X139113465Y-124095000D01*
X169245479Y-124095000D01*
X169265363Y-124124759D01*
X169465241Y-124324637D01*
X169488233Y-124340000D01*
X122660000Y-124340000D01*
X122660000Y-123123402D01*
X122728359Y-123266920D01*
X122902412Y-123500269D01*
X123118645Y-123695178D01*
X123368748Y-123844157D01*
X123643109Y-123941481D01*
X123873000Y-123820814D01*
X123873000Y-122627000D01*
X123853000Y-122627000D01*
X123853000Y-122373000D01*
X123873000Y-122373000D01*
X123873000Y-120087000D01*
X123853000Y-120087000D01*
X123853000Y-119833000D01*
X123873000Y-119833000D01*
X123873000Y-117547000D01*
X123853000Y-117547000D01*
X123853000Y-117293000D01*
X123873000Y-117293000D01*
X123873000Y-115007000D01*
X124127000Y-115007000D01*
X124127000Y-117293000D01*
X124147000Y-117293000D01*
X124147000Y-117547000D01*
X124127000Y-117547000D01*
X124127000Y-119833000D01*
X124147000Y-119833000D01*
X124147000Y-120087000D01*
X124127000Y-120087000D01*
X124127000Y-122373000D01*
X124147000Y-122373000D01*
X124147000Y-122627000D01*
X124127000Y-122627000D01*
X124127000Y-123820814D01*
X124356891Y-123941481D01*
X124631252Y-123844157D01*
X124881355Y-123695178D01*
X125097588Y-123500269D01*
X125268900Y-123270594D01*
X125386525Y-123446632D01*
X125593368Y-123653475D01*
X125836589Y-123815990D01*
X126106842Y-123927932D01*
X126393740Y-123985000D01*
X126686260Y-123985000D01*
X126973158Y-123927932D01*
X127243411Y-123815990D01*
X127486632Y-123653475D01*
X127693475Y-123446632D01*
X127855990Y-123203411D01*
X127967932Y-122933158D01*
X128025000Y-122646260D01*
X128025000Y-122353740D01*
X127967932Y-122066842D01*
X127855990Y-121796589D01*
X127693475Y-121553368D01*
X127486632Y-121346525D01*
X127312240Y-121230000D01*
X127486632Y-121113475D01*
X127693475Y-120906632D01*
X127855990Y-120663411D01*
X127967932Y-120393158D01*
X128025000Y-120106260D01*
X128025000Y-119813740D01*
X127967932Y-119526842D01*
X127855990Y-119256589D01*
X127693475Y-119013368D01*
X127486632Y-118806525D01*
X127312240Y-118690000D01*
X127486632Y-118573475D01*
X127693475Y-118366632D01*
X127855990Y-118123411D01*
X127967932Y-117853158D01*
X128025000Y-117566260D01*
X128025000Y-117273740D01*
X127967932Y-116986842D01*
X127855990Y-116716589D01*
X127693475Y-116473368D01*
X127486632Y-116266525D01*
X127304466Y-116144805D01*
X127421355Y-116075178D01*
X127637588Y-115880269D01*
X127811641Y-115646920D01*
X127936825Y-115384099D01*
X127981476Y-115236890D01*
X127860155Y-115007000D01*
X126667000Y-115007000D01*
X126667000Y-115027000D01*
X126413000Y-115027000D01*
X126413000Y-115007000D01*
X124127000Y-115007000D01*
X123873000Y-115007000D01*
X123853000Y-115007000D01*
X123853000Y-114753000D01*
X123873000Y-114753000D01*
X123873000Y-112467000D01*
X123853000Y-112467000D01*
X123853000Y-112213000D01*
X123873000Y-112213000D01*
X123873000Y-109927000D01*
X123853000Y-109927000D01*
X123853000Y-109673000D01*
X123873000Y-109673000D01*
X123873000Y-107387000D01*
X123853000Y-107387000D01*
X123853000Y-107133000D01*
X123873000Y-107133000D01*
X123873000Y-104847000D01*
X123853000Y-104847000D01*
X123853000Y-104593000D01*
X123873000Y-104593000D01*
X123873000Y-102307000D01*
X123853000Y-102307000D01*
X123853000Y-102053000D01*
X123873000Y-102053000D01*
X123873000Y-99767000D01*
X123853000Y-99767000D01*
X123853000Y-99513000D01*
X123873000Y-99513000D01*
X123873000Y-97227000D01*
X123853000Y-97227000D01*
X123853000Y-96973000D01*
X123873000Y-96973000D01*
X123873000Y-94687000D01*
X123853000Y-94687000D01*
X123853000Y-94433000D01*
X123873000Y-94433000D01*
X123873000Y-92147000D01*
X123853000Y-92147000D01*
X123853000Y-91893000D01*
X123873000Y-91893000D01*
X123873000Y-89607000D01*
X123853000Y-89607000D01*
X123853000Y-89353000D01*
X123873000Y-89353000D01*
X123873000Y-87067000D01*
X123853000Y-87067000D01*
X123853000Y-86813000D01*
X123873000Y-86813000D01*
X123873000Y-84527000D01*
X123853000Y-84527000D01*
X123853000Y-84273000D01*
X123873000Y-84273000D01*
X123873000Y-81987000D01*
X123853000Y-81987000D01*
X123853000Y-81733000D01*
X123873000Y-81733000D01*
X123873000Y-79447000D01*
X123853000Y-79447000D01*
X123853000Y-79193000D01*
X123873000Y-79193000D01*
X123873000Y-76907000D01*
X123853000Y-76907000D01*
X123853000Y-76653000D01*
X123873000Y-76653000D01*
X123873000Y-74367000D01*
X123853000Y-74367000D01*
X123853000Y-74113000D01*
X123873000Y-74113000D01*
X123873000Y-71827000D01*
X123853000Y-71827000D01*
X123853000Y-71573000D01*
X123873000Y-71573000D01*
X123873000Y-69287000D01*
X123853000Y-69287000D01*
X123853000Y-69033000D01*
X123873000Y-69033000D01*
X123873000Y-66747000D01*
X123853000Y-66747000D01*
X123853000Y-66493000D01*
X123873000Y-66493000D01*
X123873000Y-64207000D01*
X123853000Y-64207000D01*
X123853000Y-63953000D01*
X123873000Y-63953000D01*
X123873000Y-61667000D01*
X123853000Y-61667000D01*
X123853000Y-61413000D01*
X123873000Y-61413000D01*
X123873000Y-59127000D01*
X123853000Y-59127000D01*
X123853000Y-58873000D01*
X123873000Y-58873000D01*
X123873000Y-57673750D01*
X123714250Y-57515000D01*
X123150000Y-57511928D01*
X123025518Y-57524188D01*
X122905820Y-57560498D01*
X122795506Y-57619463D01*
X122698815Y-57698815D01*
X122660000Y-57746111D01*
X122660000Y-56660000D01*
X226340001Y-56660000D01*
X226340001Y-56967572D01*
G36*
X181965363Y-78404759D02*
G01*
X182165241Y-78604637D01*
X182400273Y-78761680D01*
X182661426Y-78869853D01*
X182938665Y-78925000D01*
X182994999Y-78925000D01*
X182995000Y-105378138D01*
X182781016Y-105324500D01*
X182498688Y-105310583D01*
X182219070Y-105352013D01*
X181952908Y-105447197D01*
X181827686Y-105514129D01*
X181756103Y-105758098D01*
X182569200Y-106571195D01*
X182583343Y-106557053D01*
X182762948Y-106736658D01*
X182748805Y-106750800D01*
X182762948Y-106764943D01*
X182583343Y-106944548D01*
X182569200Y-106930405D01*
X181756103Y-107743502D01*
X181827686Y-107987471D01*
X181893836Y-108018771D01*
X181827686Y-108054129D01*
X181756103Y-108298098D01*
X182569200Y-109111195D01*
X182583343Y-109097053D01*
X182762948Y-109276658D01*
X182748805Y-109290800D01*
X182762948Y-109304943D01*
X182583343Y-109484548D01*
X182569200Y-109470405D01*
X181756103Y-110283502D01*
X181827686Y-110527471D01*
X181892192Y-110557994D01*
X181889473Y-110559120D01*
X181654441Y-110716163D01*
X181454563Y-110916041D01*
X181425000Y-110960285D01*
X181425000Y-110059446D01*
X181576498Y-110103897D01*
X182389595Y-109290800D01*
X181576498Y-108477703D01*
X181425000Y-108522154D01*
X181425000Y-107519446D01*
X181576498Y-107563897D01*
X182389595Y-106750800D01*
X181576498Y-105937703D01*
X181425000Y-105982154D01*
X181425000Y-78624521D01*
X181454759Y-78604637D01*
X181654637Y-78404759D01*
X181810000Y-78172241D01*
X181965363Y-78404759D01*
G37*
X181965363Y-78404759D02*
X182165241Y-78604637D01*
X182400273Y-78761680D01*
X182661426Y-78869853D01*
X182938665Y-78925000D01*
X182994999Y-78925000D01*
X182995000Y-105378138D01*
X182781016Y-105324500D01*
X182498688Y-105310583D01*
X182219070Y-105352013D01*
X181952908Y-105447197D01*
X181827686Y-105514129D01*
X181756103Y-105758098D01*
X182569200Y-106571195D01*
X182583343Y-106557053D01*
X182762948Y-106736658D01*
X182748805Y-106750800D01*
X182762948Y-106764943D01*
X182583343Y-106944548D01*
X182569200Y-106930405D01*
X181756103Y-107743502D01*
X181827686Y-107987471D01*
X181893836Y-108018771D01*
X181827686Y-108054129D01*
X181756103Y-108298098D01*
X182569200Y-109111195D01*
X182583343Y-109097053D01*
X182762948Y-109276658D01*
X182748805Y-109290800D01*
X182762948Y-109304943D01*
X182583343Y-109484548D01*
X182569200Y-109470405D01*
X181756103Y-110283502D01*
X181827686Y-110527471D01*
X181892192Y-110557994D01*
X181889473Y-110559120D01*
X181654441Y-110716163D01*
X181454563Y-110916041D01*
X181425000Y-110960285D01*
X181425000Y-110059446D01*
X181576498Y-110103897D01*
X182389595Y-109290800D01*
X181576498Y-108477703D01*
X181425000Y-108522154D01*
X181425000Y-107519446D01*
X181576498Y-107563897D01*
X182389595Y-106750800D01*
X181576498Y-105937703D01*
X181425000Y-105982154D01*
X181425000Y-78624521D01*
X181454759Y-78604637D01*
X181654637Y-78404759D01*
X181810000Y-78172241D01*
X181965363Y-78404759D01*
G36*
X145879744Y-91202795D02*
G01*
X145831546Y-91235000D01*
X143460969Y-91235000D01*
X143417500Y-91230719D01*
X143374031Y-91235000D01*
X143374023Y-91235000D01*
X143244010Y-91247805D01*
X143077187Y-91298411D01*
X142923441Y-91380589D01*
X142854794Y-91436927D01*
X142465001Y-91436927D01*
X142340519Y-91449187D01*
X142220821Y-91485497D01*
X142110507Y-91544462D01*
X142075001Y-91573601D01*
X142039495Y-91544462D01*
X141929181Y-91485497D01*
X141809483Y-91449187D01*
X141685001Y-91436927D01*
X141473251Y-91439999D01*
X141314501Y-91598749D01*
X141314501Y-92447999D01*
X141334501Y-92447999D01*
X141334501Y-92701999D01*
X141314501Y-92701999D01*
X141314501Y-92721999D01*
X141060501Y-92721999D01*
X141060501Y-92701999D01*
X140213751Y-92701999D01*
X140055001Y-92860749D01*
X140051929Y-93074999D01*
X140064189Y-93199481D01*
X140071321Y-93222992D01*
X140040506Y-93239463D01*
X139943815Y-93318815D01*
X139864463Y-93415506D01*
X139805498Y-93525820D01*
X139769188Y-93645518D01*
X139756928Y-93770000D01*
X139760000Y-93984250D01*
X139918750Y-94143000D01*
X140765500Y-94143000D01*
X140765500Y-94123000D01*
X141019500Y-94123000D01*
X141019500Y-94143000D01*
X141039500Y-94143000D01*
X141039500Y-94397000D01*
X141019500Y-94397000D01*
X141019500Y-95246250D01*
X141178250Y-95405000D01*
X141390000Y-95408072D01*
X141514482Y-95395812D01*
X141634180Y-95359502D01*
X141744494Y-95300537D01*
X141780000Y-95271398D01*
X141815506Y-95300537D01*
X141925820Y-95359502D01*
X142045518Y-95395812D01*
X142170000Y-95408072D01*
X142455675Y-95408072D01*
X142435498Y-95445820D01*
X142399188Y-95565518D01*
X142386928Y-95690000D01*
X142390000Y-95904250D01*
X142548750Y-96063000D01*
X143395500Y-96063000D01*
X143395500Y-96043000D01*
X143649500Y-96043000D01*
X143649500Y-96063000D01*
X143669500Y-96063000D01*
X143669500Y-96317000D01*
X143649500Y-96317000D01*
X143649500Y-97166250D01*
X143808250Y-97325000D01*
X144020000Y-97328072D01*
X144144482Y-97315812D01*
X144264180Y-97279502D01*
X144374494Y-97220537D01*
X144410000Y-97191398D01*
X144445506Y-97220537D01*
X144555820Y-97279502D01*
X144675518Y-97315812D01*
X144800000Y-97328072D01*
X145795000Y-97328072D01*
X145919482Y-97315812D01*
X146039180Y-97279502D01*
X146149494Y-97220537D01*
X146246185Y-97141185D01*
X146325537Y-97044494D01*
X146384502Y-96934180D01*
X146420812Y-96814482D01*
X146422731Y-96795000D01*
X146507713Y-96795000D01*
X146510498Y-96804180D01*
X146569463Y-96914494D01*
X146648815Y-97011185D01*
X146745506Y-97090537D01*
X146855820Y-97149502D01*
X146975518Y-97185812D01*
X147100000Y-97198072D01*
X147920000Y-97198072D01*
X148044482Y-97185812D01*
X148164180Y-97149502D01*
X148274494Y-97090537D01*
X148310000Y-97061398D01*
X148345506Y-97090537D01*
X148455820Y-97149502D01*
X148575518Y-97185812D01*
X148700000Y-97198072D01*
X149520000Y-97198072D01*
X149625000Y-97187731D01*
X149625001Y-98655000D01*
X146808454Y-98655000D01*
X146760256Y-98622795D01*
X146571898Y-98544774D01*
X146371939Y-98505000D01*
X146168061Y-98505000D01*
X145968102Y-98544774D01*
X145779744Y-98622795D01*
X145610226Y-98736063D01*
X145466063Y-98880226D01*
X145352795Y-99049744D01*
X145274774Y-99238102D01*
X145235000Y-99438061D01*
X145235000Y-99641939D01*
X145236973Y-99651860D01*
X145101939Y-99625000D01*
X144898061Y-99625000D01*
X144698102Y-99664774D01*
X144509744Y-99742795D01*
X144340226Y-99856063D01*
X144196063Y-100000226D01*
X144082795Y-100169744D01*
X144004774Y-100358102D01*
X143965000Y-100558061D01*
X143965000Y-100761939D01*
X144004774Y-100961898D01*
X144082795Y-101150256D01*
X144115000Y-101198455D01*
X144115000Y-101626530D01*
X144110719Y-101670000D01*
X144115000Y-101713469D01*
X144115000Y-101713476D01*
X144125798Y-101823110D01*
X144127431Y-101839687D01*
X144127805Y-101843489D01*
X144178411Y-102010312D01*
X144260589Y-102164058D01*
X144371183Y-102298817D01*
X144404956Y-102326534D01*
X145553470Y-103475049D01*
X145581183Y-103508817D01*
X145614951Y-103536530D01*
X145614953Y-103536532D01*
X145651500Y-103566525D01*
X145715941Y-103619411D01*
X145869687Y-103701589D01*
X146036510Y-103752195D01*
X146166523Y-103765000D01*
X146166533Y-103765000D01*
X146187544Y-103767069D01*
X146131247Y-103851324D01*
X146034381Y-104085179D01*
X145985000Y-104333439D01*
X145985000Y-104586561D01*
X146034381Y-104834821D01*
X146131247Y-105068676D01*
X146271875Y-105279140D01*
X146450860Y-105458125D01*
X146661324Y-105598753D01*
X146895179Y-105695619D01*
X147143439Y-105745000D01*
X147396561Y-105745000D01*
X147644821Y-105695619D01*
X147878676Y-105598753D01*
X148089140Y-105458125D01*
X148268125Y-105279140D01*
X148408753Y-105068676D01*
X148505619Y-104834821D01*
X148540000Y-104661973D01*
X148574381Y-104834821D01*
X148671247Y-105068676D01*
X148811875Y-105279140D01*
X148990860Y-105458125D01*
X149050001Y-105497642D01*
X149050001Y-105692667D01*
X149046324Y-105730000D01*
X149050001Y-105767333D01*
X149055447Y-105822630D01*
X148914821Y-105764381D01*
X148666561Y-105715000D01*
X148413439Y-105715000D01*
X148165179Y-105764381D01*
X147931324Y-105861247D01*
X147720860Y-106001875D01*
X147541875Y-106180860D01*
X147401247Y-106391324D01*
X147304381Y-106625179D01*
X147270000Y-106798027D01*
X147235619Y-106625179D01*
X147138753Y-106391324D01*
X146998125Y-106180860D01*
X146819140Y-106001875D01*
X146608676Y-105861247D01*
X146374821Y-105764381D01*
X146126561Y-105715000D01*
X145873439Y-105715000D01*
X145625179Y-105764381D01*
X145391324Y-105861247D01*
X145180860Y-106001875D01*
X145001875Y-106180860D01*
X144861247Y-106391324D01*
X144764381Y-106625179D01*
X144715000Y-106873439D01*
X144715000Y-107126561D01*
X144764381Y-107374821D01*
X144861247Y-107608676D01*
X145001875Y-107819140D01*
X145180860Y-107998125D01*
X145391324Y-108138753D01*
X145625179Y-108235619D01*
X145873439Y-108285000D01*
X146126561Y-108285000D01*
X146374821Y-108235619D01*
X146608676Y-108138753D01*
X146819140Y-107998125D01*
X146998125Y-107819140D01*
X147138753Y-107608676D01*
X147235619Y-107374821D01*
X147270000Y-107201973D01*
X147304381Y-107374821D01*
X147401247Y-107608676D01*
X147541875Y-107819140D01*
X147720860Y-107998125D01*
X147931324Y-108138753D01*
X148165179Y-108235619D01*
X148413439Y-108285000D01*
X148666561Y-108285000D01*
X148914821Y-108235619D01*
X149148676Y-108138753D01*
X149359140Y-107998125D01*
X149538125Y-107819140D01*
X149678753Y-107608676D01*
X149775619Y-107374821D01*
X149810000Y-107201973D01*
X149844381Y-107374821D01*
X149941247Y-107608676D01*
X150081875Y-107819140D01*
X150260860Y-107998125D01*
X150320001Y-108037642D01*
X150320001Y-108542668D01*
X150316324Y-108580000D01*
X150320001Y-108617333D01*
X150330998Y-108728986D01*
X150343781Y-108771127D01*
X150374454Y-108872246D01*
X150445026Y-109004276D01*
X150516201Y-109091002D01*
X150540000Y-109120001D01*
X150568998Y-109143799D01*
X150936196Y-109510997D01*
X150959999Y-109540001D01*
X151075724Y-109634974D01*
X151207753Y-109705546D01*
X151351014Y-109749003D01*
X151462667Y-109760000D01*
X151462675Y-109760000D01*
X151500000Y-109763676D01*
X151537325Y-109760000D01*
X153769676Y-109760000D01*
X153806998Y-109763676D01*
X153844320Y-109760000D01*
X153844331Y-109760000D01*
X153955984Y-109749003D01*
X154099245Y-109705546D01*
X154231274Y-109634974D01*
X154284457Y-109591328D01*
X154417206Y-109790000D01*
X144067424Y-109790000D01*
X144243832Y-109726277D01*
X144356863Y-109665860D01*
X144422388Y-109426993D01*
X143645000Y-108649605D01*
X143630858Y-108663748D01*
X143451253Y-108484143D01*
X143465395Y-108470000D01*
X143824605Y-108470000D01*
X144601993Y-109247388D01*
X144840860Y-109181863D01*
X144956760Y-108934884D01*
X145022250Y-108670040D01*
X145034812Y-108397508D01*
X144993965Y-108127762D01*
X144901277Y-107871168D01*
X144840860Y-107758137D01*
X144601993Y-107692612D01*
X143824605Y-108470000D01*
X143465395Y-108470000D01*
X142688007Y-107692612D01*
X142449140Y-107758137D01*
X142333240Y-108005116D01*
X142267750Y-108269960D01*
X142255188Y-108542492D01*
X142296035Y-108812238D01*
X142388723Y-109068832D01*
X142449140Y-109181863D01*
X142688005Y-109247387D01*
X142583485Y-109351907D01*
X140744585Y-107513007D01*
X142867612Y-107513007D01*
X143645000Y-108290395D01*
X144422388Y-107513007D01*
X144356863Y-107274140D01*
X144109884Y-107158240D01*
X143845040Y-107092750D01*
X143572508Y-107080188D01*
X143302762Y-107121035D01*
X143046168Y-107213723D01*
X142933137Y-107274140D01*
X142867612Y-107513007D01*
X140744585Y-107513007D01*
X129921578Y-96690000D01*
X142386928Y-96690000D01*
X142399188Y-96814482D01*
X142435498Y-96934180D01*
X142494463Y-97044494D01*
X142573815Y-97141185D01*
X142670506Y-97220537D01*
X142780820Y-97279502D01*
X142900518Y-97315812D01*
X143025000Y-97328072D01*
X143236750Y-97325000D01*
X143395500Y-97166250D01*
X143395500Y-96317000D01*
X142548750Y-96317000D01*
X142390000Y-96475750D01*
X142386928Y-96690000D01*
X129921578Y-96690000D01*
X128010539Y-94778961D01*
X128012321Y-94770000D01*
X139756928Y-94770000D01*
X139769188Y-94894482D01*
X139805498Y-95014180D01*
X139864463Y-95124494D01*
X139943815Y-95221185D01*
X140040506Y-95300537D01*
X140150820Y-95359502D01*
X140270518Y-95395812D01*
X140395000Y-95408072D01*
X140606750Y-95405000D01*
X140765500Y-95246250D01*
X140765500Y-94397000D01*
X139918750Y-94397000D01*
X139760000Y-94555750D01*
X139756928Y-94770000D01*
X128012321Y-94770000D01*
X128025000Y-94706260D01*
X128025000Y-94413740D01*
X127967932Y-94126842D01*
X127855990Y-93856589D01*
X127693475Y-93613368D01*
X127486632Y-93406525D01*
X127312240Y-93290000D01*
X127486632Y-93173475D01*
X127693475Y-92966632D01*
X127855990Y-92723411D01*
X127967932Y-92453158D01*
X128025000Y-92166260D01*
X128025000Y-92074999D01*
X140051929Y-92074999D01*
X140055001Y-92289249D01*
X140213751Y-92447999D01*
X141060501Y-92447999D01*
X141060501Y-91598749D01*
X140901751Y-91439999D01*
X140690001Y-91436927D01*
X140565519Y-91449187D01*
X140445821Y-91485497D01*
X140335507Y-91544462D01*
X140238816Y-91623814D01*
X140159464Y-91720505D01*
X140100499Y-91830819D01*
X140064189Y-91950517D01*
X140051929Y-92074999D01*
X128025000Y-92074999D01*
X128025000Y-91873740D01*
X128010539Y-91801040D01*
X128651579Y-91160000D01*
X145983060Y-91160000D01*
X145879744Y-91202795D01*
G37*
X145879744Y-91202795D02*
X145831546Y-91235000D01*
X143460969Y-91235000D01*
X143417500Y-91230719D01*
X143374031Y-91235000D01*
X143374023Y-91235000D01*
X143244010Y-91247805D01*
X143077187Y-91298411D01*
X142923441Y-91380589D01*
X142854794Y-91436927D01*
X142465001Y-91436927D01*
X142340519Y-91449187D01*
X142220821Y-91485497D01*
X142110507Y-91544462D01*
X142075001Y-91573601D01*
X142039495Y-91544462D01*
X141929181Y-91485497D01*
X141809483Y-91449187D01*
X141685001Y-91436927D01*
X141473251Y-91439999D01*
X141314501Y-91598749D01*
X141314501Y-92447999D01*
X141334501Y-92447999D01*
X141334501Y-92701999D01*
X141314501Y-92701999D01*
X141314501Y-92721999D01*
X141060501Y-92721999D01*
X141060501Y-92701999D01*
X140213751Y-92701999D01*
X140055001Y-92860749D01*
X140051929Y-93074999D01*
X140064189Y-93199481D01*
X140071321Y-93222992D01*
X140040506Y-93239463D01*
X139943815Y-93318815D01*
X139864463Y-93415506D01*
X139805498Y-93525820D01*
X139769188Y-93645518D01*
X139756928Y-93770000D01*
X139760000Y-93984250D01*
X139918750Y-94143000D01*
X140765500Y-94143000D01*
X140765500Y-94123000D01*
X141019500Y-94123000D01*
X141019500Y-94143000D01*
X141039500Y-94143000D01*
X141039500Y-94397000D01*
X141019500Y-94397000D01*
X141019500Y-95246250D01*
X141178250Y-95405000D01*
X141390000Y-95408072D01*
X141514482Y-95395812D01*
X141634180Y-95359502D01*
X141744494Y-95300537D01*
X141780000Y-95271398D01*
X141815506Y-95300537D01*
X141925820Y-95359502D01*
X142045518Y-95395812D01*
X142170000Y-95408072D01*
X142455675Y-95408072D01*
X142435498Y-95445820D01*
X142399188Y-95565518D01*
X142386928Y-95690000D01*
X142390000Y-95904250D01*
X142548750Y-96063000D01*
X143395500Y-96063000D01*
X143395500Y-96043000D01*
X143649500Y-96043000D01*
X143649500Y-96063000D01*
X143669500Y-96063000D01*
X143669500Y-96317000D01*
X143649500Y-96317000D01*
X143649500Y-97166250D01*
X143808250Y-97325000D01*
X144020000Y-97328072D01*
X144144482Y-97315812D01*
X144264180Y-97279502D01*
X144374494Y-97220537D01*
X144410000Y-97191398D01*
X144445506Y-97220537D01*
X144555820Y-97279502D01*
X144675518Y-97315812D01*
X144800000Y-97328072D01*
X145795000Y-97328072D01*
X145919482Y-97315812D01*
X146039180Y-97279502D01*
X146149494Y-97220537D01*
X146246185Y-97141185D01*
X146325537Y-97044494D01*
X146384502Y-96934180D01*
X146420812Y-96814482D01*
X146422731Y-96795000D01*
X146507713Y-96795000D01*
X146510498Y-96804180D01*
X146569463Y-96914494D01*
X146648815Y-97011185D01*
X146745506Y-97090537D01*
X146855820Y-97149502D01*
X146975518Y-97185812D01*
X147100000Y-97198072D01*
X147920000Y-97198072D01*
X148044482Y-97185812D01*
X148164180Y-97149502D01*
X148274494Y-97090537D01*
X148310000Y-97061398D01*
X148345506Y-97090537D01*
X148455820Y-97149502D01*
X148575518Y-97185812D01*
X148700000Y-97198072D01*
X149520000Y-97198072D01*
X149625000Y-97187731D01*
X149625001Y-98655000D01*
X146808454Y-98655000D01*
X146760256Y-98622795D01*
X146571898Y-98544774D01*
X146371939Y-98505000D01*
X146168061Y-98505000D01*
X145968102Y-98544774D01*
X145779744Y-98622795D01*
X145610226Y-98736063D01*
X145466063Y-98880226D01*
X145352795Y-99049744D01*
X145274774Y-99238102D01*
X145235000Y-99438061D01*
X145235000Y-99641939D01*
X145236973Y-99651860D01*
X145101939Y-99625000D01*
X144898061Y-99625000D01*
X144698102Y-99664774D01*
X144509744Y-99742795D01*
X144340226Y-99856063D01*
X144196063Y-100000226D01*
X144082795Y-100169744D01*
X144004774Y-100358102D01*
X143965000Y-100558061D01*
X143965000Y-100761939D01*
X144004774Y-100961898D01*
X144082795Y-101150256D01*
X144115000Y-101198455D01*
X144115000Y-101626530D01*
X144110719Y-101670000D01*
X144115000Y-101713469D01*
X144115000Y-101713476D01*
X144125798Y-101823110D01*
X144127431Y-101839687D01*
X144127805Y-101843489D01*
X144178411Y-102010312D01*
X144260589Y-102164058D01*
X144371183Y-102298817D01*
X144404956Y-102326534D01*
X145553470Y-103475049D01*
X145581183Y-103508817D01*
X145614951Y-103536530D01*
X145614953Y-103536532D01*
X145651500Y-103566525D01*
X145715941Y-103619411D01*
X145869687Y-103701589D01*
X146036510Y-103752195D01*
X146166523Y-103765000D01*
X146166533Y-103765000D01*
X146187544Y-103767069D01*
X146131247Y-103851324D01*
X146034381Y-104085179D01*
X145985000Y-104333439D01*
X145985000Y-104586561D01*
X146034381Y-104834821D01*
X146131247Y-105068676D01*
X146271875Y-105279140D01*
X146450860Y-105458125D01*
X146661324Y-105598753D01*
X146895179Y-105695619D01*
X147143439Y-105745000D01*
X147396561Y-105745000D01*
X147644821Y-105695619D01*
X147878676Y-105598753D01*
X148089140Y-105458125D01*
X148268125Y-105279140D01*
X148408753Y-105068676D01*
X148505619Y-104834821D01*
X148540000Y-104661973D01*
X148574381Y-104834821D01*
X148671247Y-105068676D01*
X148811875Y-105279140D01*
X148990860Y-105458125D01*
X149050001Y-105497642D01*
X149050001Y-105692667D01*
X149046324Y-105730000D01*
X149050001Y-105767333D01*
X149055447Y-105822630D01*
X148914821Y-105764381D01*
X148666561Y-105715000D01*
X148413439Y-105715000D01*
X148165179Y-105764381D01*
X147931324Y-105861247D01*
X147720860Y-106001875D01*
X147541875Y-106180860D01*
X147401247Y-106391324D01*
X147304381Y-106625179D01*
X147270000Y-106798027D01*
X147235619Y-106625179D01*
X147138753Y-106391324D01*
X146998125Y-106180860D01*
X146819140Y-106001875D01*
X146608676Y-105861247D01*
X146374821Y-105764381D01*
X146126561Y-105715000D01*
X145873439Y-105715000D01*
X145625179Y-105764381D01*
X145391324Y-105861247D01*
X145180860Y-106001875D01*
X145001875Y-106180860D01*
X144861247Y-106391324D01*
X144764381Y-106625179D01*
X144715000Y-106873439D01*
X144715000Y-107126561D01*
X144764381Y-107374821D01*
X144861247Y-107608676D01*
X145001875Y-107819140D01*
X145180860Y-107998125D01*
X145391324Y-108138753D01*
X145625179Y-108235619D01*
X145873439Y-108285000D01*
X146126561Y-108285000D01*
X146374821Y-108235619D01*
X146608676Y-108138753D01*
X146819140Y-107998125D01*
X146998125Y-107819140D01*
X147138753Y-107608676D01*
X147235619Y-107374821D01*
X147270000Y-107201973D01*
X147304381Y-107374821D01*
X147401247Y-107608676D01*
X147541875Y-107819140D01*
X147720860Y-107998125D01*
X147931324Y-108138753D01*
X148165179Y-108235619D01*
X148413439Y-108285000D01*
X148666561Y-108285000D01*
X148914821Y-108235619D01*
X149148676Y-108138753D01*
X149359140Y-107998125D01*
X149538125Y-107819140D01*
X149678753Y-107608676D01*
X149775619Y-107374821D01*
X149810000Y-107201973D01*
X149844381Y-107374821D01*
X149941247Y-107608676D01*
X150081875Y-107819140D01*
X150260860Y-107998125D01*
X150320001Y-108037642D01*
X150320001Y-108542668D01*
X150316324Y-108580000D01*
X150320001Y-108617333D01*
X150330998Y-108728986D01*
X150343781Y-108771127D01*
X150374454Y-108872246D01*
X150445026Y-109004276D01*
X150516201Y-109091002D01*
X150540000Y-109120001D01*
X150568998Y-109143799D01*
X150936196Y-109510997D01*
X150959999Y-109540001D01*
X151075724Y-109634974D01*
X151207753Y-109705546D01*
X151351014Y-109749003D01*
X151462667Y-109760000D01*
X151462675Y-109760000D01*
X151500000Y-109763676D01*
X151537325Y-109760000D01*
X153769676Y-109760000D01*
X153806998Y-109763676D01*
X153844320Y-109760000D01*
X153844331Y-109760000D01*
X153955984Y-109749003D01*
X154099245Y-109705546D01*
X154231274Y-109634974D01*
X154284457Y-109591328D01*
X154417206Y-109790000D01*
X144067424Y-109790000D01*
X144243832Y-109726277D01*
X144356863Y-109665860D01*
X144422388Y-109426993D01*
X143645000Y-108649605D01*
X143630858Y-108663748D01*
X143451253Y-108484143D01*
X143465395Y-108470000D01*
X143824605Y-108470000D01*
X144601993Y-109247388D01*
X144840860Y-109181863D01*
X144956760Y-108934884D01*
X145022250Y-108670040D01*
X145034812Y-108397508D01*
X144993965Y-108127762D01*
X144901277Y-107871168D01*
X144840860Y-107758137D01*
X144601993Y-107692612D01*
X143824605Y-108470000D01*
X143465395Y-108470000D01*
X142688007Y-107692612D01*
X142449140Y-107758137D01*
X142333240Y-108005116D01*
X142267750Y-108269960D01*
X142255188Y-108542492D01*
X142296035Y-108812238D01*
X142388723Y-109068832D01*
X142449140Y-109181863D01*
X142688005Y-109247387D01*
X142583485Y-109351907D01*
X140744585Y-107513007D01*
X142867612Y-107513007D01*
X143645000Y-108290395D01*
X144422388Y-107513007D01*
X144356863Y-107274140D01*
X144109884Y-107158240D01*
X143845040Y-107092750D01*
X143572508Y-107080188D01*
X143302762Y-107121035D01*
X143046168Y-107213723D01*
X142933137Y-107274140D01*
X142867612Y-107513007D01*
X140744585Y-107513007D01*
X129921578Y-96690000D01*
X142386928Y-96690000D01*
X142399188Y-96814482D01*
X142435498Y-96934180D01*
X142494463Y-97044494D01*
X142573815Y-97141185D01*
X142670506Y-97220537D01*
X142780820Y-97279502D01*
X142900518Y-97315812D01*
X143025000Y-97328072D01*
X143236750Y-97325000D01*
X143395500Y-97166250D01*
X143395500Y-96317000D01*
X142548750Y-96317000D01*
X142390000Y-96475750D01*
X142386928Y-96690000D01*
X129921578Y-96690000D01*
X128010539Y-94778961D01*
X128012321Y-94770000D01*
X139756928Y-94770000D01*
X139769188Y-94894482D01*
X139805498Y-95014180D01*
X139864463Y-95124494D01*
X139943815Y-95221185D01*
X140040506Y-95300537D01*
X140150820Y-95359502D01*
X140270518Y-95395812D01*
X140395000Y-95408072D01*
X140606750Y-95405000D01*
X140765500Y-95246250D01*
X140765500Y-94397000D01*
X139918750Y-94397000D01*
X139760000Y-94555750D01*
X139756928Y-94770000D01*
X128012321Y-94770000D01*
X128025000Y-94706260D01*
X128025000Y-94413740D01*
X127967932Y-94126842D01*
X127855990Y-93856589D01*
X127693475Y-93613368D01*
X127486632Y-93406525D01*
X127312240Y-93290000D01*
X127486632Y-93173475D01*
X127693475Y-92966632D01*
X127855990Y-92723411D01*
X127967932Y-92453158D01*
X128025000Y-92166260D01*
X128025000Y-92074999D01*
X140051929Y-92074999D01*
X140055001Y-92289249D01*
X140213751Y-92447999D01*
X141060501Y-92447999D01*
X141060501Y-91598749D01*
X140901751Y-91439999D01*
X140690001Y-91436927D01*
X140565519Y-91449187D01*
X140445821Y-91485497D01*
X140335507Y-91544462D01*
X140238816Y-91623814D01*
X140159464Y-91720505D01*
X140100499Y-91830819D01*
X140064189Y-91950517D01*
X140051929Y-92074999D01*
X128025000Y-92074999D01*
X128025000Y-91873740D01*
X128010539Y-91801040D01*
X128651579Y-91160000D01*
X145983060Y-91160000D01*
X145879744Y-91202795D01*
G36*
X164103471Y-99655050D02*
G01*
X164131184Y-99688818D01*
X164164952Y-99716531D01*
X164164954Y-99716533D01*
X164205352Y-99749687D01*
X164265942Y-99799412D01*
X164419688Y-99881590D01*
X164586511Y-99932196D01*
X164716524Y-99945001D01*
X164716534Y-99945001D01*
X164760000Y-99949282D01*
X164803466Y-99945001D01*
X168997447Y-99945001D01*
X168945000Y-100208665D01*
X168945000Y-100491335D01*
X168951983Y-100526438D01*
X164019069Y-105459353D01*
X164010812Y-105375518D01*
X163974502Y-105255820D01*
X163915537Y-105145506D01*
X163836185Y-105048815D01*
X163739494Y-104969463D01*
X163629180Y-104910498D01*
X163509482Y-104874188D01*
X163385000Y-104861928D01*
X163173250Y-104865000D01*
X163014500Y-105023750D01*
X163014500Y-105873000D01*
X163034500Y-105873000D01*
X163034500Y-106127000D01*
X163014500Y-106127000D01*
X163014500Y-106147000D01*
X162760500Y-106147000D01*
X162760500Y-106127000D01*
X162740500Y-106127000D01*
X162740500Y-105873000D01*
X162760500Y-105873000D01*
X162760500Y-105023750D01*
X162601750Y-104865000D01*
X162390000Y-104861928D01*
X162265518Y-104874188D01*
X162145820Y-104910498D01*
X162035506Y-104969463D01*
X162000000Y-104998602D01*
X161964494Y-104969463D01*
X161854180Y-104910498D01*
X161734482Y-104874188D01*
X161610000Y-104861928D01*
X160615000Y-104861928D01*
X160490518Y-104874188D01*
X160370820Y-104910498D01*
X160348072Y-104922657D01*
X160348072Y-104500000D01*
X160335812Y-104375518D01*
X160299502Y-104255820D01*
X160240537Y-104145506D01*
X160161185Y-104048815D01*
X160064494Y-103969463D01*
X159954180Y-103910498D01*
X159834482Y-103874188D01*
X159710000Y-103861928D01*
X158890000Y-103861928D01*
X158765518Y-103874188D01*
X158645820Y-103910498D01*
X158535506Y-103969463D01*
X158500000Y-103998602D01*
X158464494Y-103969463D01*
X158354180Y-103910498D01*
X158234482Y-103874188D01*
X158110000Y-103861928D01*
X157290000Y-103861928D01*
X157165518Y-103874188D01*
X157045820Y-103910498D01*
X156935506Y-103969463D01*
X156838815Y-104048815D01*
X156759463Y-104145506D01*
X156708954Y-104240000D01*
X156156414Y-104240000D01*
X156125619Y-104085179D01*
X156028753Y-103851324D01*
X155888125Y-103640860D01*
X155709140Y-103461875D01*
X155498676Y-103321247D01*
X155264821Y-103224381D01*
X155016561Y-103175000D01*
X154763439Y-103175000D01*
X154515179Y-103224381D01*
X154281324Y-103321247D01*
X154070860Y-103461875D01*
X153891875Y-103640860D01*
X153751247Y-103851324D01*
X153654381Y-104085179D01*
X153620000Y-104258027D01*
X153585619Y-104085179D01*
X153488753Y-103851324D01*
X153348125Y-103640860D01*
X153179239Y-103471974D01*
X153247205Y-103370256D01*
X153325226Y-103181898D01*
X153365000Y-102981939D01*
X153365000Y-102778061D01*
X153325226Y-102578102D01*
X153247205Y-102389744D01*
X153133937Y-102220226D01*
X152989774Y-102076063D01*
X152820256Y-101962795D01*
X152631898Y-101884774D01*
X152431939Y-101845000D01*
X152228061Y-101845000D01*
X152028102Y-101884774D01*
X151839744Y-101962795D01*
X151791546Y-101995000D01*
X151578251Y-101995000D01*
X151609774Y-101973937D01*
X151753937Y-101829774D01*
X151867205Y-101660256D01*
X151945226Y-101471898D01*
X151985000Y-101271939D01*
X151985000Y-101068061D01*
X151966489Y-100975000D01*
X153511546Y-100975000D01*
X153559744Y-101007205D01*
X153748102Y-101085226D01*
X153948061Y-101125000D01*
X154151939Y-101125000D01*
X154351898Y-101085226D01*
X154540256Y-101007205D01*
X154709774Y-100893937D01*
X154853937Y-100749774D01*
X154967205Y-100580256D01*
X155045226Y-100391898D01*
X155085000Y-100191939D01*
X155085000Y-99988061D01*
X155045226Y-99788102D01*
X154967205Y-99599744D01*
X154853937Y-99430226D01*
X154709774Y-99286063D01*
X154540256Y-99172795D01*
X154351898Y-99094774D01*
X154151939Y-99055000D01*
X153948061Y-99055000D01*
X153748102Y-99094774D01*
X153559744Y-99172795D01*
X153511546Y-99205000D01*
X151398788Y-99205000D01*
X151395000Y-99166535D01*
X151395000Y-96786579D01*
X151623465Y-97015044D01*
X151634774Y-97071898D01*
X151712795Y-97260256D01*
X151826063Y-97429774D01*
X151970226Y-97573937D01*
X152139744Y-97687205D01*
X152328102Y-97765226D01*
X152528061Y-97805000D01*
X152731939Y-97805000D01*
X152931898Y-97765226D01*
X153120256Y-97687205D01*
X153289774Y-97573937D01*
X153433937Y-97429774D01*
X153547205Y-97260256D01*
X153625226Y-97071898D01*
X153665000Y-96871939D01*
X153665000Y-96668061D01*
X153625226Y-96468102D01*
X153547205Y-96279744D01*
X153433937Y-96110226D01*
X153289774Y-95966063D01*
X153120256Y-95852795D01*
X152931898Y-95774774D01*
X152875044Y-95763465D01*
X151251578Y-94140000D01*
X158588422Y-94140000D01*
X164103471Y-99655050D01*
G37*
X164103471Y-99655050D02*
X164131184Y-99688818D01*
X164164952Y-99716531D01*
X164164954Y-99716533D01*
X164205352Y-99749687D01*
X164265942Y-99799412D01*
X164419688Y-99881590D01*
X164586511Y-99932196D01*
X164716524Y-99945001D01*
X164716534Y-99945001D01*
X164760000Y-99949282D01*
X164803466Y-99945001D01*
X168997447Y-99945001D01*
X168945000Y-100208665D01*
X168945000Y-100491335D01*
X168951983Y-100526438D01*
X164019069Y-105459353D01*
X164010812Y-105375518D01*
X163974502Y-105255820D01*
X163915537Y-105145506D01*
X163836185Y-105048815D01*
X163739494Y-104969463D01*
X163629180Y-104910498D01*
X163509482Y-104874188D01*
X163385000Y-104861928D01*
X163173250Y-104865000D01*
X163014500Y-105023750D01*
X163014500Y-105873000D01*
X163034500Y-105873000D01*
X163034500Y-106127000D01*
X163014500Y-106127000D01*
X163014500Y-106147000D01*
X162760500Y-106147000D01*
X162760500Y-106127000D01*
X162740500Y-106127000D01*
X162740500Y-105873000D01*
X162760500Y-105873000D01*
X162760500Y-105023750D01*
X162601750Y-104865000D01*
X162390000Y-104861928D01*
X162265518Y-104874188D01*
X162145820Y-104910498D01*
X162035506Y-104969463D01*
X162000000Y-104998602D01*
X161964494Y-104969463D01*
X161854180Y-104910498D01*
X161734482Y-104874188D01*
X161610000Y-104861928D01*
X160615000Y-104861928D01*
X160490518Y-104874188D01*
X160370820Y-104910498D01*
X160348072Y-104922657D01*
X160348072Y-104500000D01*
X160335812Y-104375518D01*
X160299502Y-104255820D01*
X160240537Y-104145506D01*
X160161185Y-104048815D01*
X160064494Y-103969463D01*
X159954180Y-103910498D01*
X159834482Y-103874188D01*
X159710000Y-103861928D01*
X158890000Y-103861928D01*
X158765518Y-103874188D01*
X158645820Y-103910498D01*
X158535506Y-103969463D01*
X158500000Y-103998602D01*
X158464494Y-103969463D01*
X158354180Y-103910498D01*
X158234482Y-103874188D01*
X158110000Y-103861928D01*
X157290000Y-103861928D01*
X157165518Y-103874188D01*
X157045820Y-103910498D01*
X156935506Y-103969463D01*
X156838815Y-104048815D01*
X156759463Y-104145506D01*
X156708954Y-104240000D01*
X156156414Y-104240000D01*
X156125619Y-104085179D01*
X156028753Y-103851324D01*
X155888125Y-103640860D01*
X155709140Y-103461875D01*
X155498676Y-103321247D01*
X155264821Y-103224381D01*
X155016561Y-103175000D01*
X154763439Y-103175000D01*
X154515179Y-103224381D01*
X154281324Y-103321247D01*
X154070860Y-103461875D01*
X153891875Y-103640860D01*
X153751247Y-103851324D01*
X153654381Y-104085179D01*
X153620000Y-104258027D01*
X153585619Y-104085179D01*
X153488753Y-103851324D01*
X153348125Y-103640860D01*
X153179239Y-103471974D01*
X153247205Y-103370256D01*
X153325226Y-103181898D01*
X153365000Y-102981939D01*
X153365000Y-102778061D01*
X153325226Y-102578102D01*
X153247205Y-102389744D01*
X153133937Y-102220226D01*
X152989774Y-102076063D01*
X152820256Y-101962795D01*
X152631898Y-101884774D01*
X152431939Y-101845000D01*
X152228061Y-101845000D01*
X152028102Y-101884774D01*
X151839744Y-101962795D01*
X151791546Y-101995000D01*
X151578251Y-101995000D01*
X151609774Y-101973937D01*
X151753937Y-101829774D01*
X151867205Y-101660256D01*
X151945226Y-101471898D01*
X151985000Y-101271939D01*
X151985000Y-101068061D01*
X151966489Y-100975000D01*
X153511546Y-100975000D01*
X153559744Y-101007205D01*
X153748102Y-101085226D01*
X153948061Y-101125000D01*
X154151939Y-101125000D01*
X154351898Y-101085226D01*
X154540256Y-101007205D01*
X154709774Y-100893937D01*
X154853937Y-100749774D01*
X154967205Y-100580256D01*
X155045226Y-100391898D01*
X155085000Y-100191939D01*
X155085000Y-99988061D01*
X155045226Y-99788102D01*
X154967205Y-99599744D01*
X154853937Y-99430226D01*
X154709774Y-99286063D01*
X154540256Y-99172795D01*
X154351898Y-99094774D01*
X154151939Y-99055000D01*
X153948061Y-99055000D01*
X153748102Y-99094774D01*
X153559744Y-99172795D01*
X153511546Y-99205000D01*
X151398788Y-99205000D01*
X151395000Y-99166535D01*
X151395000Y-96786579D01*
X151623465Y-97015044D01*
X151634774Y-97071898D01*
X151712795Y-97260256D01*
X151826063Y-97429774D01*
X151970226Y-97573937D01*
X152139744Y-97687205D01*
X152328102Y-97765226D01*
X152528061Y-97805000D01*
X152731939Y-97805000D01*
X152931898Y-97765226D01*
X153120256Y-97687205D01*
X153289774Y-97573937D01*
X153433937Y-97429774D01*
X153547205Y-97260256D01*
X153625226Y-97071898D01*
X153665000Y-96871939D01*
X153665000Y-96668061D01*
X153625226Y-96468102D01*
X153547205Y-96279744D01*
X153433937Y-96110226D01*
X153289774Y-95966063D01*
X153120256Y-95852795D01*
X152931898Y-95774774D01*
X152875044Y-95763465D01*
X151251578Y-94140000D01*
X158588422Y-94140000D01*
X164103471Y-99655050D01*
G36*
X168951983Y-95093561D02*
G01*
X168945000Y-95128665D01*
X168945000Y-95411335D01*
X169000147Y-95688574D01*
X169108320Y-95949727D01*
X169265363Y-96184759D01*
X169465241Y-96384637D01*
X169697759Y-96540000D01*
X169465241Y-96695363D01*
X169265363Y-96895241D01*
X169108320Y-97130273D01*
X169000147Y-97391426D01*
X168945000Y-97668665D01*
X168945000Y-97951335D01*
X168989491Y-98175001D01*
X167109089Y-98175001D01*
X167135227Y-98111898D01*
X167175001Y-97911939D01*
X167175001Y-97708061D01*
X167135227Y-97508102D01*
X167057206Y-97319744D01*
X166943938Y-97150226D01*
X166799775Y-97006063D01*
X166630257Y-96892795D01*
X166441899Y-96814774D01*
X166385045Y-96803465D01*
X159891568Y-90309989D01*
X164168411Y-90309989D01*
X168951983Y-95093561D01*
G37*
X168951983Y-95093561D02*
X168945000Y-95128665D01*
X168945000Y-95411335D01*
X169000147Y-95688574D01*
X169108320Y-95949727D01*
X169265363Y-96184759D01*
X169465241Y-96384637D01*
X169697759Y-96540000D01*
X169465241Y-96695363D01*
X169265363Y-96895241D01*
X169108320Y-97130273D01*
X169000147Y-97391426D01*
X168945000Y-97668665D01*
X168945000Y-97951335D01*
X168989491Y-98175001D01*
X167109089Y-98175001D01*
X167135227Y-98111898D01*
X167175001Y-97911939D01*
X167175001Y-97708061D01*
X167135227Y-97508102D01*
X167057206Y-97319744D01*
X166943938Y-97150226D01*
X166799775Y-97006063D01*
X166630257Y-96892795D01*
X166441899Y-96814774D01*
X166385045Y-96803465D01*
X159891568Y-90309989D01*
X164168411Y-90309989D01*
X168951983Y-95093561D01*
G36*
X165428421Y-86490000D02*
G01*
X162166579Y-86490000D01*
X160981535Y-85304957D01*
X160970226Y-85248102D01*
X160892205Y-85059744D01*
X160778937Y-84890226D01*
X160634774Y-84746063D01*
X160465256Y-84632795D01*
X160276898Y-84554774D01*
X160076939Y-84515000D01*
X159873061Y-84515000D01*
X159673102Y-84554774D01*
X159484744Y-84632795D01*
X159315226Y-84746063D01*
X159171063Y-84890226D01*
X159057795Y-85059744D01*
X158979774Y-85248102D01*
X158940000Y-85448061D01*
X158940000Y-85651939D01*
X158979774Y-85851898D01*
X159057795Y-86040256D01*
X159171063Y-86209774D01*
X159315226Y-86353937D01*
X159484744Y-86467205D01*
X159673102Y-86545226D01*
X159729957Y-86556535D01*
X161013399Y-87839978D01*
X153395000Y-87839978D01*
X153395000Y-87738061D01*
X153388073Y-87703236D01*
X153388073Y-86734999D01*
X153375813Y-86610517D01*
X153339503Y-86490819D01*
X153280538Y-86380505D01*
X153208114Y-86292256D01*
X153244502Y-86224180D01*
X153280812Y-86104482D01*
X153293072Y-85980000D01*
X153293072Y-84980000D01*
X153280812Y-84855518D01*
X153244502Y-84735820D01*
X153185537Y-84625506D01*
X153106185Y-84528815D01*
X153009494Y-84449463D01*
X152899180Y-84390498D01*
X152779482Y-84354188D01*
X152655000Y-84341928D01*
X151660000Y-84341928D01*
X151535518Y-84354188D01*
X151415820Y-84390498D01*
X151305506Y-84449463D01*
X151270000Y-84478602D01*
X151234494Y-84449463D01*
X151124180Y-84390498D01*
X151004482Y-84354188D01*
X150880000Y-84341928D01*
X150668250Y-84345000D01*
X150509500Y-84503750D01*
X150509500Y-85353000D01*
X150529500Y-85353000D01*
X150529500Y-85607000D01*
X150509500Y-85607000D01*
X150509500Y-86456250D01*
X150604501Y-86551251D01*
X150604501Y-87107999D01*
X150624501Y-87107999D01*
X150624501Y-87361999D01*
X150604501Y-87361999D01*
X150604501Y-87381999D01*
X150350501Y-87381999D01*
X150350501Y-87361999D01*
X149503751Y-87361999D01*
X149345001Y-87520749D01*
X149341929Y-87734999D01*
X149352268Y-87839978D01*
X128691557Y-87839978D01*
X128010539Y-87158960D01*
X128025000Y-87086260D01*
X128025000Y-86793740D01*
X127967932Y-86506842D01*
X127855990Y-86236589D01*
X127693475Y-85993368D01*
X127680107Y-85980000D01*
X149246928Y-85980000D01*
X149259188Y-86104482D01*
X149295498Y-86224180D01*
X149354463Y-86334494D01*
X149426887Y-86422743D01*
X149390499Y-86490819D01*
X149354189Y-86610517D01*
X149341929Y-86734999D01*
X149345001Y-86949249D01*
X149503751Y-87107999D01*
X150350501Y-87107999D01*
X150350501Y-86258749D01*
X150255500Y-86163748D01*
X150255500Y-85607000D01*
X149408750Y-85607000D01*
X149250000Y-85765750D01*
X149246928Y-85980000D01*
X127680107Y-85980000D01*
X127486632Y-85786525D01*
X127312240Y-85670000D01*
X127486632Y-85553475D01*
X127693475Y-85346632D01*
X127855990Y-85103411D01*
X127907108Y-84980000D01*
X149246928Y-84980000D01*
X149250000Y-85194250D01*
X149408750Y-85353000D01*
X150255500Y-85353000D01*
X150255500Y-84503750D01*
X150096750Y-84345000D01*
X149885000Y-84341928D01*
X149760518Y-84354188D01*
X149640820Y-84390498D01*
X149530506Y-84449463D01*
X149433815Y-84528815D01*
X149354463Y-84625506D01*
X149295498Y-84735820D01*
X149259188Y-84855518D01*
X149246928Y-84980000D01*
X127907108Y-84980000D01*
X127967932Y-84833158D01*
X128025000Y-84546260D01*
X128025000Y-84253740D01*
X128010539Y-84181039D01*
X129786579Y-82405000D01*
X161343422Y-82405000D01*
X165428421Y-86490000D01*
G37*
X165428421Y-86490000D02*
X162166579Y-86490000D01*
X160981535Y-85304957D01*
X160970226Y-85248102D01*
X160892205Y-85059744D01*
X160778937Y-84890226D01*
X160634774Y-84746063D01*
X160465256Y-84632795D01*
X160276898Y-84554774D01*
X160076939Y-84515000D01*
X159873061Y-84515000D01*
X159673102Y-84554774D01*
X159484744Y-84632795D01*
X159315226Y-84746063D01*
X159171063Y-84890226D01*
X159057795Y-85059744D01*
X158979774Y-85248102D01*
X158940000Y-85448061D01*
X158940000Y-85651939D01*
X158979774Y-85851898D01*
X159057795Y-86040256D01*
X159171063Y-86209774D01*
X159315226Y-86353937D01*
X159484744Y-86467205D01*
X159673102Y-86545226D01*
X159729957Y-86556535D01*
X161013399Y-87839978D01*
X153395000Y-87839978D01*
X153395000Y-87738061D01*
X153388073Y-87703236D01*
X153388073Y-86734999D01*
X153375813Y-86610517D01*
X153339503Y-86490819D01*
X153280538Y-86380505D01*
X153208114Y-86292256D01*
X153244502Y-86224180D01*
X153280812Y-86104482D01*
X153293072Y-85980000D01*
X153293072Y-84980000D01*
X153280812Y-84855518D01*
X153244502Y-84735820D01*
X153185537Y-84625506D01*
X153106185Y-84528815D01*
X153009494Y-84449463D01*
X152899180Y-84390498D01*
X152779482Y-84354188D01*
X152655000Y-84341928D01*
X151660000Y-84341928D01*
X151535518Y-84354188D01*
X151415820Y-84390498D01*
X151305506Y-84449463D01*
X151270000Y-84478602D01*
X151234494Y-84449463D01*
X151124180Y-84390498D01*
X151004482Y-84354188D01*
X150880000Y-84341928D01*
X150668250Y-84345000D01*
X150509500Y-84503750D01*
X150509500Y-85353000D01*
X150529500Y-85353000D01*
X150529500Y-85607000D01*
X150509500Y-85607000D01*
X150509500Y-86456250D01*
X150604501Y-86551251D01*
X150604501Y-87107999D01*
X150624501Y-87107999D01*
X150624501Y-87361999D01*
X150604501Y-87361999D01*
X150604501Y-87381999D01*
X150350501Y-87381999D01*
X150350501Y-87361999D01*
X149503751Y-87361999D01*
X149345001Y-87520749D01*
X149341929Y-87734999D01*
X149352268Y-87839978D01*
X128691557Y-87839978D01*
X128010539Y-87158960D01*
X128025000Y-87086260D01*
X128025000Y-86793740D01*
X127967932Y-86506842D01*
X127855990Y-86236589D01*
X127693475Y-85993368D01*
X127680107Y-85980000D01*
X149246928Y-85980000D01*
X149259188Y-86104482D01*
X149295498Y-86224180D01*
X149354463Y-86334494D01*
X149426887Y-86422743D01*
X149390499Y-86490819D01*
X149354189Y-86610517D01*
X149341929Y-86734999D01*
X149345001Y-86949249D01*
X149503751Y-87107999D01*
X150350501Y-87107999D01*
X150350501Y-86258749D01*
X150255500Y-86163748D01*
X150255500Y-85607000D01*
X149408750Y-85607000D01*
X149250000Y-85765750D01*
X149246928Y-85980000D01*
X127680107Y-85980000D01*
X127486632Y-85786525D01*
X127312240Y-85670000D01*
X127486632Y-85553475D01*
X127693475Y-85346632D01*
X127855990Y-85103411D01*
X127907108Y-84980000D01*
X149246928Y-84980000D01*
X149250000Y-85194250D01*
X149408750Y-85353000D01*
X150255500Y-85353000D01*
X150255500Y-84503750D01*
X150096750Y-84345000D01*
X149885000Y-84341928D01*
X149760518Y-84354188D01*
X149640820Y-84390498D01*
X149530506Y-84449463D01*
X149433815Y-84528815D01*
X149354463Y-84625506D01*
X149295498Y-84735820D01*
X149259188Y-84855518D01*
X149246928Y-84980000D01*
X127907108Y-84980000D01*
X127967932Y-84833158D01*
X128025000Y-84546260D01*
X128025000Y-84253740D01*
X128010539Y-84181039D01*
X129786579Y-82405000D01*
X161343422Y-82405000D01*
X165428421Y-86490000D01*
%TD*%
M02*
