%TF.GenerationSoftware,KiCad,Pcbnew,(5.1.6)-1*%
%TF.CreationDate,2020-08-15T20:42:22+02:00*%
%TF.ProjectId,teensypcbn,7465656e-7379-4706-9362-6e2e6b696361,rev?*%
%TF.SameCoordinates,Original*%
%TF.FileFunction,Soldermask,Bot*%
%TF.FilePolarity,Negative*%
%FSLAX46Y46*%
G04 Gerber Fmt 4.6, Leading zero omitted, Abs format (unit mm)*
G04 Created by KiCad (PCBNEW (5.1.6)-1) date 2020-08-15 20:42:22*
%MOMM*%
%LPD*%
G01*
G04 APERTURE LIST*
%ADD10R,1.095000X1.100000*%
%ADD11R,1.800000X1.800000*%
%ADD12O,1.800000X1.800000*%
%ADD13C,1.750000*%
%ADD14C,1.400000*%
%ADD15C,1.600000*%
%ADD16C,1.650000*%
%ADD17R,0.920000X1.100000*%
%ADD18C,1.700000*%
%ADD19R,1.700000X1.700000*%
%ADD20R,1.400000X1.400000*%
G04 APERTURE END LIST*
D10*
%TO.C,C1*%
X150382500Y-85480000D03*
X152157500Y-85480000D03*
%TD*%
%TO.C,C2*%
X152252501Y-87234999D03*
X150477501Y-87234999D03*
%TD*%
%TO.C,C3*%
X142667500Y-94270000D03*
X140892500Y-94270000D03*
%TD*%
%TO.C,C4*%
X141187501Y-92574999D03*
X142962501Y-92574999D03*
%TD*%
%TO.C,C5*%
X145297500Y-96190000D03*
X143522500Y-96190000D03*
%TD*%
%TO.C,C6*%
X162887500Y-106000000D03*
X161112500Y-106000000D03*
%TD*%
D11*
%TO.C,J1*%
X225000000Y-123000000D03*
D12*
X222460000Y-123000000D03*
X225000000Y-120460000D03*
X222460000Y-120460000D03*
X225000000Y-117920000D03*
X222460000Y-117920000D03*
X225000000Y-115380000D03*
X222460000Y-115380000D03*
X225000000Y-112840000D03*
X222460000Y-112840000D03*
X225000000Y-110300000D03*
X222460000Y-110300000D03*
X225000000Y-107760000D03*
X222460000Y-107760000D03*
X225000000Y-105220000D03*
X222460000Y-105220000D03*
X225000000Y-102680000D03*
X222460000Y-102680000D03*
X225000000Y-100140000D03*
X222460000Y-100140000D03*
X225000000Y-97600000D03*
X222460000Y-97600000D03*
X225000000Y-95060000D03*
X222460000Y-95060000D03*
X225000000Y-92520000D03*
X222460000Y-92520000D03*
X225000000Y-89980000D03*
X222460000Y-89980000D03*
X225000000Y-87440000D03*
X222460000Y-87440000D03*
X225000000Y-84900000D03*
X222460000Y-84900000D03*
X225000000Y-82360000D03*
X222460000Y-82360000D03*
X225000000Y-79820000D03*
X222460000Y-79820000D03*
X225000000Y-77280000D03*
X222460000Y-77280000D03*
X225000000Y-74740000D03*
X222460000Y-74740000D03*
X225000000Y-72200000D03*
X222460000Y-72200000D03*
X225000000Y-69660000D03*
X222460000Y-69660000D03*
X225000000Y-67120000D03*
X222460000Y-67120000D03*
X225000000Y-64580000D03*
X222460000Y-64580000D03*
X225000000Y-62040000D03*
X222460000Y-62040000D03*
X225000000Y-59500000D03*
X222460000Y-59500000D03*
%TD*%
%TO.C,J2*%
X126540000Y-122500000D03*
X124000000Y-122500000D03*
X126540000Y-119960000D03*
X124000000Y-119960000D03*
X126540000Y-117420000D03*
X124000000Y-117420000D03*
X126540000Y-114880000D03*
X124000000Y-114880000D03*
X126540000Y-112340000D03*
X124000000Y-112340000D03*
X126540000Y-109800000D03*
X124000000Y-109800000D03*
X126540000Y-107260000D03*
X124000000Y-107260000D03*
X126540000Y-104720000D03*
X124000000Y-104720000D03*
X126540000Y-102180000D03*
X124000000Y-102180000D03*
X126540000Y-99640000D03*
X124000000Y-99640000D03*
X126540000Y-97100000D03*
X124000000Y-97100000D03*
X126540000Y-94560000D03*
X124000000Y-94560000D03*
X126540000Y-92020000D03*
X124000000Y-92020000D03*
X126540000Y-89480000D03*
X124000000Y-89480000D03*
X126540000Y-86940000D03*
X124000000Y-86940000D03*
X126540000Y-84400000D03*
X124000000Y-84400000D03*
X126540000Y-81860000D03*
X124000000Y-81860000D03*
X126540000Y-79320000D03*
X124000000Y-79320000D03*
X126540000Y-76780000D03*
X124000000Y-76780000D03*
X126540000Y-74240000D03*
X124000000Y-74240000D03*
X126540000Y-71700000D03*
X124000000Y-71700000D03*
X126540000Y-69160000D03*
X124000000Y-69160000D03*
X126540000Y-66620000D03*
X124000000Y-66620000D03*
X126540000Y-64080000D03*
X124000000Y-64080000D03*
X126540000Y-61540000D03*
X124000000Y-61540000D03*
X126540000Y-59000000D03*
D11*
X124000000Y-59000000D03*
%TD*%
D13*
%TO.C,J3*%
X201550000Y-117700000D03*
X206450000Y-117700000D03*
%TD*%
D14*
%TO.C,J4*%
X146000000Y-107000000D03*
X147270000Y-104460000D03*
X148540000Y-107000000D03*
X149810000Y-104460000D03*
X151080000Y-107000000D03*
X152350000Y-104460000D03*
X153620000Y-107000000D03*
X154890000Y-104460000D03*
D15*
X143645000Y-108470000D03*
D16*
X155525000Y-108910000D03*
X145365000Y-117800000D03*
%TD*%
D17*
%TO.C,R1*%
X147510000Y-96060000D03*
X149110000Y-96060000D03*
%TD*%
%TO.C,R2*%
X148940000Y-94320000D03*
X147340000Y-94320000D03*
%TD*%
%TO.C,R3*%
X159300000Y-106500000D03*
X157700000Y-106500000D03*
%TD*%
%TO.C,R4*%
X157700000Y-105000000D03*
X159300000Y-105000000D03*
%TD*%
D18*
%TO.C,U1*%
X172920000Y-120670000D03*
X182569200Y-106750800D03*
X182569200Y-109290800D03*
X182569200Y-111830800D03*
X182569200Y-114370800D03*
D19*
X182569200Y-116910800D03*
D18*
X170380000Y-123210000D03*
X170380000Y-120670000D03*
X170380000Y-118130000D03*
X170380000Y-115590000D03*
X170380000Y-113050000D03*
X170380000Y-110510000D03*
X170380000Y-107970000D03*
X170380000Y-105430000D03*
X170380000Y-102890000D03*
X170380000Y-100350000D03*
X170380000Y-97810000D03*
X170380000Y-95270000D03*
X170380000Y-92730000D03*
X170380000Y-90190000D03*
D19*
X185620000Y-123210000D03*
D18*
X185620000Y-120670000D03*
X185620000Y-118130000D03*
X185620000Y-115590000D03*
X185620000Y-113050000D03*
X185620000Y-110510000D03*
X185620000Y-107970000D03*
X185620000Y-105430000D03*
X185620000Y-102890000D03*
X185620000Y-100350000D03*
X185620000Y-97810000D03*
X185620000Y-95270000D03*
X185620000Y-92730000D03*
X170380000Y-87650000D03*
X170380000Y-85110000D03*
X170380000Y-82570000D03*
X170380000Y-80030000D03*
X170380000Y-77490000D03*
X170380000Y-74950000D03*
X170380000Y-72410000D03*
X170380000Y-69870000D03*
X170380000Y-67330000D03*
X170380000Y-64790000D03*
X185620000Y-64790000D03*
X185620000Y-67330000D03*
X185620000Y-69870000D03*
X185620000Y-72410000D03*
X185620000Y-90190000D03*
X185620000Y-87650000D03*
X185620000Y-85110000D03*
X185620000Y-74950000D03*
X185620000Y-77490000D03*
X185620000Y-80030000D03*
X185620000Y-82570000D03*
D20*
X172818400Y-110240000D03*
D14*
X172818400Y-108240000D03*
X174818400Y-110240000D03*
X174818400Y-108240000D03*
X176818400Y-108240000D03*
X176818400Y-110240000D03*
D18*
X183080000Y-77490000D03*
X180540000Y-77490000D03*
X178000000Y-77490000D03*
X175460000Y-77490000D03*
X172920000Y-77490000D03*
D14*
X179270000Y-122480000D03*
X176730000Y-122480000D03*
%TD*%
M02*
