M48
; DRILL file {KiCad (5.1.6)-1} date 08/15/20 20:42:26
; FORMAT={-:-/ absolute / inch / decimal}
; #@! TF.CreationDate,2020-08-15T20:42:26+02:00
; #@! TF.GenerationSoftware,Kicad,Pcbnew,(5.1.6)-1
; #@! TF.FileFunction,Plated,1,2,PTH
FMAT,2
INCH
T1C0.0157
T2C0.0315
T3C0.0394
T4C0.0433
%
G90
G05
T1
X5.3441Y-4.7197
X5.438Y-3.6053
X5.7087Y-3.963
X5.7108Y-3.6715
X5.7402Y-3.4026
X5.7563Y-3.9669
X5.7587Y-3.9189
X5.7626Y-3.6268
X5.8028Y-4.0004
X5.9429Y-3.9831
X5.9972Y-4.0504
X5.9984Y-3.4583
X6.0091Y-3.8098
X6.065Y-3.9406
X6.2982Y-3.1594
X6.2982Y-3.3681
X6.3553Y-3.9144
X6.3888Y-3.3376
X6.5409Y-3.8508
X6.5689Y-3.3159
X6.6201Y-3.7835
X6.8661Y-3.8484
X6.9173Y-3.998
X7.065Y-4.0256
X7.1587Y-2.8752
X7.1646Y-3.224
X7.2736Y-2.3744
X7.5787Y-4.3504
X8.3853Y-4.5281
X8.5475Y-4.852
T2
X6.8039Y-4.2614
X6.8039Y-4.3402
X6.8826Y-4.2614
X6.8826Y-4.3402
X6.9579Y-4.822
X6.9614Y-4.2614
X6.9614Y-4.3402
X7.0579Y-4.822
X5.748Y-4.2126
X5.798Y-4.1126
X5.848Y-4.2126
X5.898Y-4.1126
X5.948Y-4.2126
X5.998Y-4.1126
X6.048Y-4.2126
X6.098Y-4.1126
T3
X8.7583Y-2.3425
X8.7583Y-2.4425
X8.7583Y-2.5425
X8.7583Y-2.6425
X8.7583Y-2.7425
X8.7583Y-2.8425
X8.7583Y-2.9425
X8.7583Y-3.0425
X8.7583Y-3.1425
X8.7583Y-3.2425
X8.7583Y-3.3425
X8.7583Y-3.4425
X8.7583Y-3.5425
X8.7583Y-3.6425
X8.7583Y-3.7425
X8.7583Y-3.8425
X8.7583Y-3.9425
X8.7583Y-4.0425
X8.7583Y-4.1425
X8.7583Y-4.2425
X8.7583Y-4.3425
X8.7583Y-4.4425
X8.7583Y-4.5425
X8.7583Y-4.6425
X8.7583Y-4.7425
X8.7583Y-4.8425
X8.8583Y-2.3425
X8.8583Y-2.4425
X8.8583Y-2.5425
X8.8583Y-2.6425
X8.8583Y-2.7425
X8.8583Y-2.8425
X8.8583Y-2.9425
X8.8583Y-3.0425
X8.8583Y-3.1425
X8.8583Y-3.2425
X8.8583Y-3.3425
X8.8583Y-3.4425
X8.8583Y-3.5425
X8.8583Y-3.6425
X8.8583Y-3.7425
X8.8583Y-3.8425
X8.8583Y-3.9425
X8.8583Y-4.0425
X8.8583Y-4.1425
X8.8583Y-4.2425
X8.8583Y-4.3425
X8.8583Y-4.4425
X8.8583Y-4.5425
X8.8583Y-4.6425
X8.8583Y-4.7425
X8.8583Y-4.8425
X5.6553Y-4.2705
X4.8819Y-2.3228
X4.8819Y-2.4228
X4.8819Y-2.5228
X4.8819Y-2.6228
X4.8819Y-2.7228
X4.8819Y-2.8228
X4.8819Y-2.9228
X4.8819Y-3.0228
X4.8819Y-3.1228
X4.8819Y-3.2228
X4.8819Y-3.3228
X4.8819Y-3.4228
X4.8819Y-3.5228
X4.8819Y-3.6228
X4.8819Y-3.7228
X4.8819Y-3.8228
X4.8819Y-3.9228
X4.8819Y-4.0228
X4.8819Y-4.1228
X4.8819Y-4.2228
X4.8819Y-4.3228
X4.8819Y-4.4228
X4.8819Y-4.5228
X4.8819Y-4.6228
X4.8819Y-4.7228
X4.8819Y-4.8228
X4.9819Y-2.3228
X4.9819Y-2.4228
X4.9819Y-2.5228
X4.9819Y-2.6228
X4.9819Y-2.7228
X4.9819Y-2.8228
X4.9819Y-2.9228
X4.9819Y-3.0228
X4.9819Y-3.1228
X4.9819Y-3.2228
X4.9819Y-3.3228
X4.9819Y-3.4228
X4.9819Y-3.5228
X4.9819Y-3.6228
X4.9819Y-3.7228
X4.9819Y-3.8228
X4.9819Y-3.9228
X4.9819Y-4.0228
X4.9819Y-4.1228
X4.9819Y-4.2228
X4.9819Y-4.3228
X4.9819Y-4.4228
X4.9819Y-4.5228
X4.9819Y-4.6228
X4.9819Y-4.7228
X4.9819Y-4.8228
T4
X6.7079Y-2.5508
X6.7079Y-2.6508
X6.7079Y-2.7508
X6.7079Y-2.8508
X6.7079Y-2.9508
X6.7079Y-3.0508
X6.7079Y-3.1508
X6.7079Y-3.2508
X6.7079Y-3.3508
X6.7079Y-3.4508
X6.7079Y-3.5508
X6.7079Y-3.6508
X6.7079Y-3.7508
X6.7079Y-3.8508
X6.7079Y-3.9508
X6.7079Y-4.0508
X6.7079Y-4.1508
X6.7079Y-4.2508
X6.7079Y-4.3508
X6.7079Y-4.4508
X6.7079Y-4.5508
X6.7079Y-4.6508
X6.7079Y-4.7508
X6.7079Y-4.8508
X6.8079Y-3.0508
X6.8079Y-4.7508
X6.9079Y-3.0508
X7.0079Y-3.0508
X7.1079Y-3.0508
X7.1878Y-4.2028
X7.1878Y-4.3028
X7.1878Y-4.4028
X7.1878Y-4.5028
X7.1878Y-4.6028
X7.2079Y-3.0508
X7.3079Y-2.5508
X7.3079Y-2.6508
X7.3079Y-2.7508
X7.3079Y-2.8508
X7.3079Y-2.9508
X7.3079Y-3.0508
X7.3079Y-3.1508
X7.3079Y-3.2508
X7.3079Y-3.3508
X7.3079Y-3.4508
X7.3079Y-3.5508
X7.3079Y-3.6508
X7.3079Y-3.7508
X7.3079Y-3.8508
X7.3079Y-3.9508
X7.3079Y-4.0508
X7.3079Y-4.1508
X7.3079Y-4.2508
X7.3079Y-4.3508
X7.3079Y-4.4508
X7.3079Y-4.5508
X7.3079Y-4.6508
X7.3079Y-4.7508
X7.3079Y-4.8508
T0
M30
