%TF.GenerationSoftware,KiCad,Pcbnew,(5.1.6)-1*%
%TF.CreationDate,2020-08-15T20:42:22+02:00*%
%TF.ProjectId,teensypcbn,7465656e-7379-4706-9362-6e2e6b696361,rev?*%
%TF.SameCoordinates,Original*%
%TF.FileFunction,Legend,Top*%
%TF.FilePolarity,Positive*%
%FSLAX46Y46*%
G04 Gerber Fmt 4.6, Leading zero omitted, Abs format (unit mm)*
G04 Created by KiCad (PCBNEW (5.1.6)-1) date 2020-08-15 20:42:22*
%MOMM*%
%LPD*%
G01*
G04 APERTURE LIST*
%ADD10C,0.150000*%
%ADD11C,0.250000*%
%ADD12C,0.120000*%
%ADD13C,0.200000*%
%ADD14C,0.100000*%
%ADD15C,0.300000*%
%ADD16C,0.254000*%
G04 APERTURE END LIST*
D10*
X199167857Y-65977380D02*
X198834523Y-65501190D01*
X198596428Y-65977380D02*
X198596428Y-64977380D01*
X198977380Y-64977380D01*
X199072619Y-65025000D01*
X199120238Y-65072619D01*
X199167857Y-65167857D01*
X199167857Y-65310714D01*
X199120238Y-65405952D01*
X199072619Y-65453571D01*
X198977380Y-65501190D01*
X198596428Y-65501190D01*
X199977380Y-65929761D02*
X199882142Y-65977380D01*
X199691666Y-65977380D01*
X199596428Y-65929761D01*
X199548809Y-65834523D01*
X199548809Y-65453571D01*
X199596428Y-65358333D01*
X199691666Y-65310714D01*
X199882142Y-65310714D01*
X199977380Y-65358333D01*
X200025000Y-65453571D01*
X200025000Y-65548809D01*
X199548809Y-65644047D01*
X200358333Y-65310714D02*
X200596428Y-65977380D01*
X200834523Y-65310714D01*
X202501190Y-65977380D02*
X201929761Y-65977380D01*
X202215476Y-65977380D02*
X202215476Y-64977380D01*
X202120238Y-65120238D01*
X202025000Y-65215476D01*
X201929761Y-65263095D01*
X196525000Y-67055952D02*
X196429761Y-67008333D01*
X196382142Y-66960714D01*
X196334523Y-66865476D01*
X196334523Y-66817857D01*
X196382142Y-66722619D01*
X196429761Y-66675000D01*
X196525000Y-66627380D01*
X196715476Y-66627380D01*
X196810714Y-66675000D01*
X196858333Y-66722619D01*
X196905952Y-66817857D01*
X196905952Y-66865476D01*
X196858333Y-66960714D01*
X196810714Y-67008333D01*
X196715476Y-67055952D01*
X196525000Y-67055952D01*
X196429761Y-67103571D01*
X196382142Y-67151190D01*
X196334523Y-67246428D01*
X196334523Y-67436904D01*
X196382142Y-67532142D01*
X196429761Y-67579761D01*
X196525000Y-67627380D01*
X196715476Y-67627380D01*
X196810714Y-67579761D01*
X196858333Y-67532142D01*
X196905952Y-67436904D01*
X196905952Y-67246428D01*
X196858333Y-67151190D01*
X196810714Y-67103571D01*
X196715476Y-67055952D01*
X198048809Y-66579761D02*
X197191666Y-67865476D01*
X198905952Y-67627380D02*
X198334523Y-67627380D01*
X198620238Y-67627380D02*
X198620238Y-66627380D01*
X198525000Y-66770238D01*
X198429761Y-66865476D01*
X198334523Y-66913095D01*
X199810714Y-66627380D02*
X199334523Y-66627380D01*
X199286904Y-67103571D01*
X199334523Y-67055952D01*
X199429761Y-67008333D01*
X199667857Y-67008333D01*
X199763095Y-67055952D01*
X199810714Y-67103571D01*
X199858333Y-67198809D01*
X199858333Y-67436904D01*
X199810714Y-67532142D01*
X199763095Y-67579761D01*
X199667857Y-67627380D01*
X199429761Y-67627380D01*
X199334523Y-67579761D01*
X199286904Y-67532142D01*
X201001190Y-66579761D02*
X200144047Y-67865476D01*
X201286904Y-66722619D02*
X201334523Y-66675000D01*
X201429761Y-66627380D01*
X201667857Y-66627380D01*
X201763095Y-66675000D01*
X201810714Y-66722619D01*
X201858333Y-66817857D01*
X201858333Y-66913095D01*
X201810714Y-67055952D01*
X201239285Y-67627380D01*
X201858333Y-67627380D01*
X202477380Y-66627380D02*
X202572619Y-66627380D01*
X202667857Y-66675000D01*
X202715476Y-66722619D01*
X202763095Y-66817857D01*
X202810714Y-67008333D01*
X202810714Y-67246428D01*
X202763095Y-67436904D01*
X202715476Y-67532142D01*
X202667857Y-67579761D01*
X202572619Y-67627380D01*
X202477380Y-67627380D01*
X202382142Y-67579761D01*
X202334523Y-67532142D01*
X202286904Y-67436904D01*
X202239285Y-67246428D01*
X202239285Y-67008333D01*
X202286904Y-66817857D01*
X202334523Y-66722619D01*
X202382142Y-66675000D01*
X202477380Y-66627380D01*
X203191666Y-66722619D02*
X203239285Y-66675000D01*
X203334523Y-66627380D01*
X203572619Y-66627380D01*
X203667857Y-66675000D01*
X203715476Y-66722619D01*
X203763095Y-66817857D01*
X203763095Y-66913095D01*
X203715476Y-67055952D01*
X203144047Y-67627380D01*
X203763095Y-67627380D01*
X204382142Y-66627380D02*
X204477380Y-66627380D01*
X204572619Y-66675000D01*
X204620238Y-66722619D01*
X204667857Y-66817857D01*
X204715476Y-67008333D01*
X204715476Y-67246428D01*
X204667857Y-67436904D01*
X204620238Y-67532142D01*
X204572619Y-67579761D01*
X204477380Y-67627380D01*
X204382142Y-67627380D01*
X204286904Y-67579761D01*
X204239285Y-67532142D01*
X204191666Y-67436904D01*
X204144047Y-67246428D01*
X204144047Y-67008333D01*
X204191666Y-66817857D01*
X204239285Y-66722619D01*
X204286904Y-66675000D01*
X204382142Y-66627380D01*
D11*
X196453571Y-59477380D02*
X197025000Y-59477380D01*
X196739285Y-60477380D02*
X196739285Y-59477380D01*
X197739285Y-60429761D02*
X197644047Y-60477380D01*
X197453571Y-60477380D01*
X197358333Y-60429761D01*
X197310714Y-60334523D01*
X197310714Y-59953571D01*
X197358333Y-59858333D01*
X197453571Y-59810714D01*
X197644047Y-59810714D01*
X197739285Y-59858333D01*
X197786904Y-59953571D01*
X197786904Y-60048809D01*
X197310714Y-60144047D01*
X198596428Y-60429761D02*
X198501190Y-60477380D01*
X198310714Y-60477380D01*
X198215476Y-60429761D01*
X198167857Y-60334523D01*
X198167857Y-59953571D01*
X198215476Y-59858333D01*
X198310714Y-59810714D01*
X198501190Y-59810714D01*
X198596428Y-59858333D01*
X198644047Y-59953571D01*
X198644047Y-60048809D01*
X198167857Y-60144047D01*
X199072619Y-59810714D02*
X199072619Y-60477380D01*
X199072619Y-59905952D02*
X199120238Y-59858333D01*
X199215476Y-59810714D01*
X199358333Y-59810714D01*
X199453571Y-59858333D01*
X199501190Y-59953571D01*
X199501190Y-60477380D01*
X199929761Y-60429761D02*
X200025000Y-60477380D01*
X200215476Y-60477380D01*
X200310714Y-60429761D01*
X200358333Y-60334523D01*
X200358333Y-60286904D01*
X200310714Y-60191666D01*
X200215476Y-60144047D01*
X200072619Y-60144047D01*
X199977380Y-60096428D01*
X199929761Y-60001190D01*
X199929761Y-59953571D01*
X199977380Y-59858333D01*
X200072619Y-59810714D01*
X200215476Y-59810714D01*
X200310714Y-59858333D01*
X200691666Y-59810714D02*
X200929761Y-60477380D01*
X201167857Y-59810714D02*
X200929761Y-60477380D01*
X200834523Y-60715476D01*
X200786904Y-60763095D01*
X200691666Y-60810714D01*
X202310714Y-60477380D02*
X202310714Y-59477380D01*
X202548809Y-59477380D01*
X202691666Y-59525000D01*
X202786904Y-59620238D01*
X202834523Y-59715476D01*
X202882142Y-59905952D01*
X202882142Y-60048809D01*
X202834523Y-60239285D01*
X202786904Y-60334523D01*
X202691666Y-60429761D01*
X202548809Y-60477380D01*
X202310714Y-60477380D01*
X203691666Y-60429761D02*
X203596428Y-60477380D01*
X203405952Y-60477380D01*
X203310714Y-60429761D01*
X203263095Y-60334523D01*
X203263095Y-59953571D01*
X203310714Y-59858333D01*
X203405952Y-59810714D01*
X203596428Y-59810714D01*
X203691666Y-59858333D01*
X203739285Y-59953571D01*
X203739285Y-60048809D01*
X203263095Y-60144047D01*
X204072619Y-59810714D02*
X204310714Y-60477380D01*
X204548809Y-59810714D01*
X205691666Y-60477380D02*
X205691666Y-59477380D01*
X205691666Y-59858333D02*
X205786904Y-59810714D01*
X205977380Y-59810714D01*
X206072619Y-59858333D01*
X206120238Y-59905952D01*
X206167857Y-60001190D01*
X206167857Y-60286904D01*
X206120238Y-60382142D01*
X206072619Y-60429761D01*
X205977380Y-60477380D01*
X205786904Y-60477380D01*
X205691666Y-60429761D01*
X206739285Y-60477380D02*
X206644047Y-60429761D01*
X206596428Y-60382142D01*
X206548809Y-60286904D01*
X206548809Y-60001190D01*
X206596428Y-59905952D01*
X206644047Y-59858333D01*
X206739285Y-59810714D01*
X206882142Y-59810714D01*
X206977380Y-59858333D01*
X207025000Y-59905952D01*
X207072619Y-60001190D01*
X207072619Y-60286904D01*
X207025000Y-60382142D01*
X206977380Y-60429761D01*
X206882142Y-60477380D01*
X206739285Y-60477380D01*
X207929761Y-60477380D02*
X207929761Y-59953571D01*
X207882142Y-59858333D01*
X207786904Y-59810714D01*
X207596428Y-59810714D01*
X207501190Y-59858333D01*
X207929761Y-60429761D02*
X207834523Y-60477380D01*
X207596428Y-60477380D01*
X207501190Y-60429761D01*
X207453571Y-60334523D01*
X207453571Y-60239285D01*
X207501190Y-60144047D01*
X207596428Y-60096428D01*
X207834523Y-60096428D01*
X207929761Y-60048809D01*
X208405952Y-60477380D02*
X208405952Y-59810714D01*
X208405952Y-60001190D02*
X208453571Y-59905952D01*
X208501190Y-59858333D01*
X208596428Y-59810714D01*
X208691666Y-59810714D01*
X209453571Y-60477380D02*
X209453571Y-59477380D01*
X209453571Y-60429761D02*
X209358333Y-60477380D01*
X209167857Y-60477380D01*
X209072619Y-60429761D01*
X209025000Y-60382142D01*
X208977380Y-60286904D01*
X208977380Y-60001190D01*
X209025000Y-59905952D01*
X209072619Y-59858333D01*
X209167857Y-59810714D01*
X209358333Y-59810714D01*
X209453571Y-59858333D01*
X195739285Y-62977380D02*
X195929761Y-62977380D01*
X196025000Y-63025000D01*
X196120238Y-63120238D01*
X196167857Y-63310714D01*
X196167857Y-63644047D01*
X196120238Y-63834523D01*
X196025000Y-63929761D01*
X195929761Y-63977380D01*
X195739285Y-63977380D01*
X195644047Y-63929761D01*
X195548809Y-63834523D01*
X195501190Y-63644047D01*
X195501190Y-63310714D01*
X195548809Y-63120238D01*
X195644047Y-63025000D01*
X195739285Y-62977380D01*
X196596428Y-63310714D02*
X196596428Y-63977380D01*
X196596428Y-63405952D02*
X196644047Y-63358333D01*
X196739285Y-63310714D01*
X196882142Y-63310714D01*
X196977380Y-63358333D01*
X197025000Y-63453571D01*
X197025000Y-63977380D01*
X197358333Y-63310714D02*
X197739285Y-63310714D01*
X197501190Y-62977380D02*
X197501190Y-63834523D01*
X197548809Y-63929761D01*
X197644047Y-63977380D01*
X197739285Y-63977380D01*
X197977380Y-63310714D02*
X198167857Y-63977380D01*
X198358333Y-63501190D01*
X198548809Y-63977380D01*
X198739285Y-63310714D01*
X199263095Y-63977380D02*
X199167857Y-63929761D01*
X199120238Y-63882142D01*
X199072619Y-63786904D01*
X199072619Y-63501190D01*
X199120238Y-63405952D01*
X199167857Y-63358333D01*
X199263095Y-63310714D01*
X199405952Y-63310714D01*
X199501190Y-63358333D01*
X199548809Y-63405952D01*
X199596428Y-63501190D01*
X199596428Y-63786904D01*
X199548809Y-63882142D01*
X199501190Y-63929761D01*
X199405952Y-63977380D01*
X199263095Y-63977380D01*
X200025000Y-63977380D02*
X200025000Y-63310714D01*
X200025000Y-63501190D02*
X200072619Y-63405952D01*
X200120238Y-63358333D01*
X200215476Y-63310714D01*
X200310714Y-63310714D01*
X200644047Y-63310714D02*
X200644047Y-64310714D01*
X200644047Y-63358333D02*
X200739285Y-63310714D01*
X200929761Y-63310714D01*
X201025000Y-63358333D01*
X201072619Y-63405952D01*
X201120238Y-63501190D01*
X201120238Y-63786904D01*
X201072619Y-63882142D01*
X201025000Y-63929761D01*
X200929761Y-63977380D01*
X200739285Y-63977380D01*
X200644047Y-63929761D01*
X201929761Y-63929761D02*
X201834523Y-63977380D01*
X201644047Y-63977380D01*
X201548809Y-63929761D01*
X201501190Y-63834523D01*
X201501190Y-63453571D01*
X201548809Y-63358333D01*
X201644047Y-63310714D01*
X201834523Y-63310714D01*
X201929761Y-63358333D01*
X201977380Y-63453571D01*
X201977380Y-63548809D01*
X201501190Y-63644047D01*
X202405952Y-63310714D02*
X202405952Y-63977380D01*
X202405952Y-63405952D02*
X202453571Y-63358333D01*
X202548809Y-63310714D01*
X202691666Y-63310714D01*
X202786904Y-63358333D01*
X202834523Y-63453571D01*
X202834523Y-63977380D01*
X204501190Y-63977380D02*
X204501190Y-62977380D01*
X204501190Y-63929761D02*
X204405952Y-63977380D01*
X204215476Y-63977380D01*
X204120238Y-63929761D01*
X204072619Y-63882142D01*
X204025000Y-63786904D01*
X204025000Y-63501190D01*
X204072619Y-63405952D01*
X204120238Y-63358333D01*
X204215476Y-63310714D01*
X204405952Y-63310714D01*
X204501190Y-63358333D01*
X205120238Y-63977380D02*
X205025000Y-63929761D01*
X204977380Y-63882142D01*
X204929761Y-63786904D01*
X204929761Y-63501190D01*
X204977380Y-63405952D01*
X205025000Y-63358333D01*
X205120238Y-63310714D01*
X205263095Y-63310714D01*
X205358333Y-63358333D01*
X205405952Y-63405952D01*
X205453571Y-63501190D01*
X205453571Y-63786904D01*
X205405952Y-63882142D01*
X205358333Y-63929761D01*
X205263095Y-63977380D01*
X205120238Y-63977380D01*
X206025000Y-63977380D02*
X205929761Y-63929761D01*
X205882142Y-63882142D01*
X205834523Y-63786904D01*
X205834523Y-63501190D01*
X205882142Y-63405952D01*
X205929761Y-63358333D01*
X206025000Y-63310714D01*
X206167857Y-63310714D01*
X206263095Y-63358333D01*
X206310714Y-63405952D01*
X206358333Y-63501190D01*
X206358333Y-63786904D01*
X206310714Y-63882142D01*
X206263095Y-63929761D01*
X206167857Y-63977380D01*
X206025000Y-63977380D01*
X206786904Y-63977380D02*
X206786904Y-63310714D01*
X206786904Y-63501190D02*
X206834523Y-63405952D01*
X206882142Y-63358333D01*
X206977380Y-63310714D01*
X207072619Y-63310714D01*
X208501190Y-63453571D02*
X208644047Y-63501190D01*
X208691666Y-63548809D01*
X208739285Y-63644047D01*
X208739285Y-63786904D01*
X208691666Y-63882142D01*
X208644047Y-63929761D01*
X208548809Y-63977380D01*
X208167857Y-63977380D01*
X208167857Y-62977380D01*
X208501190Y-62977380D01*
X208596428Y-63025000D01*
X208644047Y-63072619D01*
X208691666Y-63167857D01*
X208691666Y-63263095D01*
X208644047Y-63358333D01*
X208596428Y-63405952D01*
X208501190Y-63453571D01*
X208167857Y-63453571D01*
X209167857Y-63977380D02*
X209167857Y-62977380D01*
X209405952Y-62977380D01*
X209548809Y-63025000D01*
X209644047Y-63120238D01*
X209691666Y-63215476D01*
X209739285Y-63405952D01*
X209739285Y-63548809D01*
X209691666Y-63739285D01*
X209644047Y-63834523D01*
X209548809Y-63929761D01*
X209405952Y-63977380D01*
X209167857Y-63977380D01*
X210644047Y-63977380D02*
X210167857Y-63977380D01*
X210167857Y-62977380D01*
D12*
X155500000Y-88500000D02*
G75*
G03*
X155500000Y-88500000I-500000J0D01*
G01*
%TO.C,BT1*%
X173915000Y-60010000D02*
X173915000Y-60860000D01*
X173915000Y-60860000D02*
X176240000Y-60860000D01*
X176240000Y-60860000D02*
X176240000Y-63250000D01*
X182085000Y-60010000D02*
X182085000Y-60860000D01*
X182085000Y-60860000D02*
X179760000Y-60860000D01*
X173915000Y-56490000D02*
X173915000Y-55640000D01*
X173915000Y-55640000D02*
X182085000Y-55640000D01*
X182085000Y-55640000D02*
X182085000Y-56490000D01*
%TO.C,J1*%
X226330000Y-58170000D02*
X221130000Y-58170000D01*
X226330000Y-121730000D02*
X226330000Y-58170000D01*
X221130000Y-124330000D02*
X221130000Y-58170000D01*
X226330000Y-121730000D02*
X223730000Y-121730000D01*
X223730000Y-121730000D02*
X223730000Y-124330000D01*
X223730000Y-124330000D02*
X221130000Y-124330000D01*
X226330000Y-123000000D02*
X226330000Y-124330000D01*
X226330000Y-124330000D02*
X225000000Y-124330000D01*
%TO.C,J2*%
X122670000Y-57670000D02*
X124000000Y-57670000D01*
X122670000Y-59000000D02*
X122670000Y-57670000D01*
X125270000Y-57670000D02*
X127870000Y-57670000D01*
X125270000Y-60270000D02*
X125270000Y-57670000D01*
X122670000Y-60270000D02*
X125270000Y-60270000D01*
X127870000Y-57670000D02*
X127870000Y-123830000D01*
X122670000Y-60270000D02*
X122670000Y-123830000D01*
X122670000Y-123830000D02*
X127870000Y-123830000D01*
D13*
%TO.C,J3*%
X197450000Y-118400000D02*
X197450000Y-121689000D01*
X210550000Y-118400000D02*
X210550000Y-121689000D01*
X197450000Y-125600000D02*
X210550000Y-125600000D01*
X200439770Y-113095000D02*
G75*
G03*
X200439770Y-113095000I-36770J0D01*
G01*
D14*
%TO.C,J4*%
X162135000Y-124780000D02*
X137035000Y-124780000D01*
X137035000Y-124780000D02*
X137035000Y-102460000D01*
X137035000Y-102460000D02*
X162135000Y-102460000D01*
X162135000Y-102460000D02*
X162135000Y-124780000D01*
D15*
X135810000Y-106960000D02*
X135810000Y-106960000D01*
X135810000Y-107260000D02*
X135810000Y-107260000D01*
X135810000Y-107260000D02*
G75*
G02*
X135810000Y-106960000I0J150000D01*
G01*
X135810000Y-106960000D02*
G75*
G02*
X135810000Y-107260000I0J-150000D01*
G01*
D13*
%TO.C,T1*%
X155850000Y-98545000D02*
X155850000Y-89455000D01*
X143150000Y-98545000D02*
X143150000Y-89455000D01*
D14*
%TO.C,U1*%
G36*
X177693000Y-90803000D02*
G01*
X177947000Y-91057000D01*
X177566000Y-91311000D01*
X177312000Y-91057000D01*
X177693000Y-90803000D01*
G37*
X177693000Y-90803000D02*
X177947000Y-91057000D01*
X177566000Y-91311000D01*
X177312000Y-91057000D01*
X177693000Y-90803000D01*
G36*
X178074000Y-91184000D02*
G01*
X178328000Y-91438000D01*
X177947000Y-91692000D01*
X177693000Y-91438000D01*
X178074000Y-91184000D01*
G37*
X178074000Y-91184000D02*
X178328000Y-91438000D01*
X177947000Y-91692000D01*
X177693000Y-91438000D01*
X178074000Y-91184000D01*
G36*
X177312000Y-93089000D02*
G01*
X177566000Y-93343000D01*
X177185000Y-93597000D01*
X176931000Y-93343000D01*
X177312000Y-93089000D01*
G37*
X177312000Y-93089000D02*
X177566000Y-93343000D01*
X177185000Y-93597000D01*
X176931000Y-93343000D01*
X177312000Y-93089000D01*
G36*
X177820000Y-92708000D02*
G01*
X178074000Y-92962000D01*
X177693000Y-93216000D01*
X177439000Y-92962000D01*
X177820000Y-92708000D01*
G37*
X177820000Y-92708000D02*
X178074000Y-92962000D01*
X177693000Y-93216000D01*
X177439000Y-92962000D01*
X177820000Y-92708000D01*
G36*
X178328000Y-92327000D02*
G01*
X178582000Y-92581000D01*
X178201000Y-92835000D01*
X177947000Y-92581000D01*
X178328000Y-92327000D01*
G37*
X178328000Y-92327000D02*
X178582000Y-92581000D01*
X178201000Y-92835000D01*
X177947000Y-92581000D01*
X178328000Y-92327000D01*
G36*
X177439000Y-92327000D02*
G01*
X177693000Y-92581000D01*
X177312000Y-92835000D01*
X177058000Y-92581000D01*
X177439000Y-92327000D01*
G37*
X177439000Y-92327000D02*
X177693000Y-92581000D01*
X177312000Y-92835000D01*
X177058000Y-92581000D01*
X177439000Y-92327000D01*
G36*
X177947000Y-91946000D02*
G01*
X178201000Y-92200000D01*
X177820000Y-92454000D01*
X177566000Y-92200000D01*
X177947000Y-91946000D01*
G37*
X177947000Y-91946000D02*
X178201000Y-92200000D01*
X177820000Y-92454000D01*
X177566000Y-92200000D01*
X177947000Y-91946000D01*
G36*
X178455000Y-91565000D02*
G01*
X178709000Y-91819000D01*
X178328000Y-92073000D01*
X178074000Y-91819000D01*
X178455000Y-91565000D01*
G37*
X178455000Y-91565000D02*
X178709000Y-91819000D01*
X178328000Y-92073000D01*
X178074000Y-91819000D01*
X178455000Y-91565000D01*
D10*
X186890000Y-124480000D02*
X169110000Y-124480000D01*
X186890000Y-63520000D02*
X186890000Y-124480000D01*
X169110000Y-63520000D02*
X186890000Y-63520000D01*
X169110000Y-124480000D02*
X169110000Y-63520000D01*
X181810000Y-119400000D02*
X181810000Y-124480000D01*
X174190000Y-119400000D02*
X174190000Y-124480000D01*
X181810000Y-119400000D02*
X174190000Y-119400000D01*
X174190000Y-125750000D02*
X174190000Y-124480000D01*
X181810000Y-125750000D02*
X174190000Y-125750000D01*
X181810000Y-124480000D02*
X181810000Y-125750000D01*
X171650000Y-63520000D02*
X171650000Y-76220000D01*
X171650000Y-76220000D02*
X184350000Y-76220000D01*
X184350000Y-76220000D02*
X184350000Y-63520000D01*
X172920000Y-63520000D02*
X172920000Y-64790000D01*
X172920000Y-64790000D02*
X183080000Y-64790000D01*
X183080000Y-64790000D02*
X183080000Y-63520000D01*
X176730000Y-80030000D02*
X179270000Y-80030000D01*
X179270000Y-80030000D02*
X179270000Y-83840000D01*
X179270000Y-83840000D02*
X176730000Y-83840000D01*
X176730000Y-83840000D02*
X176730000Y-80030000D01*
X181299200Y-118180800D02*
X181299200Y-105480800D01*
X181299200Y-105480800D02*
X183839200Y-105480800D01*
X183839200Y-105480800D02*
X183839200Y-118180800D01*
X183839200Y-118180800D02*
X181299200Y-118180800D01*
X181299200Y-118180800D02*
X181299200Y-115640800D01*
X181299200Y-115640800D02*
X183839200Y-115640800D01*
X171898400Y-111250000D02*
X177898400Y-111250000D01*
X177898400Y-111250000D02*
X177898400Y-107250000D01*
X177898400Y-107250000D02*
X171648400Y-107250000D01*
X171648400Y-107250000D02*
X171648400Y-111250000D01*
X171648400Y-111250000D02*
X171898400Y-111250000D01*
X184350000Y-101620000D02*
X184350000Y-88920000D01*
X184350000Y-88920000D02*
X171650000Y-88920000D01*
X171650000Y-88920000D02*
X171650000Y-101620000D01*
X171650000Y-101620000D02*
X184350000Y-101620000D01*
X178898026Y-81935000D02*
G75*
G03*
X178898026Y-81935000I-898026J0D01*
G01*
%TO.C,BT1*%
X177214285Y-54478571D02*
X177357142Y-54526190D01*
X177404761Y-54573809D01*
X177452380Y-54669047D01*
X177452380Y-54811904D01*
X177404761Y-54907142D01*
X177357142Y-54954761D01*
X177261904Y-55002380D01*
X176880952Y-55002380D01*
X176880952Y-54002380D01*
X177214285Y-54002380D01*
X177309523Y-54050000D01*
X177357142Y-54097619D01*
X177404761Y-54192857D01*
X177404761Y-54288095D01*
X177357142Y-54383333D01*
X177309523Y-54430952D01*
X177214285Y-54478571D01*
X176880952Y-54478571D01*
X177738095Y-54002380D02*
X178309523Y-54002380D01*
X178023809Y-55002380D02*
X178023809Y-54002380D01*
X179166666Y-55002380D02*
X178595238Y-55002380D01*
X178880952Y-55002380D02*
X178880952Y-54002380D01*
X178785714Y-54145238D01*
X178690476Y-54240476D01*
X178595238Y-54288095D01*
%TO.C,J1*%
X223396666Y-124782380D02*
X223396666Y-125496666D01*
X223349047Y-125639523D01*
X223253809Y-125734761D01*
X223110952Y-125782380D01*
X223015714Y-125782380D01*
X224396666Y-125782380D02*
X223825238Y-125782380D01*
X224110952Y-125782380D02*
X224110952Y-124782380D01*
X224015714Y-124925238D01*
X223920476Y-125020476D01*
X223825238Y-125068095D01*
%TO.C,J2*%
X124936666Y-56122380D02*
X124936666Y-56836666D01*
X124889047Y-56979523D01*
X124793809Y-57074761D01*
X124650952Y-57122380D01*
X124555714Y-57122380D01*
X125365238Y-56217619D02*
X125412857Y-56170000D01*
X125508095Y-56122380D01*
X125746190Y-56122380D01*
X125841428Y-56170000D01*
X125889047Y-56217619D01*
X125936666Y-56312857D01*
X125936666Y-56408095D01*
X125889047Y-56550952D01*
X125317619Y-57122380D01*
X125936666Y-57122380D01*
%TO.C,J3*%
D16*
X203309666Y-119282523D02*
X203309666Y-120189666D01*
X203249190Y-120371095D01*
X203128238Y-120492047D01*
X202946809Y-120552523D01*
X202825857Y-120552523D01*
X203793476Y-119282523D02*
X204579666Y-119282523D01*
X204156333Y-119766333D01*
X204337761Y-119766333D01*
X204458714Y-119826809D01*
X204519190Y-119887285D01*
X204579666Y-120008238D01*
X204579666Y-120310619D01*
X204519190Y-120431571D01*
X204458714Y-120492047D01*
X204337761Y-120552523D01*
X203974904Y-120552523D01*
X203853952Y-120492047D01*
X203793476Y-120431571D01*
%TO.C,J4*%
X148474666Y-112964523D02*
X148474666Y-113871666D01*
X148414190Y-114053095D01*
X148293238Y-114174047D01*
X148111809Y-114234523D01*
X147990857Y-114234523D01*
X149623714Y-113387857D02*
X149623714Y-114234523D01*
X149321333Y-112904047D02*
X149018952Y-113811190D01*
X149805142Y-113811190D01*
%TO.C,T1*%
X148825380Y-93423523D02*
X149551095Y-93423523D01*
X149188238Y-94693523D02*
X149188238Y-93423523D01*
X150639666Y-94693523D02*
X149913952Y-94693523D01*
X150276809Y-94693523D02*
X150276809Y-93423523D01*
X150155857Y-93604952D01*
X150034904Y-93725904D01*
X149913952Y-93786380D01*
%TO.C,U1*%
D10*
X167292380Y-94761904D02*
X168101904Y-94761904D01*
X168197142Y-94714285D01*
X168244761Y-94666666D01*
X168292380Y-94571428D01*
X168292380Y-94380952D01*
X168244761Y-94285714D01*
X168197142Y-94238095D01*
X168101904Y-94190476D01*
X167292380Y-94190476D01*
X168292380Y-93190476D02*
X168292380Y-93761904D01*
X168292380Y-93476190D02*
X167292380Y-93476190D01*
X167435238Y-93571428D01*
X167530476Y-93666666D01*
X167578095Y-93761904D01*
X176436666Y-96856666D02*
X176436666Y-96156666D01*
X176603333Y-96156666D01*
X176703333Y-96190000D01*
X176770000Y-96256666D01*
X176803333Y-96323333D01*
X176836666Y-96456666D01*
X176836666Y-96556666D01*
X176803333Y-96690000D01*
X176770000Y-96756666D01*
X176703333Y-96823333D01*
X176603333Y-96856666D01*
X176436666Y-96856666D01*
X177036666Y-96156666D02*
X177270000Y-96856666D01*
X177503333Y-96156666D01*
X177936666Y-96156666D02*
X177936666Y-96656666D01*
X177903333Y-96756666D01*
X177836666Y-96823333D01*
X177736666Y-96856666D01*
X177670000Y-96856666D01*
X178570000Y-96156666D02*
X178436666Y-96156666D01*
X178370000Y-96190000D01*
X178336666Y-96223333D01*
X178270000Y-96323333D01*
X178236666Y-96456666D01*
X178236666Y-96723333D01*
X178270000Y-96790000D01*
X178303333Y-96823333D01*
X178370000Y-96856666D01*
X178503333Y-96856666D01*
X178570000Y-96823333D01*
X178603333Y-96790000D01*
X178636666Y-96723333D01*
X178636666Y-96556666D01*
X178603333Y-96490000D01*
X178570000Y-96456666D01*
X178503333Y-96423333D01*
X178370000Y-96423333D01*
X178303333Y-96456666D01*
X178270000Y-96490000D01*
X178236666Y-96556666D01*
X178903333Y-96656666D02*
X179236666Y-96656666D01*
X178836666Y-96856666D02*
X179070000Y-96156666D01*
X179303333Y-96856666D01*
X174916666Y-95586666D02*
X174916666Y-94886666D01*
X175150000Y-95386666D01*
X175383333Y-94886666D01*
X175383333Y-95586666D01*
X175716666Y-95586666D02*
X175716666Y-94886666D01*
X176050000Y-95586666D02*
X176050000Y-94886666D01*
X176283333Y-95386666D01*
X176516666Y-94886666D01*
X176516666Y-95586666D01*
X176783333Y-94886666D02*
X177250000Y-95586666D01*
X177250000Y-94886666D02*
X176783333Y-95586666D01*
X177916666Y-95586666D02*
X177683333Y-95253333D01*
X177516666Y-95586666D02*
X177516666Y-94886666D01*
X177783333Y-94886666D01*
X177850000Y-94920000D01*
X177883333Y-94953333D01*
X177916666Y-95020000D01*
X177916666Y-95120000D01*
X177883333Y-95186666D01*
X177850000Y-95220000D01*
X177783333Y-95253333D01*
X177516666Y-95253333D01*
X178116666Y-94886666D02*
X178516666Y-94886666D01*
X178316666Y-95586666D02*
X178316666Y-94886666D01*
X179116666Y-95586666D02*
X178716666Y-95586666D01*
X178916666Y-95586666D02*
X178916666Y-94886666D01*
X178850000Y-94986666D01*
X178783333Y-95053333D01*
X178716666Y-95086666D01*
X179550000Y-94886666D02*
X179616666Y-94886666D01*
X179683333Y-94920000D01*
X179716666Y-94953333D01*
X179750000Y-95020000D01*
X179783333Y-95153333D01*
X179783333Y-95320000D01*
X179750000Y-95453333D01*
X179716666Y-95520000D01*
X179683333Y-95553333D01*
X179616666Y-95586666D01*
X179550000Y-95586666D01*
X179483333Y-95553333D01*
X179450000Y-95520000D01*
X179416666Y-95453333D01*
X179383333Y-95320000D01*
X179383333Y-95153333D01*
X179416666Y-95020000D01*
X179450000Y-94953333D01*
X179483333Y-94920000D01*
X179550000Y-94886666D01*
X180383333Y-94886666D02*
X180250000Y-94886666D01*
X180183333Y-94920000D01*
X180150000Y-94953333D01*
X180083333Y-95053333D01*
X180050000Y-95186666D01*
X180050000Y-95453333D01*
X180083333Y-95520000D01*
X180116666Y-95553333D01*
X180183333Y-95586666D01*
X180316666Y-95586666D01*
X180383333Y-95553333D01*
X180416666Y-95520000D01*
X180450000Y-95453333D01*
X180450000Y-95286666D01*
X180416666Y-95220000D01*
X180383333Y-95186666D01*
X180316666Y-95153333D01*
X180183333Y-95153333D01*
X180116666Y-95186666D01*
X180083333Y-95220000D01*
X180050000Y-95286666D01*
X180716666Y-94953333D02*
X180750000Y-94920000D01*
X180816666Y-94886666D01*
X180983333Y-94886666D01*
X181050000Y-94920000D01*
X181083333Y-94953333D01*
X181116666Y-95020000D01*
X181116666Y-95086666D01*
X181083333Y-95186666D01*
X180683333Y-95586666D01*
X181116666Y-95586666D01*
X178452380Y-72989047D02*
X177452380Y-72989047D01*
X178166666Y-72655714D01*
X177452380Y-72322380D01*
X178452380Y-72322380D01*
X178452380Y-71846190D02*
X177785714Y-71846190D01*
X177452380Y-71846190D02*
X177500000Y-71893809D01*
X177547619Y-71846190D01*
X177500000Y-71798571D01*
X177452380Y-71846190D01*
X177547619Y-71846190D01*
X178404761Y-70941428D02*
X178452380Y-71036666D01*
X178452380Y-71227142D01*
X178404761Y-71322380D01*
X178357142Y-71370000D01*
X178261904Y-71417619D01*
X177976190Y-71417619D01*
X177880952Y-71370000D01*
X177833333Y-71322380D01*
X177785714Y-71227142D01*
X177785714Y-71036666D01*
X177833333Y-70941428D01*
X178452380Y-70512857D02*
X177785714Y-70512857D01*
X177976190Y-70512857D02*
X177880952Y-70465238D01*
X177833333Y-70417619D01*
X177785714Y-70322380D01*
X177785714Y-70227142D01*
X178452380Y-69750952D02*
X178404761Y-69846190D01*
X178357142Y-69893809D01*
X178261904Y-69941428D01*
X177976190Y-69941428D01*
X177880952Y-69893809D01*
X177833333Y-69846190D01*
X177785714Y-69750952D01*
X177785714Y-69608095D01*
X177833333Y-69512857D01*
X177880952Y-69465238D01*
X177976190Y-69417619D01*
X178261904Y-69417619D01*
X178357142Y-69465238D01*
X178404761Y-69512857D01*
X178452380Y-69608095D01*
X178452380Y-69750952D01*
X178404761Y-68274761D02*
X178452380Y-68131904D01*
X178452380Y-67893809D01*
X178404761Y-67798571D01*
X178357142Y-67750952D01*
X178261904Y-67703333D01*
X178166666Y-67703333D01*
X178071428Y-67750952D01*
X178023809Y-67798571D01*
X177976190Y-67893809D01*
X177928571Y-68084285D01*
X177880952Y-68179523D01*
X177833333Y-68227142D01*
X177738095Y-68274761D01*
X177642857Y-68274761D01*
X177547619Y-68227142D01*
X177500000Y-68179523D01*
X177452380Y-68084285D01*
X177452380Y-67846190D01*
X177500000Y-67703333D01*
X178452380Y-67274761D02*
X177452380Y-67274761D01*
X177452380Y-67036666D01*
X177500000Y-66893809D01*
X177595238Y-66798571D01*
X177690476Y-66750952D01*
X177880952Y-66703333D01*
X178023809Y-66703333D01*
X178214285Y-66750952D01*
X178309523Y-66798571D01*
X178404761Y-66893809D01*
X178452380Y-67036666D01*
X178452380Y-67274761D01*
X176738095Y-120122380D02*
X176738095Y-120931904D01*
X176785714Y-121027142D01*
X176833333Y-121074761D01*
X176928571Y-121122380D01*
X177119047Y-121122380D01*
X177214285Y-121074761D01*
X177261904Y-121027142D01*
X177309523Y-120931904D01*
X177309523Y-120122380D01*
X177738095Y-121074761D02*
X177880952Y-121122380D01*
X178119047Y-121122380D01*
X178214285Y-121074761D01*
X178261904Y-121027142D01*
X178309523Y-120931904D01*
X178309523Y-120836666D01*
X178261904Y-120741428D01*
X178214285Y-120693809D01*
X178119047Y-120646190D01*
X177928571Y-120598571D01*
X177833333Y-120550952D01*
X177785714Y-120503333D01*
X177738095Y-120408095D01*
X177738095Y-120312857D01*
X177785714Y-120217619D01*
X177833333Y-120170000D01*
X177928571Y-120122380D01*
X178166666Y-120122380D01*
X178309523Y-120170000D01*
X179071428Y-120598571D02*
X179214285Y-120646190D01*
X179261904Y-120693809D01*
X179309523Y-120789047D01*
X179309523Y-120931904D01*
X179261904Y-121027142D01*
X179214285Y-121074761D01*
X179119047Y-121122380D01*
X178738095Y-121122380D01*
X178738095Y-120122380D01*
X179071428Y-120122380D01*
X179166666Y-120170000D01*
X179214285Y-120217619D01*
X179261904Y-120312857D01*
X179261904Y-120408095D01*
X179214285Y-120503333D01*
X179166666Y-120550952D01*
X179071428Y-120598571D01*
X178738095Y-120598571D01*
X171866257Y-105993571D02*
X172199590Y-105993571D01*
X172342447Y-106517380D02*
X171866257Y-106517380D01*
X171866257Y-105517380D01*
X172342447Y-105517380D01*
X172628161Y-105850714D02*
X173009114Y-105850714D01*
X172771019Y-105517380D02*
X172771019Y-106374523D01*
X172818638Y-106469761D01*
X172913876Y-106517380D01*
X173009114Y-106517380D01*
X173342447Y-106517380D02*
X173342447Y-105517380D01*
X173771019Y-106517380D02*
X173771019Y-105993571D01*
X173723400Y-105898333D01*
X173628161Y-105850714D01*
X173485304Y-105850714D01*
X173390066Y-105898333D01*
X173342447Y-105945952D01*
X174628161Y-106469761D02*
X174532923Y-106517380D01*
X174342447Y-106517380D01*
X174247209Y-106469761D01*
X174199590Y-106374523D01*
X174199590Y-105993571D01*
X174247209Y-105898333D01*
X174342447Y-105850714D01*
X174532923Y-105850714D01*
X174628161Y-105898333D01*
X174675780Y-105993571D01*
X174675780Y-106088809D01*
X174199590Y-106184047D01*
X175104352Y-106517380D02*
X175104352Y-105850714D01*
X175104352Y-106041190D02*
X175151971Y-105945952D01*
X175199590Y-105898333D01*
X175294828Y-105850714D01*
X175390066Y-105850714D01*
X175723400Y-105850714D02*
X175723400Y-106517380D01*
X175723400Y-105945952D02*
X175771019Y-105898333D01*
X175866257Y-105850714D01*
X176009114Y-105850714D01*
X176104352Y-105898333D01*
X176151971Y-105993571D01*
X176151971Y-106517380D01*
X177009114Y-106469761D02*
X176913876Y-106517380D01*
X176723400Y-106517380D01*
X176628161Y-106469761D01*
X176580542Y-106374523D01*
X176580542Y-105993571D01*
X176628161Y-105898333D01*
X176723400Y-105850714D01*
X176913876Y-105850714D01*
X177009114Y-105898333D01*
X177056733Y-105993571D01*
X177056733Y-106088809D01*
X176580542Y-106184047D01*
X177342447Y-105850714D02*
X177723400Y-105850714D01*
X177485304Y-105517380D02*
X177485304Y-106374523D01*
X177532923Y-106469761D01*
X177628161Y-106517380D01*
X177723400Y-106517380D01*
X179941580Y-115775323D02*
X180751104Y-115775323D01*
X180846342Y-115727704D01*
X180893961Y-115680085D01*
X180941580Y-115584847D01*
X180941580Y-115394371D01*
X180893961Y-115299133D01*
X180846342Y-115251514D01*
X180751104Y-115203895D01*
X179941580Y-115203895D01*
X180893961Y-114775323D02*
X180941580Y-114632466D01*
X180941580Y-114394371D01*
X180893961Y-114299133D01*
X180846342Y-114251514D01*
X180751104Y-114203895D01*
X180655866Y-114203895D01*
X180560628Y-114251514D01*
X180513009Y-114299133D01*
X180465390Y-114394371D01*
X180417771Y-114584847D01*
X180370152Y-114680085D01*
X180322533Y-114727704D01*
X180227295Y-114775323D01*
X180132057Y-114775323D01*
X180036819Y-114727704D01*
X179989200Y-114680085D01*
X179941580Y-114584847D01*
X179941580Y-114346752D01*
X179989200Y-114203895D01*
X180417771Y-113441990D02*
X180465390Y-113299133D01*
X180513009Y-113251514D01*
X180608247Y-113203895D01*
X180751104Y-113203895D01*
X180846342Y-113251514D01*
X180893961Y-113299133D01*
X180941580Y-113394371D01*
X180941580Y-113775323D01*
X179941580Y-113775323D01*
X179941580Y-113441990D01*
X179989200Y-113346752D01*
X180036819Y-113299133D01*
X180132057Y-113251514D01*
X180227295Y-113251514D01*
X180322533Y-113299133D01*
X180370152Y-113346752D01*
X180417771Y-113441990D01*
X180417771Y-113775323D01*
X180941580Y-112013419D02*
X179941580Y-112013419D01*
X180417771Y-112013419D02*
X180417771Y-111441990D01*
X180941580Y-111441990D02*
X179941580Y-111441990D01*
X180941580Y-110822942D02*
X180893961Y-110918180D01*
X180846342Y-110965800D01*
X180751104Y-111013419D01*
X180465390Y-111013419D01*
X180370152Y-110965800D01*
X180322533Y-110918180D01*
X180274914Y-110822942D01*
X180274914Y-110680085D01*
X180322533Y-110584847D01*
X180370152Y-110537228D01*
X180465390Y-110489609D01*
X180751104Y-110489609D01*
X180846342Y-110537228D01*
X180893961Y-110584847D01*
X180941580Y-110680085D01*
X180941580Y-110822942D01*
X180893961Y-110108657D02*
X180941580Y-110013419D01*
X180941580Y-109822942D01*
X180893961Y-109727704D01*
X180798723Y-109680085D01*
X180751104Y-109680085D01*
X180655866Y-109727704D01*
X180608247Y-109822942D01*
X180608247Y-109965800D01*
X180560628Y-110061038D01*
X180465390Y-110108657D01*
X180417771Y-110108657D01*
X180322533Y-110061038D01*
X180274914Y-109965800D01*
X180274914Y-109822942D01*
X180322533Y-109727704D01*
X180274914Y-109394371D02*
X180274914Y-109013419D01*
X179941580Y-109251514D02*
X180798723Y-109251514D01*
X180893961Y-109203895D01*
X180941580Y-109108657D01*
X180941580Y-109013419D01*
%TD*%
M02*
